<svg xmlns="http://www.w3.org/2000/svg" xmlns:xlink="http://www.w3.org/1999/xlink" width="39.692" height="46.775" viewBox="0 0 39.692 46.775">
  <defs>
    <linearGradient id="linear-gradient" x1="0.5" x2="0.5" y2="1" gradientUnits="objectBoundingBox">
      <stop offset="0" stop-color="#d94141"/>
      <stop offset="1" stop-color="#f26a4b"/>
    </linearGradient>
  </defs>
  <g id="Group_250" data-name="Group 250" transform="translate(-1226.918 -634.178)">
    <path id="Path_313" data-name="Path 313" d="M1266.085,661.005a.707.707,0,0,0-.789.336,15.842,15.842,0,0,1-7.154,5.975,6.05,6.05,0,0,1-5.722-.672,6.434,6.434,0,0,1-2.82-5.324V650.758h5.671a2.83,2.83,0,0,0,0-5.66H1249.6v-3.515a4.255,4.255,0,1,0-5.672,0V645.1h-5.671a2.83,2.83,0,1,0,0,5.66h5.671V661.32a6.433,6.433,0,0,1-2.82,5.324,6.071,6.071,0,0,1-5.733.672,15.777,15.777,0,0,1-7.143-5.975.7.7,0,0,0-1.314.358c0,10.646,7.638,12.962,13.223,14.686,3.661,1.116,5.912,1.894,5.912,3.851a.709.709,0,0,0,.706.717.718.718,0,0,0,.716-.717c0-1.957,2.241-2.734,5.912-3.851,5.576-1.724,13.223-4.04,13.223-14.686A.716.716,0,0,0,1266.085,661.005Zm-19.325-25.418a2.83,2.83,0,1,1-2.831,2.84A2.836,2.836,0,0,1,1246.76,635.587Zm6.205,39.432c-2.661.819-5.059,1.534-6.205,3.051-1.148-1.517-3.546-2.232-6.208-3.051-4.977-1.517-11.057-3.368-12.079-10.984a16.578,16.578,0,0,0,6.386,4.609,7.483,7.483,0,0,0,7.05-.821,7.874,7.874,0,0,0,3.428-6.5V650.064a.706.706,0,0,0-.7-.716h-6.376a1.421,1.421,0,0,1,0-2.842h6.376a.706.706,0,0,0,.7-.715v-3.366a4.6,4.6,0,0,0,1.422.252,4.542,4.542,0,0,0,1.42-.252v3.366a.708.708,0,0,0,.715.715h6.376a1.421,1.421,0,0,1,0,2.842h-6.376a.708.708,0,0,0-.715.716V661.32a7.857,7.857,0,0,0,3.439,6.5,7.458,7.458,0,0,0,7.039.821,16.769,16.769,0,0,0,6.386-4.609C1264.023,671.651,1257.942,673.5,1252.965,675.019Z" fill="url(#linear-gradient)"/>
  </g>
</svg>
