<svg xmlns="http://www.w3.org/2000/svg" xmlns:xlink="http://www.w3.org/1999/xlink" width="36.981" height="36.981" viewBox="0 0 36.981 36.981">
  <defs>
    <linearGradient id="linear-gradient" x1="0.5" x2="0.5" y2="1" gradientUnits="objectBoundingBox">
      <stop offset="0" stop-color="#d94141"/>
      <stop offset="1" stop-color="#f26a4b"/>
    </linearGradient>
  </defs>
  <g id="Group_277" data-name="Group 277" transform="translate(-760.786 -1240)">
    <g id="Group_252" data-name="Group 252" transform="translate(760.786 1240)">
      <path id="Path_325" data-name="Path 325" d="M797.2,1275.851h-1.679v-23.894a.561.561,0,0,0-.565-.566h-3.086v-1.9a.57.57,0,0,0-.557-.566H780.931v-5h.291a.561.561,0,0,0,.565-.566.57.57,0,0,0-.565-.565h-.291v-2.229a.559.559,0,0,0-.557-.565H763.589a.559.559,0,0,0-.557.565v2.229h-.3a.568.568,0,0,0-.557.565.559.559,0,0,0,.557.566h.3v31.926h-1.68a.565.565,0,1,0,0,1.131H797.2a.565.565,0,0,0,0-1.131Zm-6.452-25.791v1.332h-9.82v-1.332Zm-26.6-8.929h15.655v1.664H764.154Zm0,2.794h15.655v31.926H764.154Zm16.777,31.926V1252.5H794.4v23.346Z" transform="translate(-760.786 -1240)" fill="url(#linear-gradient)"/>
    </g>
    <g id="Group_253" data-name="Group 253" transform="translate(767.222 1245.687)">
      <path id="Path_326" data-name="Path 326" d="M776.044,1252.983a.566.566,0,0,0-.565.565v25.673a.565.565,0,0,0,.565.566.559.559,0,0,0,.557-.566v-25.673A.56.56,0,0,0,776.044,1252.983Z" transform="translate(-775.479 -1252.983)" fill="url(#linear-gradient)"/>
    </g>
    <g id="Group_254" data-name="Group 254" transform="translate(771.419 1245.687)">
      <path id="Path_327" data-name="Path 327" d="M785.619,1252.983a.56.56,0,0,0-.558.565v25.673a.562.562,0,1,0,1.124,0v-25.673A.562.562,0,0,0,785.619,1252.983Z" transform="translate(-785.06 -1252.983)" fill="url(#linear-gradient)"/>
    </g>
    <g id="Group_255" data-name="Group 255" transform="translate(775.619 1245.687)">
      <path id="Path_328" data-name="Path 328" d="M795.2,1252.983a.56.56,0,0,0-.557.565v25.673a.557.557,0,1,0,1.113,0v-25.673A.559.559,0,0,0,795.2,1252.983Z" transform="translate(-794.646 -1252.983)" fill="url(#linear-gradient)"/>
    </g>
    <g id="Group_256" data-name="Group 256" transform="translate(783.46 1254.501)">
      <path id="Path_329" data-name="Path 329" d="M812.7,1273.252a.6.6,0,0,0-.156.4.552.552,0,0,0,.165.4.5.5,0,0,0,.392.165.526.526,0,0,0,.4-.165.539.539,0,0,0,.159-.4.558.558,0,0,0-.159-.4A.608.608,0,0,0,812.7,1273.252Z" transform="translate(-812.546 -1273.103)" fill="url(#linear-gradient)"/>
    </g>
    <g id="Group_257" data-name="Group 257" transform="translate(783.46 1266.521)">
      <path id="Path_330" data-name="Path 330" d="M813.1,1300.544a.558.558,0,1,0,.557.55A.556.556,0,0,0,813.1,1300.544Z" transform="translate(-812.546 -1300.544)" fill="url(#linear-gradient)"/>
    </g>
    <g id="Group_258" data-name="Group 258" transform="translate(783.459 1263.513)">
      <ellipse id="Ellipse_46" data-name="Ellipse 46" cx="0.557" cy="0.565" rx="0.557" ry="0.565" transform="translate(0 0)" fill="url(#linear-gradient)"/>
    </g>
    <g id="Group_259" data-name="Group 259" transform="translate(783.46 1257.509)">
      <path id="Path_331" data-name="Path 331" d="M813.1,1279.97a.558.558,0,1,0,.557.55A.556.556,0,0,0,813.1,1279.97Z" transform="translate(-812.546 -1279.97)" fill="url(#linear-gradient)"/>
    </g>
    <g id="Group_260" data-name="Group 260" transform="translate(783.459 1260.502)">
      <ellipse id="Ellipse_47" data-name="Ellipse 47" cx="0.557" cy="0.565" rx="0.557" ry="0.565" transform="translate(0 0)" fill="url(#linear-gradient)"/>
    </g>
    <g id="Group_261" data-name="Group 261" transform="translate(783.46 1269.532)">
      <path id="Path_332" data-name="Path 332" d="M813.1,1307.416a.557.557,0,1,0,.557.566A.558.558,0,0,0,813.1,1307.416Z" transform="translate(-812.546 -1307.416)" fill="url(#linear-gradient)"/>
    </g>
    <g id="Group_262" data-name="Group 262" transform="translate(783.46 1272.541)">
      <path id="Path_333" data-name="Path 333" d="M812.7,1314.435a.613.613,0,0,0-.156.4.574.574,0,0,0,.156.4.6.6,0,0,0,.4.167.59.59,0,0,0,.4-.167.568.568,0,0,0,.159-.4.558.558,0,0,0-.957-.4Z" transform="translate(-812.546 -1314.286)" fill="url(#linear-gradient)"/>
    </g>
    <g id="Group_263" data-name="Group 263" transform="translate(787.108 1254.501)">
      <path id="Path_334" data-name="Path 334" d="M821.432,1274.216a.568.568,0,0,0,.392-.165.553.553,0,0,0,.167-.4.574.574,0,0,0-.167-.4.585.585,0,0,0-.781,0,.569.569,0,0,0-.167.4.548.548,0,0,0,.167.4A.564.564,0,0,0,821.432,1274.216Z" transform="translate(-820.875 -1273.103)" fill="url(#linear-gradient)"/>
    </g>
    <g id="Group_264" data-name="Group 264" transform="translate(787.1 1260.502)">
      <circle id="Ellipse_48" data-name="Ellipse 48" cx="0.565" cy="0.565" r="0.565" transform="translate(0 0)" fill="url(#linear-gradient)"/>
    </g>
    <g id="Group_265" data-name="Group 265" transform="translate(787.1 1257.509)">
      <path id="Path_335" data-name="Path 335" d="M821.421,1279.97a.558.558,0,1,0,.566.55A.564.564,0,0,0,821.421,1279.97Z" transform="translate(-820.856 -1279.97)" fill="url(#linear-gradient)"/>
    </g>
    <g id="Group_266" data-name="Group 266" transform="translate(787.1 1266.521)">
      <path id="Path_336" data-name="Path 336" d="M821.421,1300.544a.558.558,0,1,0,.566.55A.564.564,0,0,0,821.421,1300.544Z" transform="translate(-820.856 -1300.544)" fill="url(#linear-gradient)"/>
    </g>
    <g id="Group_267" data-name="Group 267" transform="translate(787.1 1263.513)">
      <circle id="Ellipse_49" data-name="Ellipse 49" cx="0.565" cy="0.565" r="0.565" transform="translate(0 0)" fill="url(#linear-gradient)"/>
    </g>
    <g id="Group_268" data-name="Group 268" transform="translate(787.1 1269.532)">
      <path id="Path_337" data-name="Path 337" d="M821.421,1307.416a.557.557,0,1,0,.566.566A.566.566,0,0,0,821.421,1307.416Z" transform="translate(-820.856 -1307.416)" fill="url(#linear-gradient)"/>
    </g>
    <g id="Group_269" data-name="Group 269" transform="translate(787.108 1272.541)">
      <path id="Path_338" data-name="Path 338" d="M821.042,1314.435a.576.576,0,0,0-.167.4.518.518,0,0,0,.167.4.541.541,0,0,0,.781,0,.547.547,0,0,0,.167-.4.615.615,0,0,0-.167-.4A.585.585,0,0,0,821.042,1314.435Z" transform="translate(-820.875 -1314.286)" fill="url(#linear-gradient)"/>
    </g>
    <g id="Group_270" data-name="Group 270" transform="translate(790.751 1254.505)">
      <path id="Path_339" data-name="Path 339" d="M829.357,1273.275a.5.5,0,0,0-.167.381.546.546,0,0,0,.167.4.563.563,0,0,0,.8,0,.582.582,0,0,0,.167-.4.534.534,0,0,0-.167-.381A.571.571,0,0,0,829.357,1273.275Z" transform="translate(-829.19 -1273.113)" fill="url(#linear-gradient)"/>
    </g>
    <g id="Group_271" data-name="Group 271" transform="translate(790.751 1266.521)">
      <path id="Path_340" data-name="Path 340" d="M829.755,1300.544a.558.558,0,1,0,.566.566A.567.567,0,0,0,829.755,1300.544Z" transform="translate(-829.19 -1300.544)" fill="url(#linear-gradient)"/>
    </g>
    <g id="Group_272" data-name="Group 272" transform="translate(790.75 1260.502)">
      <circle id="Ellipse_50" data-name="Ellipse 50" cx="0.565" cy="0.565" r="0.565" transform="translate(0 0)" fill="url(#linear-gradient)"/>
    </g>
    <g id="Group_273" data-name="Group 273" transform="translate(790.75 1263.513)">
      <circle id="Ellipse_51" data-name="Ellipse 51" cx="0.565" cy="0.565" r="0.565" transform="translate(0 0)" fill="url(#linear-gradient)"/>
    </g>
    <g id="Group_274" data-name="Group 274" transform="translate(790.751 1257.509)">
      <path id="Path_341" data-name="Path 341" d="M829.755,1279.97a.558.558,0,1,0,0,1.115.558.558,0,1,0,0-1.115Z" transform="translate(-829.19 -1279.97)" fill="url(#linear-gradient)"/>
    </g>
    <g id="Group_275" data-name="Group 275" transform="translate(790.751 1269.532)">
      <path id="Path_342" data-name="Path 342" d="M829.755,1307.416a.557.557,0,1,0,.566.566A.565.565,0,0,0,829.755,1307.416Z" transform="translate(-829.19 -1307.416)" fill="url(#linear-gradient)"/>
    </g>
    <g id="Group_276" data-name="Group 276" transform="translate(790.751 1272.541)">
      <path id="Path_343" data-name="Path 343" d="M829.357,1314.435a.606.606,0,0,0-.167.4.54.54,0,0,0,.167.4.574.574,0,0,0,.4.167.592.592,0,0,0,.4-.167.576.576,0,0,0,.167-.4.618.618,0,0,0-.176-.4A.594.594,0,0,0,829.357,1314.435Z" transform="translate(-829.19 -1314.286)" fill="url(#linear-gradient)"/>
    </g>
  </g>
</svg>
