<svg height="69" viewBox="0 0 49 69" width="49" xmlns="http://www.w3.org/2000/svg" xmlns:xlink="http://www.w3.org/1999/xlink"><linearGradient id="a" gradientUnits="objectBoundingBox" x1=".5" x2=".5" y2="1"><stop offset="0" stop-color="#d94141"/><stop offset="1" stop-color="#f26a4b"/></linearGradient><path d="m29.994 69a13.118 13.118 0 0 1 -12.994-13.208v-2.792h-11.166a5.8 5.8 0 0 1 -5.834-5.761v-41.478a5.8 5.8 0 0 1 5.834-5.761h23.333a5.8 5.8 0 0 1 5.833 5.761v10.268l.035-.029 11.212 14.242a12.968 12.968 0 0 1 2.753 7.986v29.61a1.152 1.152 0 0 1 -1.142 1.162zm-10.708-13.208a10.81 10.81 0 0 0 10.708 10.884h16.72v-28.448a10.6 10.6 0 0 0 -2.254-6.535l-9.46-12.018v20.392l3 3.333-1.631 1.6-15.044-16.7a2.872 2.872 0 0 0 -2.056-.961 2.93 2.93 0 0 0 -2.105.839 3.187 3.187 0 0 0 -.223 4.216l9.9 12.215a1.21 1.21 0 0 1 .266.757v4.045a13.289 13.289 0 0 0 8.229 12.4l-.782 2.189a15.457 15.457 0 0 1 -9.278-11h-5.99zm5.636-5.1q-.051-.637-.051-1.283v-3.615l-2.954-3.643.083 8.549zm-22.588-44.931v41.478a3.483 3.483 0 0 0 3.5 3.456h13.166v-12.141l-3.771-4.654a5.573 5.573 0 0 1 .3-7.321c.011-.013.1-.1.113-.114a4.975 4.975 0 0 1 3.358-1.465v-22.7h-13.166a3.483 3.483 0 0 0 -3.5 3.461zm30.333 31.717v-31.717a3.483 3.483 0 0 0 -3.5-3.457h-.167v31.1zm-9.714-10.778 3.047 3.379v-27.779h-4v23.567a5.283 5.283 0 0 1 .953.833zm-15.828 20.3a1.125 1.125 0 0 1 -1.125-1.125v-6.75a1.125 1.125 0 0 1 1.125-1.125h6.75a1.125 1.125 0 0 1 1.125 1.125v6.75a1.125 1.125 0 0 1 -1.125 1.125zm-1.125-26v-15h3v15zm6-6v-9h3v9z" fill="url(#a)"/></svg>