<svg xmlns="http://www.w3.org/2000/svg" xmlns:xlink="http://www.w3.org/1999/xlink" width="40.922" height="33.591" viewBox="0 0 40.922 33.591">
  <defs>
    <linearGradient id="linear-gradient" x1="0.5" x2="0.5" y2="1" gradientUnits="objectBoundingBox">
      <stop offset="0" stop-color="#d94141"/>
      <stop offset="1" stop-color="#f26a4b"/>
    </linearGradient>
  </defs>
  <g id="Group_141" data-name="Group 141" transform="translate(-749.316 -1062.549)">
    <path id="Path_164" data-name="Path 164" d="M782.207,1079.045c-.125,0-.249,0-.372.009l-.027,0c-.122.006-.242.015-.363.026a12,12,0,0,0-1.691-3.96.645.645,0,1,0-1.077.709,10.708,10.708,0,0,1,1.494,3.474,7.969,7.969,0,0,0-2.81,1.366.645.645,0,1,0,.779,1.028,6.676,6.676,0,0,1,2.9-1.262h0c.067-.011.133-.021.2-.031.116-.016.232-.032.35-.042l.134-.01c.159-.011.319-.019.48-.019a6.732,6.732,0,1,1,0,13.465H757.8a6.732,6.732,0,1,1,0-13.465c.143,0,.286.007.428.016l.056,0h.023a6.7,6.7,0,0,1,3.262,1.132.645.645,0,0,0,.722-1.069,7.976,7.976,0,0,0-3.18-1.262,10.835,10.835,0,0,1,16.649-6.3.645.645,0,0,0,.731-1.062,12.127,12.127,0,0,0-18.682,7.252H757.8a8.02,8.02,0,0,0-2.674,15.585l-3.547,2.929a1.581,1.581,0,1,0,.821.994l4.289-3.542a8.084,8.084,0,0,0,1.11.078h24.4a8.022,8.022,0,1,0,0-16.044Z" transform="translate(0 -4.401)" fill="url(#linear-gradient)"/>
    <path id="Path_165" data-name="Path 165" d="M793.7,1070.366a1.558,1.558,0,0,0-.788-.214,1.571,1.571,0,0,0-1.3,2.456l-4.3,6.985a1.572,1.572,0,0,0-2.033,1.5c0,.026,0,.051,0,.077l-6.378,1.845a.645.645,0,0,0,.179,1.264.654.654,0,0,0,.18-.026l6.629-1.918a1.57,1.57,0,0,0,2.4-1.875l4.417-7.181a1.527,1.527,0,0,0,.2.015,1.571,1.571,0,0,0,1.541-1.885l8.269-5.932a1.571,1.571,0,1,0-.784-1.359,1.593,1.593,0,0,0,.031.312Z" transform="translate(-18.023)" fill="url(#linear-gradient)"/>
  </g>
</svg>
