<svg xmlns="http://www.w3.org/2000/svg" xmlns:xlink="http://www.w3.org/1999/xlink" width="43.534" height="37" viewBox="0 0 43.534 37">
  <defs>
    <linearGradient id="linear-gradient" x1="0.5" x2="0.5" y2="1" gradientUnits="objectBoundingBox">
      <stop offset="0" stop-color="#d94141"/>
      <stop offset="1" stop-color="#f26a4b"/>
    </linearGradient>
  </defs>
  <g id="Group_111" data-name="Group 111" transform="translate(-546.435 -661)">
    <path id="Path_130" data-name="Path 130" d="M588.26,709.844h-4.894a10.086,10.086,0,0,0,4.477-3.783,1.378,1.378,0,0,0,.079-1.268c-.048-.108-.108-.239-.174-.381a13.265,13.265,0,0,0,1.9-4.087,15.08,15.08,0,0,0,.226-4.816,1.769,1.769,0,0,0-1.182-1.481c-.735-3.531-1.726-4.094-2.061-4.281a1.61,1.61,0,0,0-1.4-.1c-1.8.684-1.8,2.29-1.808,3.705,0,.339-.011.684-.033,1.03a2.059,2.059,0,0,0-1.486,1.354,4.99,4.99,0,0,1-.6,1.194,8.93,8.93,0,0,0-.924-.425,1.328,1.328,0,0,0-.93,0l-3.725,1.424a1.352,1.352,0,0,0-.69.6,9.928,9.928,0,0,0-.465.97,4.972,4.972,0,0,1-.57-.214v-8.309a1.451,1.451,0,0,0-1.451-1.451H555.141a1.451,1.451,0,0,0-1.451,1.451v.988a8.162,8.162,0,0,0-2.053-.262c-5.2,0-5.2,5.717-5.2,7.6,0,4.2,2.042,6.914,5.2,6.914a9.166,9.166,0,0,0,2.475-.354,7.925,7.925,0,0,0,2.961,3.982h-6.031a1.575,1.575,0,0,0-1.7,1.451v1.451c0,1.627,1.609,2.9,3.664,2.9h33.3c2.055,0,3.664-1.274,3.664-2.9v-1.451a1.576,1.576,0,0,0-1.705-1.451ZM585.748,691a.164.164,0,0,1,.171.009c.124.069.72.526,1.268,2.929-.61.025-1.4.079-2.321.2.009-.271.011-.535.012-.781,0-1.5.077-2.053.871-2.355Zm-2.458,5.178a.619.619,0,0,1,.486-.41c.135-.027.267-.047.415-.072a24.045,24.045,0,0,1,3.833-.336h.048a.339.339,0,0,1,.359.29,13.617,13.617,0,0,1-.193,4.329,10.928,10.928,0,0,1-1.26,2.936,16.61,16.61,0,0,0-4.433-5.223,6.453,6.453,0,0,0,.745-1.514Zm-7,3.091,3.637-1.389c3.884,1.527,6.24,6.509,6.675,7.444-.4.693-1.692,2.444-5.013,3.711a12.1,12.1,0,0,1-3.559.809h-.957a5.758,5.758,0,0,1-1.49-.268c-.042-.178-.1-.422-.153-.715-.346-1.8-.948-6.313.857-9.591Zm-4.419,9.455a13.785,13.785,0,0,0,2.223.85c.022.1.042.188.06.269h-3.56a8.047,8.047,0,0,0,1.276-1.12Zm1.939-.767a9.674,9.674,0,0,1-2.722-1.411,12.485,12.485,0,0,1-2.723-3.2.435.435,0,0,1,.131-.529c.009-.009.019-.018.026-.026a25.839,25.839,0,0,1,3.186-2.344c.115-.072.231-.15.371-.231a.53.53,0,0,1,.559-.013,5.789,5.789,0,0,0,1.462.664,18.007,18.007,0,0,0-.29,7.09Zm-6.28-9.919a.243.243,0,0,1,.158-.162c.769-.291,1.121.056,2.017,1.2.154.2.318.407.5.618-.791.531-1.441,1.022-1.933,1.418-.754-1.682-.89-2.687-.737-3.079Zm-13.84,3.37a5.2,5.2,0,0,1-2.053.455c-.551,0-.849-1.32-.849-2.561,0-3.243.491-3.243.849-3.243a3.1,3.1,0,0,1,2.053.671Zm-5.8-2.1c0-2.863.427-6.147,3.751-6.147a6.539,6.539,0,0,1,2.053.32v1.559a4.844,4.844,0,0,0-2.053-.428c-2.124,0-2.3,2.22-2.3,4.694,0,2.513.859,4.012,2.3,4.012a6.352,6.352,0,0,0,2.053-.363v.363a7.88,7.88,0,0,0,.091,1.133,7.79,7.79,0,0,1-2.144.318c-2.348,0-3.751-2.042-3.751-5.463Zm7.424,5.478a6.351,6.351,0,0,1-.169-1.469V690.981h17.412V698.7a1.974,1.974,0,0,0-1.1.218c-.21-.24-.412-.486-.6-.733-.822-1.053-1.843-2.367-3.677-1.668a1.687,1.687,0,0,0-.995.99c-.378.975-.048,2.509.986,4.666a1.827,1.827,0,0,0-.033,1.934,13.956,13.956,0,0,0,3.068,3.583c.127.1.258.187.389.277a6.476,6.476,0,0,1-4.565,1.873H561.67a6.493,6.493,0,0,1-6.36-5.063Zm33.2,7.963c0,.786-1.016,1.451-2.212,1.451H553c-1.2,0-2.214-.664-2.214-1.451v-1.385a.46.46,0,0,1,.254-.066H588.26a.457.457,0,0,1,.254.066Zm0,0" transform="translate(0 -17.647)" fill="url(#linear-gradient)"/>
    <path id="Path_131" data-name="Path 131" d="M588.279,668.98a.725.725,0,1,0,1.451,0,1.873,1.873,0,0,1,.566-1.36,3.348,3.348,0,0,0,0-4.534,1.874,1.874,0,0,1-.566-1.361.725.725,0,0,0-1.451,0,3.281,3.281,0,0,0,.884,2.267,1.915,1.915,0,0,1,0,2.72,3.283,3.283,0,0,0-.884,2.267Zm0,0" transform="translate(-25.883)" fill="url(#linear-gradient)"/>
    <path id="Path_132" data-name="Path 132" d="M576.866,668.98a.726.726,0,1,0,1.451,0,1.875,1.875,0,0,1,.567-1.36,3.348,3.348,0,0,0,0-4.534,1.876,1.876,0,0,1-.567-1.361.726.726,0,0,0-1.451,0,3.285,3.285,0,0,0,.885,2.267,1.917,1.917,0,0,1,0,2.72,3.286,3.286,0,0,0-.885,2.267Zm0,0" transform="translate(-18.823)" fill="url(#linear-gradient)"/>
    <path id="Path_133" data-name="Path 133" d="M599.69,668.98a.726.726,0,1,0,1.451,0,1.873,1.873,0,0,1,.567-1.36,3.348,3.348,0,0,0,0-4.534,1.874,1.874,0,0,1-.567-1.361.726.726,0,0,0-1.451,0,3.288,3.288,0,0,0,.884,2.267,1.915,1.915,0,0,1,0,2.72,3.289,3.289,0,0,0-.884,2.267Zm0,0" transform="translate(-32.941)" fill="url(#linear-gradient)"/>
  </g>
</svg>
