<svg height="79" viewBox="0 0 86 79" width="86" xmlns="http://www.w3.org/2000/svg" xmlns:xlink="http://www.w3.org/1999/xlink"><linearGradient id="a" gradientUnits="objectBoundingBox" x1=".5" x2=".5" y2="1"><stop offset="0" stop-color="#d94141"/><stop offset="1" stop-color="#f26a4b"/></linearGradient><path d="m1.425 79a1.419 1.419 0 0 1 -1.425-1.411v-43.689a1.4 1.4 0 0 1 .638-1.175l10.979-7.21v-24.104a1.419 1.419 0 0 1 1.425-1.411h59.915a1.419 1.419 0 0 1 1.425 1.411v24.1l10.982 7.211a1.405 1.405 0 0 1 .636 1.178v43.689a1.419 1.419 0 0 1 -1.424 1.411zm4.725-2.821h73.7l-36.85-24.195zm44.25-22.723 32.751 21.505v-38.715zm-47.551 21.504 32.751-21.505-32.751-17.209zm40.937-25.844 3.908 2.565 23.839-12.525v-36.334h-57.067v36.333l23.84 12.525 3.907-2.565a1.434 1.434 0 0 1 1.573 0zm30.6-11.456 4.469-2.349h-4.474zm-67.235-2.348 4.467 2.346v-2.347h-4.467zm67.231-2.822h5.468l-5.469-3.59zm-68.231 0h5.467v-3.59zm37.349 3.51a12.413 12.413 0 0 1 -12.5-12.3v-.4a12.5 12.5 0 0 1 25 0v1.012a4.9 4.9 0 0 1 -9.048 2.53 6.072 6.072 0 0 1 -3.966 1.472 5.925 5.925 0 1 1 6.021-5.924v1.921a2.1 2.1 0 0 0 4.2 0v-1.011a9.713 9.713 0 0 0 -19.424 0v.4a9.645 9.645 0 0 0 9.717 9.557h11.107a1.372 1.372 0 1 1 0 2.743zm-3.747-13.612a3.234 3.234 0 1 0 3.234-3.181 3.211 3.211 0 0 0 -3.234 3.181z" fill="url(#a)"/></svg>