<svg xmlns="http://www.w3.org/2000/svg" xmlns:xlink="http://www.w3.org/1999/xlink" width="43.492" height="27.399" viewBox="0 0 43.492 27.399">
  <defs>
    <linearGradient id="linear-gradient" x1="0.5" x2="0.5" y2="1" gradientUnits="objectBoundingBox">
      <stop offset="0" stop-color="#d94141"/>
      <stop offset="1" stop-color="#f26a4b"/>
    </linearGradient>
  </defs>
  <g id="Group_203" data-name="Group 203" transform="translate(-173.497 -1253.593)">
    <g id="Group_202" data-name="Group 202" transform="translate(173.497 1253.593)">
      <path id="Path_258" data-name="Path 258" d="M203.2,1280.992a12.151,12.151,0,0,0,5.473-1.192c6.045-3,8.205-10.7,8.279-11.022a.81.81,0,0,0-.384-.943,20.81,20.81,0,0,0-6.729-2.285,21.946,21.946,0,0,0-.547-6.9.8.8,0,0,0-.819-.623,19.006,19.006,0,0,0-7.732,2.011,20.167,20.167,0,0,0-4.977-6.278.892.892,0,0,0-1.042,0,20.574,20.574,0,0,0-4.977,6.278,19.006,19.006,0,0,0-7.732-2.011.839.839,0,0,0-.819.623,22.2,22.2,0,0,0-.559,6.9,20.834,20.834,0,0,0-6.716,2.285.836.836,0,0,0-.4.943c.1.323,2.247,8.017,8.292,11.022a12.079,12.079,0,0,0,5.473,1.192,20.829,20.829,0,0,0,7.956-1.764A20.831,20.831,0,0,0,203.2,1280.992Zm6.416-13.754a19.7,19.7,0,0,1,5.524,1.739c-.633,1.838-2.791,7.15-7.211,9.334-3.251,1.614-7.087.994-9.593.249,2.793-.745,6.863-2.433,9.257-6.083A13.494,13.494,0,0,0,209.618,1267.238Zm-1.787-7.5c.386,1.912,1.179,7.572-1.624,11.84-2.161,3.279-6.032,4.766-8.566,5.412,1.9-2.257,4.593-6.255,4.593-10.923a13,13,0,0,0-.819-4.466A17.9,17.9,0,0,1,207.83,1259.742Zm-12.585-4.194c1.429,1.314,5.313,5.361,5.313,10.523,0,5.114-3.849,9.557-5.313,11.073-1.464-1.515-5.312-5.958-5.312-11.073C189.933,1260.934,193.82,1256.862,195.246,1255.548Zm-12.585,4.194a18.016,18.016,0,0,1,6.428,1.863,13.014,13.014,0,0,0-.831,4.466c0,4.667,2.707,8.688,4.606,10.948-2.531-.671-6.406-2.158-8.576-5.437C181.481,1267.339,182.287,1261.653,182.661,1259.742Zm-.1,18.569c-4.418-2.184-6.578-7.5-7.211-9.334a20.41,20.41,0,0,1,5.511-1.762,13.954,13.954,0,0,0,2.023,5.262c2.407,3.65,6.492,5.338,9.283,6.083C189.649,1279.3,185.813,1279.924,182.562,1278.31Z" transform="translate(-173.497 -1253.593)" fill="url(#linear-gradient)"/>
    </g>
  </g>
</svg>
