<svg xmlns="http://www.w3.org/2000/svg" xmlns:xlink="http://www.w3.org/1999/xlink" width="41.219" height="43.994" viewBox="0 0 41.219 43.994">
  <defs>
    <linearGradient id="linear-gradient" x1="0.5" x2="0.5" y2="1" gradientUnits="objectBoundingBox">
      <stop offset="0" stop-color="#d94141"/>
      <stop offset="1" stop-color="#f26a4b"/>
    </linearGradient>
  </defs>
  <g id="Group_140" data-name="Group 140" transform="translate(-183.179 -1058.011)">
    <g id="Group_137" data-name="Group 137" transform="translate(192.275 1085.382)">
      <path id="Path_161" data-name="Path 161" d="M202.338,1115.961l.2-.1.407-.2Z" transform="translate(-202.338 -1115.663)" fill="url(#linear-gradient)"/>
    </g>
    <g id="Group_138" data-name="Group 138" transform="translate(191.682 1081.453)">
      <path id="Path_162" data-name="Path 162" d="M226.626,1107.438a.685.685,0,0,0-.88.357c-.476,1.109-1.05,2.256-1.593,3.385a45.2,45.2,0,0,0-2.474,5.64h-5.9v-3.838a2.072,2.072,0,0,1,2.067-2.059.677.677,0,0,0,.663-.673.664.664,0,0,0-.663-.673,3.417,3.417,0,0,0-3.4,3.4v3.838h-1.929v-3.838a3.424,3.424,0,0,0-3.4-3.4.664.664,0,0,0-.663.673.677.677,0,0,0,.663.673,2.072,2.072,0,0,1,2.067,2.059v3.838H204.7a46.356,46.356,0,0,0-2.414-5.5l-.407.2-.79.4a48.586,48.586,0,0,1,2.186,4.908h-.415a.665.665,0,0,0-.662.673.677.677,0,0,0,.662.673h.742v1.98h-.742a.663.663,0,0,0,0,1.325h.742v1.325a1.989,1.989,0,0,0,2,1.98h2.327c.4,1.82,2.78,3.165,5.749,3.165,2.869,0,5.155-1.364,5.4-3.165h1.8a1.99,1.99,0,0,0,2-1.98v-1.325h.653a.663.663,0,0,0,0-1.325h-.653v-1.98h.653a.677.677,0,0,0,.662-.673.665.665,0,0,0-.662-.673h-.436a48.882,48.882,0,0,1,2.248-5.046c.563-1.129,1.137-2.3,1.631-3.463A.663.663,0,0,0,226.626,1107.438Zm-12.951,19.157c-2.039,0-3.858-.791-4.345-1.82h8.381C217.405,1125.705,215.831,1126.595,213.674,1126.595Zm7.877-3.8a.672.672,0,0,1-.675.655H205.6a.665.665,0,0,1-.673-.655v-1.325h16.626Zm-16.626-2.65v-1.98h16.626v1.98Z" transform="translate(-201.088 -1107.388)" fill="url(#linear-gradient)"/>
    </g>
    <g id="Group_139" data-name="Group 139" transform="translate(183.179 1058.011)">
      <path id="Path_163" data-name="Path 163" d="M220.287,1068.6c.01-.079.03-.158.041-.237a5.817,5.817,0,0,0-1.04-4.355,5.732,5.732,0,0,0-3.81-2.334,5.858,5.858,0,0,0-4.462,1.109,6.473,6.473,0,0,0-12.319-.535,5.854,5.854,0,0,0-10.043,3.068,5.989,5.989,0,0,0-.061,1.445,8.7,8.7,0,0,0,1.9,16.644,8.444,8.444,0,0,0,1.4.117,8.538,8.538,0,0,0,6.116-2.571,5.826,5.826,0,0,0,8.677-.989,5.79,5.79,0,0,0,1.7.553,5.873,5.873,0,0,0,5.759-2.474,5.848,5.848,0,1,0,6.134-9.439Zm2.722,6.294a4.533,4.533,0,0,1-5.176,3.759,4.573,4.573,0,0,1-3.018-1.939,7.169,7.169,0,0,0,.278-1.05,5.779,5.779,0,0,0,.049-1.484.658.658,0,0,0-.722-.594.669.669,0,0,0-.6.732,4.395,4.395,0,0,1-.04,1.129,4.725,4.725,0,0,1-.316,1.088h0a4.507,4.507,0,0,1-4.86,2.652,4.841,4.841,0,0,1-1.275-.4,5.7,5.7,0,0,0,.355-1.267,6,6,0,0,0-.01-1.978.668.668,0,0,0-1.315.237,4.641,4.641,0,0,1-.474,2.969h0c0,.02-.01.02-.01.02a4.551,4.551,0,0,1-4.671,2.276,4.442,4.442,0,0,1-2.314-1.129,8.788,8.788,0,0,0,1.473-3.246.667.667,0,1,0-1.305-.275,7.448,7.448,0,0,1-1.554,3.165h-.01c-.01,0-.03.021-.038.041a7.351,7.351,0,1,1-8.56-11.5,5.788,5.788,0,0,0,2.324,3.028.629.629,0,0,0,.367.12.7.7,0,0,0,.553-.3.667.667,0,0,0-.187-.93,4.512,4.512,0,0,1-1.959-2.949h-.01v-.038a4.507,4.507,0,0,1,5.166-5.245,4.469,4.469,0,0,1,3.186,2.2,6.538,6.538,0,0,0,.614,3.323.692.692,0,0,0,.6.357.811.811,0,0,0,.3-.059.672.672,0,0,0,.308-.892,5.109,5.109,0,0,1-.487-2.829h0l.031-.237a5.136,5.136,0,0,1,10.181.3,5.784,5.784,0,0,0-1.1,2.574.692.692,0,0,0,.545.772h.109a.681.681,0,0,0,.663-.556,4.46,4.46,0,0,1,.979-2.176h0a.222.222,0,0,1,.051-.059,4.5,4.5,0,0,1,7.084.3,4.481,4.481,0,0,1,.8,3.364c-.01.079-.028.12-.038.2a5.964,5.964,0,0,0-2.633.4.668.668,0,0,0,.257,1.286,1.04,1.04,0,0,0,.247-.04,4.4,4.4,0,0,1,2.424-.276l.089.019A4.52,4.52,0,0,1,223.009,1074.895Z" transform="translate(-183.179 -1058.011)" fill="url(#linear-gradient)"/>
    </g>
  </g>
</svg>
