<svg xmlns="http://www.w3.org/2000/svg" xmlns:xlink="http://www.w3.org/1999/xlink" width="18.459" height="47.65" viewBox="0 0 18.459 47.65">
  <defs>
    <linearGradient id="linear-gradient" x1="0.5" x2="0.5" y2="1" gradientUnits="objectBoundingBox">
      <stop offset="0" stop-color="#d94141"/>
      <stop offset="1" stop-color="#f26a4b"/>
    </linearGradient>
  </defs>
  <g id="Group_284" data-name="Group 284" transform="translate(-490.694 -1460)">
    <path id="Path_350" data-name="Path 350" d="M504.752,1468.867a4.433,4.433,0,1,0-4.434-4.433A4.438,4.438,0,0,0,504.752,1468.867Zm0-7.391a2.958,2.958,0,1,1-2.958,2.958A2.961,2.961,0,0,1,504.752,1461.476Z" transform="translate(-5.187)" fill="url(#linear-gradient)"/>
    <path id="Path_351" data-name="Path 351" d="M509.733,1482.354a.738.738,0,1,0-1.476,0v1.181a.738.738,0,0,0,1.476,0Z" transform="translate(-9.465 -11.649)" fill="url(#linear-gradient)"/>
    <path id="Path_352" data-name="Path 352" d="M508.995,1488.872a.738.738,0,0,0-.738.738v7.281a.738.738,0,1,0,1.476,0v-7.281A.738.738,0,0,0,508.995,1488.872Z" transform="translate(-9.465 -15.56)" fill="url(#linear-gradient)"/>
    <path id="Path_353" data-name="Path 353" d="M507.179,1500.759h-1.817l.7-5.811.933-1.427a2.7,2.7,0,0,0,.44-1.591l-.3-7.685a.729.729,0,0,0-.008-.084,5.138,5.138,0,0,0-3.789-4.189l-1.291-.335a.738.738,0,1,0-.371,1.428l1.291.335a3.664,3.664,0,0,1,2.695,2.947l.3,7.641a1.225,1.225,0,0,1-.2.724l-3.537,5.407a.736.736,0,0,0-.039.067.886.886,0,0,1-1.631-.678l3.334-5.8a.735.735,0,0,0,.1-.367l.009-5.973a.737.737,0,0,0-.737-.739h0a.738.738,0,0,0-.738.737l-.008,5.776-2.841,4.944-2.841-4.944-.008-5.776a.738.738,0,0,0-.738-.737h0a.738.738,0,0,0-.737.739l.009,5.973a.736.736,0,0,0,.1.367l3.334,5.8a.886.886,0,0,1-1.631.677.654.654,0,0,0-.039-.067l-3.537-5.407a1.226,1.226,0,0,1-.2-.724l.3-7.641a3.664,3.664,0,0,1,2.695-2.947l1.291-.335a.738.738,0,0,0-.371-1.428l-1.291.335a5.138,5.138,0,0,0-3.789,4.189.743.743,0,0,0-.008.084l-.3,7.685a2.693,2.693,0,0,0,.44,1.591l.944,1.443.7,5.794h-1.325a1.976,1.976,0,0,0-1.974,1.974v7.189a1.976,1.976,0,0,0,1.974,1.974h2.716l.512,5.592a.738.738,0,0,0,.734.671.672.672,0,0,0,.068,0,.738.738,0,0,0,.668-.8l-.5-5.457h2.319v5.587a.738.738,0,1,0,1.475,0V1511.9h2.124l-.427,5.473a.738.738,0,0,0,.678.793l.058,0a.738.738,0,0,0,.735-.681l.437-5.587h2.914a1.976,1.976,0,0,0,1.974-1.974v-7.189A1.976,1.976,0,0,0,507.179,1500.759Zm-3.7-1.86.76-1.161-.366,3.021h-1.271l-.152-.866A2.346,2.346,0,0,0,503.482,1498.9Zm-4.558,1.034a.789.789,0,0,1,1.5,0,2.374,2.374,0,0,0,.569.174l.115.651h-2.7l.227-.718A2.449,2.449,0,0,0,498.924,1499.934Zm-3.809-2.179.749,1.145a2.349,2.349,0,0,0,1.238,1.087l-.244.773h-1.378Zm12.562,12.168a.5.5,0,0,1-.5.5H492.668a.5.5,0,0,1-.5-.5v-7.189a.5.5,0,0,1,.5-.5h14.511a.5.5,0,0,1,.5.5Z" transform="translate(0 -10.571)" fill="url(#linear-gradient)"/>
  </g>
</svg>
