<svg xmlns="http://www.w3.org/2000/svg" xmlns:xlink="http://www.w3.org/1999/xlink" width="83.001" height="79" viewBox="0 0 83.001 79">
  <defs>
    <linearGradient id="linear-gradient" x1="0.5" x2="0.5" y2="1" gradientUnits="objectBoundingBox">
      <stop offset="0" stop-color="#d94141"/>
      <stop offset="1" stop-color="#f26a4b"/>
    </linearGradient>
  </defs>
  <path id="Union_6" data-name="Union 6" d="M32.614,79A1.622,1.622,0,0,1,31,77.375V60.627A1.621,1.621,0,0,1,32.614,59H81.387A1.621,1.621,0,0,1,83,60.627V77.375A1.622,1.622,0,0,1,81.387,79Zm1.614-3.252H79.773v-13.5H34.228ZM1.613,79A1.621,1.621,0,0,1,0,77.375V60.627A1.62,1.62,0,0,1,1.613,59H26.389A1.621,1.621,0,0,1,28,60.627V77.375A1.621,1.621,0,0,1,26.389,79Zm1.613-3.252H24.777v-13.5H3.226ZM45.6,70a1.5,1.5,0,1,1,0-3H72.4a1.5,1.5,0,1,1,0,3ZM56.613,57A1.613,1.613,0,0,1,55,55.388V23.611A1.613,1.613,0,0,1,56.613,22H81.389A1.614,1.614,0,0,1,83,23.611V55.388A1.614,1.614,0,0,1,81.389,57Zm1.613-3.223H79.777V25.222H58.225ZM1.638,57A1.627,1.627,0,0,1,0,55.388V23.611A1.627,1.627,0,0,1,1.638,22H51.363A1.626,1.626,0,0,1,53,23.611V55.388A1.626,1.626,0,0,1,51.363,57ZM26.9,49.771l-3.054,4.006h23.6L40.79,45.041H30.507l-1.149,1.507h5.485a1.611,1.611,0,1,1,0,3.222H26.9ZM5.854,53.777h13.9L22,50.837l-6.78-7.726ZM3.276,51.783l10.7-12.191a1.654,1.654,0,0,1,2.479,0l7.552,8.6L34.339,34.642a1.654,1.654,0,0,1,2.62,0l12.766,16.75V25.222H3.276Zm29.687-9.966h5.37L35.649,38.3ZM61.59,50a1.5,1.5,0,1,1,0-3h7.822a1.5,1.5,0,1,1,0,3Zm.091-6a1.51,1.51,0,1,1,0-3H76.32a1.51,1.51,0,1,1,0,3ZM16,33a6,6,0,1,1,6,6A6.007,6.007,0,0,1,16,33Zm2.645,0A3.355,3.355,0,1,0,22,29.645,3.359,3.359,0,0,0,18.645,33Zm43.035,4a1.51,1.51,0,1,1,0-3H76.32a1.51,1.51,0,1,1,0,3Zm0-6a1.51,1.51,0,1,1,0-3H76.32a1.51,1.51,0,1,1,0,3ZM1.621,20A1.626,1.626,0,0,1,0,18.372V1.628A1.626,1.626,0,0,1,1.621,0H81.38A1.626,1.626,0,0,1,83,1.628V18.372A1.626,1.626,0,0,1,81.38,20Zm1.623-3.255H79.759V3.255H3.244Zm70.9-1.236-1.37-1.37a5.358,5.358,0,0,1-6.2-8.572,5.358,5.358,0,0,1,8.572,6.2l1.369,1.369A1.677,1.677,0,0,1,75.325,16,1.662,1.662,0,0,1,74.139,15.509Zm-5.8-8.174A2.858,2.858,0,1,0,70.358,6.5,2.837,2.837,0,0,0,68.339,7.335ZM16.625,14A1.566,1.566,0,0,1,15,12.5,1.566,1.566,0,0,1,16.625,11H50.377A1.566,1.566,0,0,1,52,12.5,1.566,1.566,0,0,1,50.377,14Z" fill="url(#linear-gradient)"/>
</svg>
