<svg xmlns="http://www.w3.org/2000/svg" xmlns:xlink="http://www.w3.org/1999/xlink" width="20.175" height="43.886" viewBox="0 0 20.175 43.886">
  <defs>
    <linearGradient id="linear-gradient" x1="0.5" x2="0.5" y2="1" gradientUnits="objectBoundingBox">
      <stop offset="0" stop-color="#d94141"/>
      <stop offset="1" stop-color="#f26a4b"/>
    </linearGradient>
  </defs>
  <g id="Group_132" data-name="Group 132" transform="translate(-547.943 -389.629)">
    <path id="Path_156" data-name="Path 156" d="M552.953,417.226a.147.147,0,0,1,.219-.072,8.368,8.368,0,0,0,4.535,1.353c2.162,0,3.673-1.231,3.673-2.994,0-1.578-1.052-2.678-3.524-3.68a11.661,11.661,0,0,1-3.882-2.233,4.471,4.471,0,0,1-1.414-3.439c0-2.63,1.607-4.513,4.408-5.166a.679.679,0,0,0,.524-.661v-6.322a2.244,2.244,0,1,0-1.357.007v5.793a6.4,6.4,0,0,0-4.932,6.35,5.82,5.82,0,0,0,1.831,4.418,12.882,12.882,0,0,0,4.319,2.515c2.67,1.082,2.67,1.952,2.67,2.42,0,.994-.909,1.637-2.316,1.637a6.98,6.98,0,0,1-3.782-1.125,1.514,1.514,0,0,0-1.306-.176,1.493,1.493,0,0,0-.943.919l-.769,2.146a1.437,1.437,0,0,0,.432,1.729A10.8,10.8,0,0,0,555.5,422.2v3.245h-3.147a2.246,2.246,0,1,0-.058,1.357h3.883a.678.678,0,0,0,.678-.678v-4.513a.679.679,0,0,0-.6-.675,9.832,9.832,0,0,1-4.1-1.379.476.476,0,0,1,.034-.183Zm3.85-26.24a.889.889,0,1,1-.889.889A.89.89,0,0,1,556.8,390.986Zm-6.614,35.934a.889.889,0,1,1,.889-.889A.89.89,0,0,1,550.189,426.92Z" fill="url(#linear-gradient)"/>
    <path id="Path_157" data-name="Path 157" d="M580.349,401.019a2.248,2.248,0,0,0-2.118,1.507h-3.323a.678.678,0,0,0-.678.678v4.384a.679.679,0,0,0,.6.674,9.121,9.121,0,0,1,3.4,1.091.324.324,0,0,1-.024.178l-.8,2.114a.145.145,0,0,1-.086.084.144.144,0,0,1-.121-.011,7.573,7.573,0,0,0-3.964-1.07c-2.4,0-3.25,1.406-3.25,2.609,0,1.465.907,2.286,3.885,3.519,4.454,1.816,5.055,4.049,5.055,5.993a5.631,5.631,0,0,1-4.542,5.456.678.678,0,0,0-.514.658v7.729a2.244,2.244,0,1,0,1.357-.008V429.4a6.89,6.89,0,0,0,5.056-6.627c0-2.08-.612-5.094-5.9-7.249-3.044-1.259-3.044-1.77-3.044-2.264,0-.8.69-1.253,1.893-1.253a6.292,6.292,0,0,1,3.291.892,1.5,1.5,0,0,0,2.149-.772l.8-2.114a1.462,1.462,0,0,0-.556-1.827A10.311,10.311,0,0,0,575.587,407v-3.12h2.6a2.245,2.245,0,1,0,2.157-2.864Zm-5.792,38.62a.889.889,0,1,1,.888-.889A.89.89,0,0,1,574.557,439.639Zm5.792-35.486a.889.889,0,1,1,.889-.889A.89.89,0,0,1,580.349,404.154Z" transform="translate(-14.477 -7.481)" fill="url(#linear-gradient)"/>
  </g>
</svg>
