<svg xmlns="http://www.w3.org/2000/svg" xmlns:xlink="http://www.w3.org/1999/xlink" width="43.739" height="39.157" viewBox="0 0 43.739 39.157">
  <defs>
    <linearGradient id="linear-gradient" x1="0.5" x2="0.5" y2="1" gradientUnits="objectBoundingBox">
      <stop offset="0" stop-color="#d94141"/>
      <stop offset="1" stop-color="#f26a4b"/>
    </linearGradient>
  </defs>
  <g id="Group_285" data-name="Group 285" transform="translate(-747.06 -1463.189)">
    <path id="Path_354" data-name="Path 354" d="M770.821,1494.424h-20.7v-27.049h35.717v19.615a.709.709,0,1,0,1.418,0v-19.615h.938a.709.709,0,0,0,.709-.709V1463.9a.709.709,0,0,0-.709-.709H747.769a.709.709,0,0,0-.709.709v2.768a.709.709,0,0,0,.709.709h.938v27.758a.709.709,0,0,0,.709.709h21.405a.709.709,0,0,0,0-1.418Zm-22.344-29.817h39.011v1.35H748.478Z" transform="translate(0 0)" fill="url(#linear-gradient)"/>
    <path id="Path_355" data-name="Path 355" d="M821.021,1503.76a4.283,4.283,0,1,0-4.283-4.283A4.288,4.288,0,0,0,821.021,1503.76Zm0-7.148a2.865,2.865,0,1,1-2.865,2.865A2.868,2.868,0,0,1,821.021,1496.612Z" transform="translate(-42.437 -19.492)" fill="url(#linear-gradient)"/>
    <path id="Path_356" data-name="Path 356" d="M810.875,1525.766l-7.236-5.857a2.638,2.638,0,0,0-.471-.3,4.26,4.26,0,0,0-.672-.323,8.112,8.112,0,0,0-5.731.022l-.531.2-5.922,1.742-5.3-1.714a2.6,2.6,0,1,0-1.6,4.947l6.065,1.961a2.594,2.594,0,0,0,.8.126,2.365,2.365,0,0,0,.7-.106l3.072-.911v9.936a.709.709,0,0,0,1.418,0V1524.6a.709.709,0,0,0-.911-.679l-3.981,1.181a.961.961,0,0,1-.3.048,1.178,1.178,0,0,1-.363-.057l-6.065-1.961a1.182,1.182,0,0,1,.727-2.249l5.509,1.782a.71.71,0,0,0,.418.005l6.159-1.812.053-.018.557-.213a6.694,6.694,0,0,1,4.73-.018,2.85,2.85,0,0,1,.464.226l.055.03a1.163,1.163,0,0,1,.229.143l7.236,5.857a1.177,1.177,0,0,1,.239,1.57l-3.591,5.43a1.187,1.187,0,0,1-.994.531,1.212,1.212,0,0,1-.648-.188,1.256,1.256,0,0,1-.309-1.694l1.581-2.441,1-1.507a.709.709,0,0,0-.145-.942l-2.172-1.758a.709.709,0,0,0-1.155.551v4.872l-.294.454a2.675,2.675,0,0,0,.294,3.285v.459a.709.709,0,0,0,1.361.28,2.61,2.61,0,0,0,2.669-1.119l3.591-5.43A2.589,2.589,0,0,0,810.875,1525.766ZM805.2,1527.9l.517.418-.517.782Z" transform="translate(-21.042 -33.852)" fill="url(#linear-gradient)"/>
    <path id="Path_357" data-name="Path 357" d="M784.548,1480.027a.709.709,0,0,0-1,.112l-6.8,8.515-3.3-4.584a.709.709,0,0,0-1.2.081l-4.322,8.1-2.378-4.216a.709.709,0,0,0-1.186-.075l-2.807,3.766a.709.709,0,0,0,1.137.847l2.156-2.893,2.478,4.393a.709.709,0,0,0,.617.36h.009a.708.708,0,0,0,.617-.375l4.4-8.241,3.185,4.419a.709.709,0,0,0,1.129.027l7.38-9.245A.709.709,0,0,0,784.548,1480.027Z" transform="translate(-8.743 -10.161)" fill="url(#linear-gradient)"/>
  </g>
</svg>
