<svg xmlns="http://www.w3.org/2000/svg" xmlns:xlink="http://www.w3.org/1999/xlink" width="38.044" height="38" viewBox="0 0 38.044 38">
  <defs>
    <linearGradient id="linear-gradient" x1="0.5" x2="0.5" y2="1" gradientUnits="objectBoundingBox">
      <stop offset="0" stop-color="#d94141"/>
      <stop offset="1" stop-color="#f26a4b"/>
    </linearGradient>
  </defs>
  <g id="Group_136" data-name="Group 136" transform="translate(-749.408 -380.302)">
    <g id="Group_133" data-name="Group 133" transform="translate(749.408 405.042)">
      <path id="Path_158" data-name="Path 158" d="M786.732,453.457a1.657,1.657,0,0,0-1.6-.223,2.616,2.616,0,0,0,.053-.392,1.8,1.8,0,0,0-.779-1.439c-.778-.6-1.968-.084-3.935.771a36.358,36.358,0,0,1-4.612,1.694,2.326,2.326,0,0,0-.342-.445,2.852,2.852,0,0,0-1.95-.736c-5.305.086-6.2-.445-7.238-1.044-1.318-.769-2.807-1.642-11.5-1.642h-4.85a.559.559,0,0,0-.573.564v10.369a.575.575,0,0,0,.573.582h4.757a40.843,40.843,0,0,0,12,1.745c5.929,0,13.107-1.318,19.3-6.229a3.18,3.18,0,0,0,1.4-2.1A1.741,1.741,0,0,0,786.732,453.457Zm-5.808-.238c1.06-.445,2.5-1.079,2.78-.89a.607.607,0,0,1,.324.514,1.815,1.815,0,0,1-.641,1.027,3.082,3.082,0,0,1-.393.17,43.688,43.688,0,0,1-6.836,2.362,1.9,1.9,0,0,0,.112-.548,4.2,4.2,0,0,0-.044-.873A38.674,38.674,0,0,0,780.924,453.219Zm-30.37-2.071h3.7v9.222h-3.7Zm34.8,4.962c-11.788,9.342-27.316,5.2-29.949,4.415v-9.377c7.87.033,9.179.8,10.333,1.489,1.189.683,2.225,1.3,7.862,1.2a1.7,1.7,0,0,1,1.112.412,2.019,2.019,0,0,1,.41,1.538c-.016.172-.051.685-1.069,1.1-.009,0-.009,0-.017.017h-.009c-1.078.412-3.455.771-8.657.1a.576.576,0,0,0-.65.5.589.589,0,0,0,.5.65,40.682,40.682,0,0,0,5.158.377,11.351,11.351,0,0,0,4.014-.548,41.826,41.826,0,0,0,9.058-2.873c1.181-.5,2.293-.976,2.542-.771.282.24.315.428.307.548C786.271,455.357,785.612,455.922,785.354,456.11Z" transform="translate(-749.408 -450.002)" fill="url(#linear-gradient)"/>
    </g>
    <g id="Group_134" data-name="Group 134" transform="translate(751.735 407.42)">
      <path id="Path_159" data-name="Path 159" d="M756.63,456.7a.663.663,0,0,0-.667.667.671.671,0,0,0,1.342,0A.663.663,0,0,0,756.63,456.7Z" transform="translate(-755.963 -456.701)" fill="url(#linear-gradient)"/>
    </g>
    <g id="Group_135" data-name="Group 135" transform="translate(749.408 380.302)">
      <path id="Path_160" data-name="Path 160" d="M749.981,401.927H786.87a.582.582,0,0,0,.581-.581,3.47,3.47,0,0,0-3.465-3.455h-.3a15.3,15.3,0,0,0-13.5-14.595,2.067,2.067,0,0,0,.258-.976,2.019,2.019,0,0,0-4.038,0,1.977,1.977,0,0,0,.264.976,15.3,15.3,0,0,0-13.508,14.595h-.3a3.461,3.461,0,0,0-3.455,3.455A.574.574,0,0,0,749.981,401.927Zm17.58-19.607a.864.864,0,0,1,1.728,0,.864.864,0,1,1-1.728,0Zm.864,2.018a14.146,14.146,0,0,1,14.116,13.552H754.317A14.138,14.138,0,0,1,768.425,384.339Zm-15.562,14.715h31.123a2.281,2.281,0,0,1,2.232,1.71H750.631A2.3,2.3,0,0,1,752.863,399.054Z" transform="translate(-749.408 -380.302)" fill="url(#linear-gradient)"/>
    </g>
  </g>
</svg>
