<svg xmlns="http://www.w3.org/2000/svg" xmlns:xlink="http://www.w3.org/1999/xlink" width="130.911" height="128.294" viewBox="0 0 130.911 128.294">
  <defs>
    <linearGradient id="linear-gradient" x1="0.5" x2="0.5" y2="1" gradientUnits="objectBoundingBox">
      <stop offset="0" stop-color="#d94141"/>
      <stop offset="1" stop-color="#f26a4b"/>
    </linearGradient>
  </defs>
  <g id="Group_112" data-name="Group 112" transform="translate(-4732.908 -3321.687)">
    <path id="Path_135" data-name="Path 135" d="M4795.664,3409.425a2.008,2.008,0,0,0,.353-.031l13.542-2.4a2.02,2.02,0,1,0-.706-3.978l-10.929,1.939,2.539-26.95,3.792-5.2c-.252,2.676-.39,5.169-.39,7.383,0,8.163,1.3,14.067,3.972,18.05a2.02,2.02,0,0,0,3.355-2.251c-2.181-3.25-3.287-8.566-3.287-15.8,0-8.812,2.249-22.347,5.729-34.48a92.986,92.986,0,0,1,5.283-14.534c2.346-4.8,3.747-5.387,3.912-5.44.164.053,1.565.638,3.911,5.441a92.952,92.952,0,0,1,5.283,14.533c3.48,12.133,5.729,25.668,5.729,34.48,0,7.046-1.049,12.275-3.117,15.539a2.02,2.02,0,1,0,3.412,2.163c2.521-3.977,3.745-9.768,3.745-17.7,0-2.376-.155-5.072-.446-7.973l4.221,5.791,2.539,26.95-10.93-1.939a2.02,2.02,0,1,0-.706,3.978l13.543,2.4a2.02,2.02,0,0,0,2.364-2.178l-2.84-30.144a2.008,2.008,0,0,0-.379-1l-8.733-11.98a1.979,1.979,0,0,0-.195-.217,171.872,171.872,0,0,0-4.469-19.789,92.642,92.642,0,0,0-5.646-15.2c-2.477-4.912-4.792-7.2-7.287-7.2s-4.811,2.288-7.288,7.2a92.732,92.732,0,0,0-5.646,15.2,171.894,171.894,0,0,0-4.564,20.381l-8.459,11.6a2.021,2.021,0,0,0-.378,1l-2.839,30.144a2.019,2.019,0,0,0,2.011,2.209Z" transform="translate(-23.143)" fill="url(#linear-gradient)"/>
    <path id="Path_136" data-name="Path 136" d="M4852.92,3395.485l.089,0a2.02,2.02,0,0,0,1.931-2.1c-.027-.634-.066-1.282-.115-1.925a2.02,2.02,0,1,0-4.028.306c.045.6.081,1.2.106,1.792A2.02,2.02,0,0,0,4852.92,3395.485Z" transform="translate(-44.918 -25.873)" fill="url(#linear-gradient)"/>
    <path id="Path_137" data-name="Path 137" d="M4847.516,3369.628a2.022,2.022,0,0,0,1.989-2.383,101.914,101.914,0,0,0-6.291-20.835,2.02,2.02,0,0,0-3.692,1.64,99.77,99.77,0,0,1,6.008,19.92A2.021,2.021,0,0,0,4847.516,3369.628Z" transform="translate(-40.558 -8.963)" fill="url(#linear-gradient)"/>
    <path id="Path_138" data-name="Path 138" d="M4841.333,3458.16a2.019,2.019,0,0,0-2.02,2.02v1.077a2.02,2.02,0,1,0,4.039,0v-1.077A2.02,2.02,0,0,0,4841.333,3458.16Z" transform="translate(-40.545 -52.002)" fill="url(#linear-gradient)"/>
    <path id="Path_139" data-name="Path 139" d="M4843.352,3421.889a2.02,2.02,0,1,0-4.039,0v16.7a2.02,2.02,0,1,0,4.039,0Z" transform="translate(-40.545 -37.411)" fill="url(#linear-gradient)"/>
    <path id="Path_140" data-name="Path 140" d="M4766.181,3471.755a15.423,15.423,0,0,0-5.263-.579c-.009-.121-.017-.242-.017-.365a5.1,5.1,0,0,1,8.863-3.43,2.021,2.021,0,0,0,3.044-.067,12.2,12.2,0,0,1,20.815,3.578,2.02,2.02,0,0,0,3.79-1.4,16.122,16.122,0,0,0-3.495-5.561v-17.239a2.02,2.02,0,1,0-4.04,0v14.16a16.163,16.163,0,0,0-18.771,2.392,9.133,9.133,0,0,0-14.248,7.569,9.26,9.26,0,0,0,.078,1.195,13.159,13.159,0,0,0-5.955,5.246A12.642,12.642,0,0,0,4735.25,3496a2.02,2.02,0,1,0,3.29-2.345,8.6,8.6,0,0,1,10.9-12.656,13.076,13.076,0,0,0-.365,3.053,2.02,2.02,0,1,0,4.04,0,9.122,9.122,0,0,1,5.934-8.537,12.031,12.031,0,0,1,5.86.079,2.02,2.02,0,0,0,1.27-3.835Z" transform="translate(0 -46.862)" fill="url(#linear-gradient)"/>
    <path id="Path_141" data-name="Path 141" d="M4894.332,3476.021a12.642,12.642,0,0,0-2.521.262,13.143,13.143,0,0,0-5.312-4.277,9.134,9.134,0,0,0-14.17-8.763,16.221,16.221,0,0,0-19.363-2.076v-14.476a2.02,2.02,0,1,0-4.04,0V3464.2a1.978,1.978,0,0,0,.033.325,16.247,16.247,0,0,0-2.627,4.2,2.02,2.02,0,1,0,3.712,1.593,12.2,12.2,0,0,1,20.585-3,2.021,2.021,0,0,0,3.044.067,5.1,5.1,0,0,1,8.863,3.43c0,.056-.006.111-.008.167a15.734,15.734,0,0,0-6.125.508,2.02,2.02,0,0,0,1.269,3.835,12,12,0,0,1,5.927-.065,9.121,9.121,0,0,1,6.721,8.792,2.02,2.02,0,1,0,4.04,0,13.1,13.1,0,0,0-.617-3.963c.2-.013.392-.024.588-.024a8.6,8.6,0,0,1,7.012,13.591,2.02,2.02,0,0,0,3.29,2.345,12.644,12.644,0,0,0-10.3-19.975Z" transform="translate(-43.157 -46.862)" fill="url(#linear-gradient)"/>
    <path id="Path_142" data-name="Path 142" d="M4823.266,3498.323a13.522,13.522,0,0,0-25.6,1.611,9.816,9.816,0,0,0-9.373,9.2,2.02,2.02,0,0,0,4.033.244,5.76,5.76,0,0,1,11.5.693,2.02,2.02,0,0,0,1.9,2.139c.041,0,.082,0,.123,0a2.02,2.02,0,0,0,2.015-1.9,9.811,9.811,0,0,0-6.187-9.7,9.476,9.476,0,0,1,18.161.15,6.253,6.253,0,0,0-1.041,4.614,2.02,2.02,0,0,0,3.985-.666,2.225,2.225,0,0,1,3.727-1.977,2.02,2.02,0,0,0,2.786-2.927A6.253,6.253,0,0,0,4823.266,3498.323Z" transform="translate(-21.102 -64.088)" fill="url(#linear-gradient)"/>
  </g>
</svg>
