<svg xmlns="http://www.w3.org/2000/svg" xmlns:xlink="http://www.w3.org/1999/xlink" width="36.472" height="36.47" viewBox="0 0 36.472 36.47">
  <defs>
    <linearGradient id="linear-gradient" x1="0.5" x2="0.5" y2="1" gradientUnits="objectBoundingBox">
      <stop offset="0" stop-color="#d94141"/>
      <stop offset="1" stop-color="#f26a4b"/>
    </linearGradient>
  </defs>
  <g id="Group_291" data-name="Group 291" transform="translate(-997.925 -629.338)">
    <path id="Path_361" data-name="Path 361" d="M1073.252,639.128a4.895,4.895,0,1,0-4.895-4.895A4.9,4.9,0,0,0,1073.252,639.128Zm0-8.566a3.671,3.671,0,1,1-3.671,3.671A3.672,3.672,0,0,1,1073.252,630.562Z" transform="translate(-43.75 0)" fill="url(#linear-gradient)"/>
    <path id="Path_362" data-name="Path 362" d="M1021.7,646.36a2.69,2.69,0,0,0,1.909-.789l5.521-5.522,3.685,3.685a2.7,2.7,0,0,0,3.817,0l0,0a2.7,2.7,0,0,0,0-3.816l-5.343-5.342a3.059,3.059,0,0,0-4.326,0l-7.178,7.178a2.7,2.7,0,0,0,1.912,4.608Zm-1.046-3.741,7.178-7.18a1.836,1.836,0,0,1,2.6,0l5.343,5.345a1.477,1.477,0,0,1,0,2.085l0,0a1.478,1.478,0,0,1-2.087,0l-4.118-4.119a.611.611,0,0,0-.865,0l-5.954,5.952a1.509,1.509,0,0,1-2.09,0A1.477,1.477,0,0,1,1020.656,642.62Z" transform="translate(-13.092 -2.696)" fill="url(#linear-gradient)"/>
    <path id="Path_363" data-name="Path 363" d="M1069.68,665.314h-6.119v-3.059a.612.612,0,0,0-1.045-.433l-3.671,3.671a.612.612,0,0,0-.179.433v2.448a1.835,1.835,0,0,0,1.835,1.835h9.178a2.447,2.447,0,1,0,0-4.895Zm0,3.672H1060.5a.612.612,0,0,1-.612-.612v-2.194l2.448-2.448v2.194a.612.612,0,0,0,.612.612h6.731a1.224,1.224,0,0,1,0,2.448Z" transform="translate(-37.73 -20.067)" fill="url(#linear-gradient)"/>
    <path id="Path_364" data-name="Path 364" d="M1013.426,687.366l-2.954-2.955a.63.63,0,0,0-.865,0L998.716,695.3a2.7,2.7,0,0,0,0,3.816v0a2.7,2.7,0,0,0,3.816,0l10.891-10.891A.612.612,0,0,0,1013.426,687.366Zm-11.758,10.892a1.475,1.475,0,0,1-2.085,0h0a1.474,1.474,0,0,1,0-2.085l10.458-10.462,2.089,2.089Z" transform="translate(0 -34.103)" fill="url(#linear-gradient)"/>
    <path id="Path_365" data-name="Path 365" d="M1037.091,674.33a2.7,2.7,0,1,0-3.821,3.82l4.781,4.78-5.8,3.089a2.692,2.692,0,0,0-1.005,3.668l.087.161a2.715,2.715,0,0,0,2.351,1.356,2.646,2.646,0,0,0,1.32-.351l7.547-4.059.979-.562a3.059,3.059,0,0,0,.642-4.818Zm6.74,9.491a1.822,1.822,0,0,1-.907,1.346l-8.513,4.615a1.478,1.478,0,0,1-2.009-.532l-.088-.16a1.473,1.473,0,0,1,.529-2l6.511-3.469a.611.611,0,0,0,.144-.973l-5.364-5.363a1.479,1.479,0,0,1,2.091-2.091l7.087,7.085A1.821,1.821,0,0,1,1043.831,683.822Z" transform="translate(-20.48 -27.439)" fill="url(#linear-gradient)"/>
  </g>
</svg>
