<svg xmlns="http://www.w3.org/2000/svg" xmlns:xlink="http://www.w3.org/1999/xlink" width="37.498" height="37.498" viewBox="0 0 37.498 37.498">
  <defs>
    <linearGradient id="linear-gradient" x1="0.5" x2="0.5" y2="1" gradientUnits="objectBoundingBox">
      <stop offset="0" stop-color="#d94141"/>
      <stop offset="1" stop-color="#f26a4b"/>
    </linearGradient>
  </defs>
  <path id="Path_282" data-name="Path 282" d="M1031.8,834.035l-.005-.005a1.68,1.68,0,0,0-1.174-.483h0a1.667,1.667,0,0,0-1.039.365c-3.988,3.185-7.99,6.473-11.9,9.772q-1.425,1.2-2.85,2.423L1003.99,835.26a2.75,2.75,0,0,0-3.884,0l-5.151,5.151a.549.549,0,0,0,.777.777l3.6-3.6.786.786-3.6,3.6a.549.549,0,1,0,.777.777l3.6-3.6.786.786-3.6,3.6a.549.549,0,1,0,.777.777l3.6-3.6.786.786-3.6,3.6a.549.549,0,1,0,.777.777l3.6-3.6.786.786-3.6,3.6a.549.549,0,1,0,.777.777l3.6-3.6.786.786-3.6,3.6a.549.549,0,1,0,.777.777l3.6-3.6.786.786-3.6,3.6a.549.549,0,1,0,.777.777l3.6-3.6.786.786-3.6,3.6a.549.549,0,1,0,.777.777l3.6-3.6.814.814q-2.53,2.2-5.023,4.426h0c-.493.438-1.031.943-1.561,1.421a.553.553,0,0,0-.1.809h0a3.67,3.67,0,0,1-.25,4.9l-1.657,1.657a3.841,3.841,0,1,1,.237-5.1.551.551,0,0,0,.8.061l.008-.007.005,0a.549.549,0,0,0-.048-.854,4.935,4.935,0,0,0-3.748-1.72h-.007a18.922,18.922,0,0,0,6.216,16.1h.006a4.941,4.941,0,0,0,3.533-8.4l1.122-1.275q2.969-3.3,5.87-6.632l.828.828-3.6,3.6a.549.549,0,1,0,.777.777l3.6-3.6.786.786-3.6,3.6a.549.549,0,1,0,.777.777l3.6-3.6.786.786-3.6,3.6a.55.55,0,0,0,.777.777l3.6-3.6.786.786-3.6,3.6a.549.549,0,1,0,.777.777l3.6-3.6.786.786-3.6,3.6a.549.549,0,0,0,.777.777l3.6-3.6.786.786-3.6,3.6a.549.549,0,1,0,.777.777l3.6-3.6.786.786-3.6,3.6a.549.549,0,0,0,.777.777l3.6-3.6.786.786-3.6,3.6a.549.549,0,1,0,.777.777l3.985-3.985h0l1.164-1.164a2.746,2.746,0,0,0,0-3.884l-10.857-10.856c4.212-4.913,8.294-9.841,12.206-14.737A1.666,1.666,0,0,0,1031.8,834.035Zm-31.7,2.78.777-.777a1.65,1.65,0,0,1,2.331,0L1014,846.823q-1.043.9-2.085,1.8Zm29.7,25.811a1.648,1.648,0,0,1,0,2.33l-.777.777L1017.2,853.911q.9-1.041,1.8-2.083Zm-19.7-2.328a2.1,2.1,0,0,1-1.094-1.559.549.549,0,1,0-1.091.129h0a2.994,2.994,0,0,0,1.334,2.172c.039.026.078.052.118.081-.381.434-.7.8-1.056,1.2a.55.55,0,0,0,.062.8,3.844,3.844,0,1,1-6.263,2.989,3.925,3.925,0,0,1,1.187-2.789l1.63-1.63a4.771,4.771,0,0,0,1.393-3.379,4.7,4.7,0,0,0-.765-2.584c.43-.393.8-.742,1.238-1.129l0,0c11.91-10.619,23.335-19.747,23.55-19.87-.147.147-21.578,21.569-21.677,21.681a.549.549,0,0,0,.822.73c.065-.075,21.475-21.477,21.633-21.634C1031.074,835.574,1022.228,846.779,1010.1,860.3Z" transform="translate(-994.794 -833.546)" fill="url(#linear-gradient)"/>
</svg>
