<svg xmlns="http://www.w3.org/2000/svg" xmlns:xlink="http://www.w3.org/1999/xlink" width="31.5" height="45.193" viewBox="0 0 31.5 45.193">
  <defs>
    <linearGradient id="linear-gradient" x1="0.5" x2="0.5" y2="1" gradientUnits="objectBoundingBox">
      <stop offset="0" stop-color="#d94141"/>
      <stop offset="1" stop-color="#f26a4b"/>
    </linearGradient>
  </defs>
  <g id="Group_286" data-name="Group 286" transform="translate(-192.208 -1455.732)">
    <path id="Path_358" data-name="Path 358" d="M224.334,1492.493h-3.858l.207-1.762a.842.842,0,0,0-.837-.94h-1.524v-2.7a.842.842,0,1,0-1.684,0v2.7h-5.314v-2.7a.842.842,0,1,0-1.684,0v2.7h-1.524a.842.842,0,0,0-.836.94l.207,1.762h-3.858a.843.843,0,0,0-.835.954l3.255,24.449a.842.842,0,0,0,.835.731h14.2a.842.842,0,0,0,.835-.731l3.255-24.449a.843.843,0,0,0-.835-.954Zm-3.993,24.449h-12.72l-3.032-22.765h3.094l1.794,15.27a.842.842,0,0,0,.835.744.855.855,0,0,0,.1-.006.842.842,0,0,0,.738-.935l-2.088-17.776H218.9l-2.088,17.776a.842.842,0,0,0,1.673.2l1.794-15.27h3.094Z" transform="translate(-6.135 -17.702)" fill="url(#linear-gradient)"/>
    <path id="Path_359" data-name="Path 359" d="M227.938,1459.732a4,4,0,1,0-4,4A4,4,0,0,0,227.938,1459.732Zm-6.315,0a2.315,2.315,0,1,1,2.316,2.316A2.318,2.318,0,0,1,221.622,1459.732Z" transform="translate(-16.085 0)" fill="url(#linear-gradient)"/>
    <path id="Path_360" data-name="Path 360" d="M223.573,1481.12a2.426,2.426,0,0,0-3.115-1.493l-4.28,1.539-2.261-2.447a5.73,5.73,0,0,0-4.2-1.836h-3.527a5.73,5.73,0,0,0-4.2,1.836l-2.261,2.447-4.279-1.539a2.426,2.426,0,0,0-1.67,4.555l4.888,1.826a.842.842,0,0,0,.59-1.578l-4.888-1.826a.741.741,0,0,1,.51-1.392l4.8,1.728a.843.843,0,0,0,.9-.221l2.639-2.857a4.04,4.04,0,0,1,2.959-1.295h3.527a4.04,4.04,0,0,1,2.959,1.295l2.64,2.857a.843.843,0,0,0,.9.221l4.8-1.728a.741.741,0,0,1,.51,1.392l-4.888,1.826a.842.842,0,1,0,.59,1.578l4.888-1.826A2.412,2.412,0,0,0,223.573,1481.12Z" transform="translate(0 -12.269)" fill="url(#linear-gradient)"/>
  </g>
</svg>
