<svg fill="none" height="83" viewBox="0 0 84 83" width="84" xmlns="http://www.w3.org/2000/svg" xmlns:xlink="http://www.w3.org/1999/xlink"><filter id="a" color-interpolation-filters="sRGB" filterUnits="userSpaceOnUse" height="38.3739" width="75.0034" x="4.20751" y="22.6755"><feFlood flood-opacity="0" result="BackgroundImageFix"/><feColorMatrix in="SourceAlpha" result="hardAlpha" type="matrix" values="0 0 0 0 0 0 0 0 0 0 0 0 0 0 0 0 0 0 127 0"/><feOffset dy=".581424"/><feGaussianBlur stdDeviation="1.16285"/><feComposite in2="hardAlpha" operator="out"/><feColorMatrix type="matrix" values="0 0 0 0 0 0 0 0 0 0 0 0 0 0 0 0 0 0 0.16 0"/><feBlend in2="BackgroundImageFix" mode="normal" result="effect1_dropShadow_840_1732"/><feBlend in="SourceGraphic" in2="effect1_dropShadow_840_1732" mode="normal" result="shape"/></filter><linearGradient id="b" gradientUnits="userSpaceOnUse" x1="216.904" x2="-132.904" y1="82.5622" y2=".000001"><stop offset="0" stop-color="#f26a4b"/><stop offset="1" stop-color="#d94141"/></linearGradient><circle cx="41.9998" cy="41.2811" fill="url(#b)" r="41.2811"/><g filter="url(#a)"><path d="m69.5505 24.4198c-4.2244 0-7.3302 3.2033-7.3302 7.5048-.021 1.036.1718 2.0652.5662 3.0233.3944.958.982 1.8243 1.7259 2.5447l-18.1335 18.3258-21.8418-21.8488c-.0892-.0893-.195-.1602-.3116-.2086-.1165-.0484-.2415-.0733-.3676-.0733-.1262 0-.2511.0249-.3677.0733s-.2224.1193-.3116.2086l-10.8369 10.8499c-.6109-.3766-1.3155-.5731-2.033-.5671-2.17696 0-3.7755 1.6557-3.7755 3.8666 0 2.2108 1.59854 3.8665 3.7755 3.8665 2.177 0 3.7779-1.6557 3.7779-3.8665.0057-.6547-.1467-1.301-.444-1.884l10.2153-10.2251 21.825 21.8512c.0912.0912.1998.1632.3194.2115s.2477.072.3766.0696c.1263-.0002.2513-.0254.3679-.074.1165-.0487.2224-.1199.3114-.2095l19.048-19.2439c1.0682.5436 2.2509.8229 3.4491.8146 4.2219 0 7.3302-3.2153 7.3302-7.5048s-3.1131-7.5048-7.335-7.5048zm-56.6064 20.8635-.0552-.0504zm-2.6258 4.9288c-1.18327 0-1.94894-.9613-1.94894-2.0859 0-1.1247.76567-2.0835 1.94894-2.0835 1.1833 0 1.949.9492 1.949 2.0835 0 1.1342-.7657 2.0859-1.949 2.0859zm3.1779-4.2415c.0528.0841.1032.1706.1512.262-.0432-.0914-.0936-.1779-.1512-.262zm-.4225-.5527.1057.1226zm.2401.2836c.0432.0552.084.1129.1248.1706-.0408-.0577-.0816-.1154-.1248-.1706zm51.9379-7.6034.0216.0144zm-.3792-.2883h.0144zm4.678-.9925c-2.7795 0-4.5604-2.2301-4.5604-4.8927s1.7929-4.8951 4.5604-4.8951c2.7674 0 4.5724 2.2301 4.5724 4.8951s-1.7954 4.8927-4.5724 4.8927z" fill="#f7f5f3"/></g></svg>