<svg width="204" height="61" viewBox="0 0 204 61" fill="none" xmlns="http://www.w3.org/2000/svg">
<path d="M109.428 38.5403H107.803V33.5596H109.428C110.172 33.5596 110.781 33.7887 111.254 34.2469C111.727 34.705 111.963 35.2839 111.963 35.9834C111.963 36.747 111.734 37.3653 111.276 37.8383C110.818 38.3063 110.202 38.5403 109.428 38.5403ZM109.399 34.3429H108.756V37.7644H109.414C109.936 37.7644 110.332 37.6042 110.603 37.284C110.874 36.9589 111.01 36.5254 111.01 35.9834C111.01 35.5056 110.865 35.1139 110.574 34.8085C110.288 34.4981 109.896 34.3429 109.399 34.3429Z" fill="white"/>
<path d="M115.886 38.5403H114.955V33.5596H115.886V38.5403Z" fill="white"/>
<path d="M123.225 38.1117C122.772 38.4368 122.205 38.5994 121.526 38.5994C120.737 38.5994 120.099 38.3703 119.612 37.9122C119.129 37.454 118.888 36.8308 118.888 36.0426C118.888 35.274 119.136 34.6533 119.634 34.1804C120.136 33.7074 120.769 33.4709 121.533 33.4709C122.1 33.4709 122.585 33.5769 122.989 33.7887V34.742C122.536 34.471 122.055 34.3355 121.548 34.3355C121.05 34.3355 120.649 34.4907 120.343 34.8011C120.038 35.1115 119.885 35.5253 119.885 36.0426C119.885 36.5697 120.033 36.986 120.328 37.2914C120.629 37.5919 121.04 37.7422 121.563 37.7422C121.819 37.7422 122.068 37.6979 122.309 37.6092V36.4342H121.393V35.6361H123.225V38.0304H123.218L123.225 38.1117Z" fill="white"/>
<path d="M127.307 38.5403H126.376V33.5596H127.307V38.5403Z" fill="white"/>
<path d="M133.649 34.3282H132.385V38.5403H131.447V34.3282H130.183V33.5596H133.649V34.3282Z" fill="white"/>
<path d="M137.784 36.4342L137.717 36.6485H139.121L139.055 36.4268C138.887 35.8948 138.749 35.4489 138.641 35.0893C138.538 34.7247 138.474 34.4957 138.449 34.402L138.419 34.2543C138.375 34.5006 138.163 35.2272 137.784 36.4342ZM137.119 38.5403H136.143L137.828 33.5596H139.033L140.718 38.5403H139.713L139.358 37.4097H137.473L137.119 38.5403Z" fill="white"/>
<path d="M146.414 38.5403H143.539V33.5596H144.47V37.7126H146.414V38.5403Z" fill="white"/>
<path d="M157.302 38.1117C156.849 38.4368 156.282 38.5994 155.602 38.5994C154.814 38.5994 154.176 38.3703 153.688 37.9122C153.205 37.454 152.964 36.8308 152.964 36.0426C152.964 35.274 153.213 34.6533 153.71 34.1804C154.213 33.7074 154.846 33.4709 155.61 33.4709C156.176 33.4709 156.661 33.5769 157.065 33.7887V34.742C156.612 34.471 156.132 34.3355 155.624 34.3355C155.127 34.3355 154.725 34.4907 154.42 34.8011C154.114 35.1115 153.962 35.5253 153.962 36.0426C153.962 36.5697 154.109 36.986 154.405 37.2914C154.706 37.5919 155.117 37.7422 155.639 37.7422C155.895 37.7422 156.144 37.6979 156.386 37.6092V36.4342H155.469V35.6361H157.302V38.0304H157.294L157.302 38.1117Z" fill="white"/>
<path d="M161.93 34.3282H161.324V35.9539H161.945C162.231 35.9539 162.445 35.8825 162.588 35.7396C162.731 35.5918 162.802 35.3873 162.802 35.1262C162.802 34.8701 162.726 34.673 162.573 34.5351C162.426 34.3971 162.211 34.3282 161.93 34.3282ZM161.324 38.5403H160.393V33.5596H161.93C162.497 33.5596 162.94 33.7025 163.261 33.9882C163.586 34.274 163.748 34.6558 163.748 35.1336C163.743 35.4883 163.657 35.7888 163.49 36.0352C163.322 36.2766 163.093 36.4564 162.802 36.5746L164.081 38.5403H162.965L161.834 36.7224H161.324V38.5403Z" fill="white"/>
<path d="M171.359 36.0352C171.359 36.8037 171.144 37.422 170.716 37.89C170.292 38.358 169.723 38.592 169.009 38.592C168.294 38.592 167.723 38.358 167.294 37.89C166.866 37.422 166.651 36.8037 166.651 36.0352C166.651 35.2617 166.863 34.641 167.287 34.173C167.716 33.705 168.287 33.4709 169.001 33.4709C169.726 33.4709 170.3 33.705 170.723 34.173C171.147 34.6361 171.359 35.2568 171.359 36.0352ZM167.649 36.0352C167.649 36.5574 167.772 36.9712 168.019 37.2766C168.265 37.5821 168.595 37.7348 169.009 37.7348C169.428 37.7348 169.758 37.5845 169.999 37.284C170.24 36.9786 170.361 36.5623 170.361 36.0352C170.361 35.508 170.24 35.0918 169.999 34.7863C169.758 34.4809 169.425 34.3282 169.001 34.3282C168.583 34.3282 168.253 34.4809 168.011 34.7863C167.77 35.0918 167.649 35.508 167.649 36.0352Z" fill="white"/>
<path d="M176.366 38.5403H175.295L173.965 33.5596H174.948L175.413 35.3997C175.492 35.7297 175.571 36.0721 175.65 36.4268C175.728 36.7815 175.788 37.0525 175.827 37.2397L175.886 37.5279C176.044 36.9072 176.236 36.1977 176.462 35.3997L176.965 33.6335H177.719L178.229 35.3997L178.82 37.5427C178.943 36.8579 179.096 36.1411 179.278 35.3923L179.729 33.5596H180.675L179.404 38.5403H178.325L177.874 36.9663C177.751 36.5475 177.645 36.178 177.556 35.8578C177.472 35.5376 177.416 35.3233 177.386 35.2149L177.349 35.045C177.28 35.3898 177.108 36.0302 176.832 36.9663L176.366 38.5403Z" fill="white"/>
<path d="M186.623 34.3282H185.36V38.5403H184.421V34.3282H183.158V33.5596H186.623V34.3282Z" fill="white"/>
<path d="M193.344 38.5403H192.406V36.449H190.359V38.5403H189.428V33.5596H190.359V35.6435H192.406V33.5596H193.344V38.5403Z" fill="white"/>
<path d="M71.4932 21.7908V16.2572H65.551V12.0755H75.9053V23.9555C75.9053 23.9555 72.5799 27.2461 66.2248 27.2461C58.5656 27.2461 52.4756 21.4518 52.4756 13.7187C52.4756 5.98556 58.3787 0.191162 66.0378 0.191162C72.4669 0.191162 75.7183 4.10335 75.7183 4.10335L72.6755 7.08967C72.6755 7.08967 70.5021 4.36417 66.0596 4.36417C60.7912 4.36417 57.0528 8.65889 57.0528 13.7056C57.0368 14.9244 57.2625 16.1342 57.717 17.2652C58.1715 18.3962 58.8457 19.4258 59.7007 20.2945C60.5556 21.1632 61.5744 21.8538 62.698 22.3263C63.8215 22.7987 65.0276 23.0437 66.2465 23.0471C69.9631 23.0601 71.4932 21.7908 71.4932 21.7908Z" fill="white"/>
<path d="M80.6084 0.638916H89.2022C94.3967 0.638916 97.8742 4.0034 97.8742 8.78496C97.8742 12.6972 95.779 15.7008 92.045 16.6311L98.5654 26.7984H93.3491L87.1461 16.931H85.0944V26.7984H80.6084V0.638916ZM93.3143 8.78496C93.3143 6.20726 91.5191 4.89885 88.6414 4.89885H85.0944V12.6711H88.6414C91.5191 12.6711 93.3143 11.3627 93.3143 8.78496Z" fill="white"/>
<path d="M154.071 27.6939L146.22 8.07642L138.261 27.6939L127.95 0.638916H133.019L138.548 16.3355L144.49 0.638916H148.189L154.018 16.3355L159.7 0.638916H164.368L154.071 27.6939Z" fill="white"/>
<path d="M167.294 0.638916H171.776V22.5385H182.912V26.7984H167.294V0.638916Z" fill="white"/>
<path d="M194.232 26.7984H189.75V16.4833L180.834 0.638916H185.768L192.136 12.3364L198.526 0.638916H203.16L194.227 16.4833L194.232 26.7984Z" fill="white"/>
<path d="M114.127 0C106.477 0 100.852 5.79438 100.852 13.5753C100.814 15.4493 101.163 17.311 101.877 19.044C102.592 20.777 103.656 22.344 105.003 23.647V23.647L72.1625 56.7963L32.6059 17.2745C32.4445 17.1128 32.2527 16.9846 32.0416 16.8971C31.8305 16.8096 31.6043 16.7645 31.3758 16.7645C31.1473 16.7645 30.921 16.8096 30.7099 16.8971C30.4989 16.9846 30.3071 17.1128 30.1456 17.2745L10.5194 36.9006C9.41301 36.2194 8.13694 35.8639 6.83764 35.8748C2.89503 35.8748 0 38.8698 0 42.8689C0 46.868 2.89503 49.863 6.83764 49.863C10.7803 49.863 13.6796 46.868 13.6796 42.8689C13.6898 41.6847 13.414 40.5156 12.8754 39.461L31.3758 20.965L70.9019 60.4911C71.0671 60.6562 71.2639 60.7864 71.4805 60.8737C71.697 60.9611 71.929 61.004 72.1625 60.9997C72.3912 60.9993 72.6176 60.9538 72.8287 60.8658C73.0398 60.7778 73.2315 60.649 73.3927 60.4868L107.89 25.677C109.824 26.6602 111.966 27.1655 114.136 27.1506C121.782 27.1506 127.411 21.3345 127.411 13.5753C127.411 5.81611 121.773 0 114.127 0ZM11.6105 37.7396L11.5105 37.6483L11.6105 37.7396ZM6.85503 46.655C4.71202 46.655 3.32537 44.9163 3.32537 42.8819C3.32537 40.8476 4.71202 39.1132 6.85503 39.1132C8.99805 39.1132 10.3847 40.8302 10.3847 42.8819C10.3847 44.9337 8.99805 46.655 6.85503 46.655ZM12.6103 38.9828C12.7059 39.1349 12.7972 39.2914 12.8842 39.4566C12.8059 39.2914 12.7146 39.1349 12.6103 38.9828ZM11.8452 37.983L12.0365 38.2047L11.8452 37.983ZM12.2799 38.4959C12.3582 38.5959 12.4321 38.7002 12.506 38.8046C12.4321 38.7002 12.3582 38.5959 12.2799 38.4959ZM106.342 24.7424L106.381 24.7685L106.342 24.7424ZM105.655 24.2208H105.681H105.655ZM114.127 22.4255C109.094 22.4255 105.868 18.3916 105.868 13.5753C105.868 8.75895 109.115 4.7207 114.127 4.7207C119.139 4.7207 122.408 8.7546 122.408 13.5753C122.408 18.396 119.157 22.4255 114.127 22.4255V22.4255Z" fill="url(#paint0_linear_4032_4160)"/>
<defs>
<linearGradient id="paint0_linear_4032_4160" x1="0.0173875" y1="30.4977" x2="127.403" y2="30.4977" gradientUnits="userSpaceOnUse">
<stop offset="0.03" stop-color="#F26A4B"/>
<stop offset="0.95" stop-color="#D94141"/>
</linearGradient>
</defs>
</svg>
