<svg fill="none" height="141" viewBox="0 0 468 141" width="468" xmlns="http://www.w3.org/2000/svg" xmlns:xlink="http://www.w3.org/1999/xlink"><linearGradient id="a" gradientUnits="userSpaceOnUse" x1=".04" x2="293.09" y1="70.16" y2="70.16"><stop offset=".03" stop-color="#f26a4b"/><stop offset=".95" stop-color="#d94141"/></linearGradient><g fill="#130101"><path d="m251.74 88.662h-3.74v-11.458h3.74c1.711 0 3.111.527 4.199 1.581s1.632 2.3857 1.632 3.995c0 1.7567-.527 3.179-1.581 4.267-1.054 1.0767-2.471 1.615-4.25 1.615zm-.068-9.656h-1.479v7.871h1.513c1.201 0 2.114-.3683 2.737-1.105.623-.748.935-1.7453.935-2.992 0-1.0993-.334-2.0003-1.003-2.703-.657-.714-1.558-1.071-2.703-1.071z"/><path d="m266.595 88.662h-2.142v-11.458h2.142z"/><path d="m283.48 87.676c-1.043.748-2.346 1.122-3.91 1.122-1.814 0-3.281-.527-4.403-1.581-1.111-1.054-1.666-2.4877-1.666-4.301 0-1.768.572-3.196 1.717-4.284 1.156-1.088 2.612-1.632 4.369-1.632 1.303 0 2.419.2437 3.349.731v2.193c-1.043-.6233-2.148-.935-3.315-.935-1.145 0-2.069.357-2.771 1.071-.703.714-1.054 1.666-1.054 2.856 0 1.2127.34 2.1703 1.02 2.873.691.6913 1.637 1.037 2.839 1.037.589 0 1.161-.102 1.717-.306v-2.703h-2.108v-1.836h4.216v5.508h-.017z"/><path d="m292.87 88.662h-2.142v-11.458h2.142z"/><path d="m307.459 78.972h-2.907v9.69h-2.159v-9.69h-2.907v-1.768h7.973z"/><path d="m316.972 83.817-.153.493h3.23l-.153-.51c-.386-1.224-.703-2.2497-.952-3.077-.238-.8387-.386-1.3657-.442-1.581l-.068-.34c-.102.5667-.59 2.2383-1.462 5.015zm-1.53 4.845h-2.244l3.876-11.458h2.771l3.876 11.458h-2.312l-.816-2.601h-4.335z"/><path d="m336.825 88.662h-6.613v-11.458h2.142v9.554h4.471z"/><path d="m361.873 87.676c-1.043.748-2.346 1.122-3.91 1.122-1.814 0-3.281-.527-4.403-1.581-1.111-1.054-1.666-2.4877-1.666-4.301 0-1.768.572-3.196 1.717-4.284 1.156-1.088 2.612-1.632 4.369-1.632 1.303 0 2.419.2437 3.349.731v2.193c-1.043-.6233-2.148-.935-3.315-.935-1.145 0-2.069.357-2.771 1.071-.703.714-1.054 1.666-1.054 2.856 0 1.2127.34 2.1703 1.02 2.873.691.6913 1.637 1.037 2.839 1.037.589 0 1.161-.102 1.717-.306v-2.703h-2.108v-1.836h4.216v5.508h-.017z"/><path d="m372.521 78.972h-1.394v3.74h1.428c.657 0 1.15-.1643 1.479-.493.329-.34.493-.8103.493-1.411 0-.5893-.176-1.0427-.527-1.36-.34-.3173-.833-.476-1.479-.476zm-1.394 9.69h-2.142v-11.458h3.536c1.303 0 2.323.3287 3.06.986.748.6573 1.122 1.5357 1.122 2.635-.011.816-.21 1.5073-.595 2.074-.385.5553-.912.969-1.581 1.241l2.941 4.522h-2.567l-2.601-4.182h-1.173z"/><path d="m394.211 82.899c0 1.768-.493 3.1903-1.479 4.267-.975 1.0767-2.284 1.615-3.927 1.615-1.644 0-2.958-.5383-3.944-1.615s-1.479-2.499-1.479-4.267c0-1.7793.487-3.2073 1.462-4.284.986-1.0767 2.3-1.615 3.944-1.615 1.666 0 2.986.5383 3.961 1.615.974 1.0653 1.462 2.4933 1.462 4.284zm-8.534 0c0 1.2013.283 2.1533.85 2.856.566.7027 1.326 1.054 2.278 1.054.963 0 1.722-.3457 2.278-1.037.555-.7027.833-1.6603.833-2.873s-.278-2.1703-.833-2.873c-.556-.7027-1.321-1.054-2.295-1.054-.964 0-1.723.3513-2.278 1.054-.556.7027-.833 1.6603-.833 2.873z"/><path d="m405.731 88.662h-2.465l-3.06-11.458h2.261l1.071 4.233c.181.7593.362 1.547.544 2.363.181.816.317 1.4393.408 1.87l.136.663c.362-1.428.804-3.06 1.326-4.896l1.156-4.063h1.734l1.173 4.063 1.36 4.93c.283-1.5753.634-3.2243 1.054-4.947l1.037-4.216h2.176l-2.924 11.458h-2.482l-1.037-3.621c-.284-.9633-.527-1.8133-.731-2.55-.193-.7367-.323-1.2297-.391-1.479l-.085-.391c-.159.7933-.556 2.2667-1.19 4.42z"/><path d="m429.327 78.972h-2.907v9.69h-2.159v-9.69h-2.907v-1.768h7.973z"/><path d="m444.789 88.662h-2.159v-4.811h-4.709v4.811h-2.142v-11.458h2.142v4.794h4.709v-4.794h2.159z"/></g><path clip-rule="evenodd" d="m232.01 31.23c0-17.9 12.94-31.23 30.54-31.23 17.59 0 30.56 13.38 30.56 31.23s-12.95 31.23-30.54 31.23c-4.992.0344-9.92-1.1281-14.37-3.39l-79.36 80.08c-.371.373-.812.669-1.297.872-.486.202-1.007.307-1.533.308-.537.01-1.071-.089-1.569-.29s-.951-.5-1.331-.88l-90.93-90.93-42.5432 42.5332c.0011.0023.0021.0045.0032.0068-.0011-.0022-.0023-.0044-.0034-.0066l-.0166.0166c1.2388 2.4263 1.8735 5.1158 1.85 7.84 0 9.2-6.67 16.09-15.74 16.09-9.06999 0-15.73-6.89-15.73-16.09s6.66001-16.09 15.73-16.09c2.9891-.0251 5.9246.7928 8.47 2.36l45.15-45.15c.3715-.3719.8127-.667 1.2983-.8683s1.0061-.3049 1.5317-.3049c.5257 0 1.0462.1036 1.5318.3049s.9267.4964 1.2982.8683l91 90.92 75.55-76.26c-3.1-2.9976-5.548-6.6025-7.191-10.5892-1.643-3.9868-2.446-8.2696-2.359-12.5808zm-224.35998 67.42c0 4.68 3.18998 8.68 8.11998 8.68s8.12-3.96 8.12-8.68-3.19-8.67-8.12-8.67-8.11998 3.99-8.11998 8.67zm235.89998-67.42c0 11.08 7.42 20.36 19 20.36 11.57 0 19.05-9.27 19.05-20.36s-7.52-20.37-19.05-20.37-19 9.29-19 20.37zm-79.08 6.17v12.73s-3.52 2.92-12.07 2.89c-2.804-.0077-5.579-.5713-8.163-1.6582-2.585-1.0869-4.929-2.6755-6.896-4.674s-3.518-4.3672-4.563-6.969c-1.046-2.6017-1.565-5.385-1.528-8.1888 0-11.61 8.6-21.49 20.72-21.49 10.22 0 15.22 6.27 15.22 6.27l7-6.87s-7.48-8.999998-22.27-8.999998c-17.62 0-31.2 13.329998-31.2 31.119998s14.01 31.12 31.63 31.12c14.62 0 22.27-7.57 22.27-7.57v-27.33h-23.82v9.62zm40.74-35.92997h-19.77v60.17997h10.32v-22.7h4.72l14.27 22.7h12l-15-23.39c8.59-2.14 13.41-9.05 13.41-18.05 0-10.99998-8-18.73997-19.95-18.73997zm-1.29 9.79997c6.62 0 10.75 3.01 10.75 8.94s-4.13 8.94-10.75 8.94h-8.16v-17.88zm150.52 52.44-18.06-45.13-18.31 45.13-23.72-62.23997h11.66l12.72 36.10997 13.67-36.10997h8.51l13.41 36.10997 13.07-36.10997h10.74zm40.73-62.23997h-10.31v60.17997h35.93v-9.8h-25.62zm51.66 60.17997h-10.31v-23.73l-20.51-36.44997h11.35l14.65 26.90997 14.7-26.90997h10.66l-20.55 36.44997z" fill="url(#a)" fill-rule="evenodd"/></svg>