<svg width="32" height="32" viewBox="0 0 32 32" fill="none" xmlns="http://www.w3.org/2000/svg">
<path opacity="0.2" d="M12 30L14 20L6 17L20 2L18 12L26 15L12 30Z" fill="#D94141"/>
<path d="M26.9738 14.7712C26.9359 14.611 26.859 14.4625 26.75 14.3391C26.641 14.2157 26.5031 14.1211 26.3488 14.0637L19.1475 11.3625L20.98 2.19625C21.0215 1.98327 20.9926 1.76258 20.8977 1.56747C20.8027 1.37237 20.6469 1.21343 20.4537 1.11465C20.2605 1.01587 20.0405 0.982599 19.8267 1.01987C19.613 1.05713 19.4171 1.16292 19.2688 1.32125L5.26876 16.3212C5.15505 16.4411 5.0728 16.5872 5.02934 16.7465C4.98588 16.9059 4.98258 17.0735 5.01972 17.2345C5.05686 17.3954 5.13329 17.5447 5.24219 17.6689C5.35108 17.7931 5.48905 17.8884 5.64376 17.9462L12.8475 20.6475L11.02 29.8037C10.9785 30.0167 11.0074 30.2374 11.1024 30.4325C11.1973 30.6276 11.3531 30.7866 11.5463 30.8853C11.7395 30.9841 11.9596 31.0174 12.1733 30.9801C12.3871 30.9429 12.5829 30.8371 12.7313 30.6787L26.7313 15.6787C26.8429 15.5589 26.9234 15.4135 26.9657 15.2552C27.008 15.097 27.0107 14.9308 26.9738 14.7712ZM13.6713 26.75L14.98 20.2025C15.0268 19.9703 14.9897 19.729 14.8753 19.5216C14.7608 19.3142 14.5764 19.1542 14.355 19.07L7.75001 16.5887L18.3275 5.25625L17.02 11.8037C16.9732 12.036 17.0103 12.2773 17.1247 12.4847C17.2392 12.6921 17.4236 12.8521 17.645 12.9362L24.245 15.4112L13.6713 26.75Z" fill="#D94141"/>
</svg>
