<svg width="32" height="32" viewBox="0 0 32 32" fill="none" xmlns="http://www.w3.org/2000/svg">
<path opacity="0.2" d="M29 20V23C29 23.2652 28.8946 23.5196 28.7071 23.7071C28.5196 23.8946 28.2652 24 28 24H4C3.73478 24 3.48043 23.8946 3.29289 23.7071C3.10536 23.5196 3 23.2652 3 23V20.1412C3 12.9562 8.76875 7.02499 15.9537 6.99999C17.6648 6.9939 19.3603 7.32567 20.9428 7.97625C22.5254 8.62684 23.964 9.58344 25.1761 10.7912C26.3881 11.999 27.3498 13.4341 28.006 15.0144C28.6622 16.5947 29 18.2889 29 20Z" fill="#D94141"/>
<path d="M25.8825 10.0837C24.5862 8.78456 23.0456 7.75483 21.3495 7.05393C19.6534 6.35303 17.8352 5.99484 16 5.99999H15.95C8.25875 6.02624 2 12.375 2 20.1412V23C2 23.5304 2.21071 24.0391 2.58579 24.4142C2.96086 24.7893 3.46957 25 4 25H28C28.5304 25 29.0391 24.7893 29.4142 24.4142C29.7893 24.0391 30 23.5304 30 23V20C30.0051 18.1567 29.6438 16.3308 28.9369 14.6285C28.23 12.9261 27.1918 11.3812 25.8825 10.0837ZM28 23H14.9637L21.8088 13.5875C21.9649 13.373 22.0294 13.1053 21.9882 12.8432C21.9469 12.5811 21.8032 12.3461 21.5888 12.19C21.3743 12.0338 21.1065 11.9693 20.8444 12.0106C20.5824 12.0518 20.3474 12.1955 20.1912 12.41L12.49 23H4V20.1412C4 19.7562 4.01875 19.3762 4.05375 19H7C7.26522 19 7.51957 18.8946 7.70711 18.7071C7.89464 18.5196 8 18.2652 8 18C8 17.7348 7.89464 17.4804 7.70711 17.2929C7.51957 17.1054 7.26522 17 7 17H4.40875C5.69875 12.1425 9.90875 8.46999 15 8.04249V11C15 11.2652 15.1054 11.5196 15.2929 11.7071C15.4804 11.8946 15.7348 12 16 12C16.2652 12 16.5196 11.8946 16.7071 11.7071C16.8946 11.5196 17 11.2652 17 11V8.04124C19.4808 8.25002 21.8356 9.22412 23.7389 10.8289C25.6422 12.4338 27.0001 14.5901 27.625 17H25C24.7348 17 24.4804 17.1054 24.2929 17.2929C24.1054 17.4804 24 17.7348 24 18C24 18.2652 24.1054 18.5196 24.2929 18.7071C24.4804 18.8946 24.7348 19 25 19H27.9587C27.985 19.3312 28 19.6637 28 20V23Z" fill="#D94141"/>
</svg>
