<svg xmlns="http://www.w3.org/2000/svg" xmlns:xlink="http://www.w3.org/1999/xlink" width="49" height="69" viewBox="0 0 49 69">
  <defs>
    <linearGradient id="linear-gradient" x1="0.5" x2="0.5" y2="1" gradientUnits="objectBoundingBox">
      <stop offset="0" stop-color="#d94141"/>
      <stop offset="1" stop-color="#f26a4b"/>
    </linearGradient>
  </defs>
  <path id="Union_2" data-name="Union 2" d="M29.994,69A13.118,13.118,0,0,1,17,55.792V53H5.834A5.8,5.8,0,0,1,0,47.239V5.761A5.8,5.8,0,0,1,5.834,0H29.167A5.8,5.8,0,0,1,35,5.761V16.029L35.035,16,46.247,30.242A12.968,12.968,0,0,1,49,38.228v29.61A1.152,1.152,0,0,1,47.858,69ZM19.286,55.792A10.81,10.81,0,0,0,29.994,66.676h16.72V38.228a10.6,10.6,0,0,0-2.254-6.535L35,19.675V40.067L38,43.4,36.369,45,21.325,28.3a2.872,2.872,0,0,0-2.056-.961,2.93,2.93,0,0,0-2.105.839,3.187,3.187,0,0,0-.223,4.216l9.9,12.215a1.21,1.21,0,0,1,.266.757v4.045a13.289,13.289,0,0,0,8.229,12.4L34.554,64a15.457,15.457,0,0,1-9.278-11h-5.99Zm5.636-5.1q-.051-.637-.051-1.283V45.794l-2.954-3.643L22,50.7ZM2.334,5.761V47.239a3.483,3.483,0,0,0,3.5,3.456H19V38.554L15.229,33.9a5.573,5.573,0,0,1,.3-7.321c.011-.013.1-.1.113-.114A4.975,4.975,0,0,1,19,25V2.3H5.834A3.483,3.483,0,0,0,2.334,5.761ZM32.667,37.478V5.761a3.483,3.483,0,0,0-3.5-3.457H29v31.1ZM22.953,26.7,26,30.079V2.3H22V25.867A5.283,5.283,0,0,1,22.953,26.7ZM7.125,47A1.125,1.125,0,0,1,6,45.875v-6.75A1.125,1.125,0,0,1,7.125,38h6.75A1.125,1.125,0,0,1,15,39.125v6.75A1.125,1.125,0,0,1,13.875,47ZM6,21V6H9V21Zm6-6V6h3v9Z" fill="url(#linear-gradient)"/>
</svg>
