<svg xmlns="http://www.w3.org/2000/svg" xmlns:xlink="http://www.w3.org/1999/xlink" width="86" height="79" viewBox="0 0 86 79">
  <defs>
    <linearGradient id="linear-gradient" x1="0.5" x2="0.5" y2="1" gradientUnits="objectBoundingBox">
      <stop offset="0" stop-color="#d94141"/>
      <stop offset="1" stop-color="#f26a4b"/>
    </linearGradient>
  </defs>
  <path id="Union_4" data-name="Union 4" d="M1.425,79A1.419,1.419,0,0,1,0,77.589V33.9a1.4,1.4,0,0,1,.638-1.175l10.979-7.21V1.411A1.419,1.419,0,0,1,13.042,0H72.957a1.419,1.419,0,0,1,1.425,1.411v24.1l10.982,7.211A1.405,1.405,0,0,1,86,33.9V77.589A1.419,1.419,0,0,1,84.576,79ZM6.15,76.179h73.7L43,51.984ZM50.4,53.456,83.151,74.961V36.246ZM2.849,74.96,35.6,53.455,2.849,36.246ZM43.786,49.116l3.908,2.565L71.533,39.156V2.822H14.466V39.155l23.84,12.525,3.907-2.565a1.434,1.434,0,0,1,1.573,0Zm30.6-11.456,4.469-2.349H74.381ZM7.151,35.312l4.467,2.346V35.311H7.151Zm67.231-2.822H79.85L74.381,28.9Zm-68.231,0h5.467V28.9ZM43.5,36A12.413,12.413,0,0,1,31,23.7v-.4a12.5,12.5,0,0,1,25,0v1.012a4.9,4.9,0,0,1-9.048,2.53,6.072,6.072,0,0,1-3.966,1.472,5.925,5.925,0,1,1,6.021-5.924v1.921a2.1,2.1,0,0,0,4.2,0V23.3a9.713,9.713,0,0,0-19.424,0v.4A9.645,9.645,0,0,0,43.5,33.257H54.607a1.372,1.372,0,1,1,0,2.743ZM39.753,22.388a3.234,3.234,0,1,0,3.234-3.181A3.211,3.211,0,0,0,39.753,22.388Z" fill="url(#linear-gradient)"/>
</svg>
