<svg xmlns="http://www.w3.org/2000/svg" xmlns:xlink="http://www.w3.org/1999/xlink" width="98.327" height="124.94" viewBox="0 0 98.327 124.94">
  <defs>
    <linearGradient id="linear-gradient" x1="0.5" x2="0.5" y2="1" gradientUnits="objectBoundingBox">
      <stop offset="0" stop-color="#d94141"/>
      <stop offset="1" stop-color="#f26a4b"/>
    </linearGradient>
  </defs>
  <g id="Group_251" data-name="Group 251" transform="translate(-659.139 -48.781)">
    <path id="Path_314" data-name="Path 314" d="M755.5,96.394H713.942V84.19a1.966,1.966,0,0,0-3.933,0v2.5h-4.6V78.445a1.966,1.966,0,1,0-3.933,0V96.394H661.106a1.967,1.967,0,0,0-1.967,1.967v11.4a1.966,1.966,0,0,0,.77,1.56l39.872,30.591v12.3a1.967,1.967,0,0,0,1.967,1.967h13.11a1.967,1.967,0,0,0,1.966-1.967v-12.3L756.7,111.316a1.966,1.966,0,0,0,.769-1.56v-11.4A1.967,1.967,0,0,0,755.5,96.394ZM705.4,90.626h4.6v5.769h-4.6Zm48.128,16.65H736.227a1.966,1.966,0,0,0,0,3.933h14.148L713.66,139.377a1.968,1.968,0,0,0-.77,1.56v11.307h-9.177V140.937a1.966,1.966,0,0,0-.769-1.56L666.23,111.209h48.758a1.966,1.966,0,1,0,0-3.933H663.072v-6.949h90.461Z" transform="translate(0 -5.792)" fill="url(#linear-gradient)"/>
    <path id="Path_315" data-name="Path 315" d="M673.8,79.274h12.156a1.966,1.966,0,0,0,1.966-1.966V65.986a1.966,1.966,0,0,0-1.966-1.966h-5.243a1.966,1.966,0,0,0,0,3.933h3.277v7.388h-8.223V59.291a1.967,1.967,0,1,0-3.933,0V77.308A1.967,1.967,0,0,0,673.8,79.274Z" transform="translate(-2.654 -1.787)" fill="url(#linear-gradient)"/>
    <path id="Path_316" data-name="Path 316" d="M748.72,69.311a1.967,1.967,0,0,0-1.967,1.966V84.165a1.967,1.967,0,0,0,1.967,1.966h15.915a1.966,1.966,0,0,0,1.966-1.966V73.2c0-.034.01-.066.01-.1V62.351a1.966,1.966,0,1,0-3.933,0V72.743c0,.034-.01.066-.01.1V82.2H750.686V71.277A1.966,1.966,0,0,0,748.72,69.311Z" transform="translate(-18.323 -2.427)" fill="url(#linear-gradient)"/>
    <path id="Path_317" data-name="Path 317" d="M768.857,54.965A1.966,1.966,0,0,0,770.823,53v-.263a1.966,1.966,0,0,0-3.933,0V53A1.966,1.966,0,0,0,768.857,54.965Z" transform="translate(-22.534 -0.416)" fill="url(#linear-gradient)"/>
    <path id="Path_318" data-name="Path 318" d="M674.367,53.639a1.966,1.966,0,0,0,1.967-1.966V51.41a1.966,1.966,0,0,0-3.933,0v.263A1.966,1.966,0,0,0,674.367,53.639Z" transform="translate(-2.774 -0.139)" fill="url(#linear-gradient)"/>
    <path id="Path_319" data-name="Path 319" d="M748.633,68.559a1.967,1.967,0,0,0,1.966-1.967V66.33a1.966,1.966,0,1,0-3.933,0v.262A1.967,1.967,0,0,0,748.633,68.559Z" transform="translate(-18.305 -3.259)" fill="url(#linear-gradient)"/>
    <path id="Path_320" data-name="Path 320" d="M758.579,72.117a1.967,1.967,0,0,0,1.966-1.967v-19.4a1.966,1.966,0,0,0-3.933,0v19.4A1.967,1.967,0,0,0,758.579,72.117Z" transform="translate(-20.385 0)" fill="url(#linear-gradient)"/>
    <path id="Path_321" data-name="Path 321" d="M714.484,71.042a1.966,1.966,0,0,0,1.966-1.967V65.666a1.966,1.966,0,0,0-3.933,0v3.409A1.967,1.967,0,0,0,714.484,71.042Z" transform="translate(-11.163 -3.12)" fill="url(#linear-gradient)"/>
    <path id="Path_322" data-name="Path 322" d="M725.425,78.435a1.966,1.966,0,0,0,1.966-1.967v-.524a1.967,1.967,0,0,0-3.933,0v.524A1.966,1.966,0,0,0,725.425,78.435Z" transform="translate(-13.451 -5.27)" fill="url(#linear-gradient)"/>
    <path id="Path_323" data-name="Path 323" d="M744.82,119.353h1.573a1.966,1.966,0,1,0,0-3.933H744.82a1.966,1.966,0,1,0,0,3.933Z" transform="translate(-17.508 -13.937)" fill="url(#linear-gradient)"/>
    <path id="Path_324" data-name="Path 324" d="M719.026,184.89a8.648,8.648,0,1,0,8.648,8.648A8.658,8.658,0,0,0,719.026,184.89Zm0,13.363a4.715,4.715,0,1,1,4.715-4.715A4.72,4.72,0,0,1,719.026,198.253Z" transform="translate(-10.716 -28.465)" fill="url(#linear-gradient)"/>
  </g>
</svg>
