<svg xmlns="http://www.w3.org/2000/svg" width="27.366" height="27.36" viewBox="0 0 27.366 27.36">
  <path id="Icon_awesome-instagram" data-name="Icon awesome-instagram" d="M13.681,8.9A7.015,7.015,0,1,0,20.7,15.918,7,7,0,0,0,13.681,8.9Zm0,11.575a4.56,4.56,0,1,1,4.56-4.56,4.569,4.569,0,0,1-4.56,4.56ZM22.618,8.616A1.636,1.636,0,1,1,20.982,6.98,1.632,1.632,0,0,1,22.618,8.616Zm4.646,1.661a8.1,8.1,0,0,0-2.21-5.733,8.15,8.15,0,0,0-5.733-2.21c-2.259-.128-9.029-.128-11.288,0A8.138,8.138,0,0,0,2.3,4.538,8.123,8.123,0,0,0,.091,10.27c-.128,2.259-.128,9.029,0,11.288A8.1,8.1,0,0,0,2.3,27.291,8.161,8.161,0,0,0,8.034,29.5c2.259.128,9.029.128,11.288,0a8.1,8.1,0,0,0,5.733-2.21,8.15,8.15,0,0,0,2.21-5.733c.128-2.259.128-9.023,0-11.282ZM24.346,23.982a4.617,4.617,0,0,1-2.6,2.6c-1.8.714-6.075.549-8.065.549s-6.27.159-8.065-.549a4.617,4.617,0,0,1-2.6-2.6c-.714-1.8-.549-6.075-.549-8.065s-.159-6.27.549-8.065a4.617,4.617,0,0,1,2.6-2.6c1.8-.714,6.075-.549,8.065-.549s6.27-.159,8.065.549a4.617,4.617,0,0,1,2.6,2.6c.714,1.8.549,6.075.549,8.065S25.061,22.187,24.346,23.982Z" transform="translate(0.005 -2.238)" fill="#fff"/>
</svg>
