<svg xmlns="http://www.w3.org/2000/svg" xmlns:xlink="http://www.w3.org/1999/xlink" width="213.678" height="64.162" viewBox="0 0 213.678 64.162">
  <defs>
    <linearGradient id="linear-gradient" x1="0.081" y1="0.5" x2="0.955" y2="0.5" gradientUnits="objectBoundingBox">
      <stop offset="0" stop-color="#f26a4b"/>
      <stop offset="1" stop-color="#d94141"/>
    </linearGradient>
  </defs>
  <g id="logo-growly" transform="translate(-422 -104.978)">
    <g id="Group_3" data-name="Group 3" transform="translate(477.178 105.18)">
      <path id="Path_19" data-name="Path 19" d="M499.713,394.828v-5.817h-6.249v-4.4h10.887v12.5s-3.5,3.458-10.18,3.458a14.13,14.13,0,0,1-14.464-14.228,13.966,13.966,0,0,1,14.268-14.229,13.618,13.618,0,0,1,10.18,4.127l-3.223,3.144a9.1,9.1,0,0,0-6.957-2.869,9.532,9.532,0,0,0-9.473,9.827,9.7,9.7,0,0,0,9.669,9.826C498.1,396.164,499.713,394.828,499.713,394.828Z" transform="translate(-479.707 -372.11)" fill="#d94141"/>
      <path id="Path_20" data-name="Path 20" d="M544.431,373.142h9.04c5.464,0,9.119,3.537,9.119,8.568,0,4.128-2.2,7.272-6.132,8.255l6.878,10.691h-5.5l-6.525-10.377h-2.161v10.377h-4.717Zm13.363,8.568c0-2.712-1.887-4.088-4.913-4.088h-3.734V385.8h3.734C555.908,385.8,557.795,384.422,557.795,381.71Z" transform="translate(-514.838 -372.67)" fill="#d94141"/>
      <path id="Path_21" data-name="Path 21" d="M680.81,401.6l-8.254-20.635L664.184,401.6l-10.848-28.456h5.345L664.5,389.65l6.25-16.508h3.891l6.131,16.508,5.974-16.508h4.913Z" transform="translate(-573.95 -372.67)" fill="#d94141"/>
      <path id="Path_22" data-name="Path 22" d="M743.846,373.142h4.717v23.032h11.713v4.481h-16.43Z" transform="translate(-623.077 -372.67)" fill="#d94141"/>
      <path id="Path_23" data-name="Path 23" d="M789.073,400.655h-4.717V389.807l-9.394-16.665h5.188l6.721,12.3,6.721-12.3h4.873l-9.394,16.665Z" transform="translate(-639.966 -372.67)" fill="#d94141"/>
    </g>
    <path id="Path_24" data-name="Path 24" d="M479.05,371.668c-8.047,0-13.963,6.113-13.963,14.279a14.346,14.346,0,0,0,4.367,10.594h0L434.891,431.41l-41.57-41.57a1.829,1.829,0,0,0-2.586,0l-20.645,20.645h0a7.26,7.26,0,0,0-3.871-1.081,7.359,7.359,0,1,0,7.194,7.357,7.78,7.78,0,0,0-.842-3.585l19.457-19.456L433.6,435.295a1.828,1.828,0,0,0,1.293.536h0a1.827,1.827,0,0,0,1.295-.542l36.288-36.61h0a14.281,14.281,0,0,0,6.568,1.547c8.046,0,13.963-6.114,13.963-14.278S487.1,371.668,479.05,371.668Zm-107.829,39.7c-.034-.033-.069-.065-.1-.1C371.151,411.3,371.186,411.331,371.22,411.364Zm-5,9.364a3.976,3.976,0,1,1,3.711-3.967A3.736,3.736,0,0,1,366.22,420.728Zm6.061-8.058c.1.162.2.328.289.5C372.48,413,372.382,412.833,372.281,412.67Zm-.805-1.048c.07.075.137.154.2.232C371.613,411.776,371.546,411.7,371.476,411.623Zm.451.538c.081.106.16.215.234.326C372.086,412.376,372.008,412.267,371.927,412.161Zm98.936-14.467.041.03Zm-.722-.55.026.021Zm8.909-1.886c-5.294,0-8.71-4.243-8.71-9.311s3.416-9.311,8.71-9.311,8.71,4.243,8.71,9.311S484.344,395.258,479.05,395.258Z" transform="translate(62.975 -266.69)" fill="url(#linear-gradient)"/>
  </g>
</svg>
