<svg xmlns="http://www.w3.org/2000/svg" xmlns:xlink="http://www.w3.org/1999/xlink" width="43.988" height="42.598" viewBox="0 0 43.988 42.598">
  <defs>
    <linearGradient id="linear-gradient" x1="0.5" x2="0.5" y2="1" gradientUnits="objectBoundingBox">
      <stop offset="0" stop-color="#d94141"/>
      <stop offset="1" stop-color="#f26a4b"/>
    </linearGradient>
  </defs>
  <g id="Group_189" data-name="Group 189" transform="translate(-1212.993 -1048.571)">
    <g id="Group_187" data-name="Group 187" transform="translate(1228.316 1061.218)">
      <path id="Path_230" data-name="Path 230" d="M1256.389,1078.885a6.657,6.657,0,0,0-.891,13.255.148.148,0,0,0,.089.02.672.672,0,0,0,.665-.575.686.686,0,0,0-.575-.751,5.335,5.335,0,1,1,5.994-6.015.693.693,0,0,0,.752.575.683.683,0,0,0,.575-.751A6.682,6.682,0,0,0,1256.389,1078.885Z" transform="translate(-1249.722 -1078.885)" fill="url(#linear-gradient)"/>
    </g>
    <g id="Group_188" data-name="Group 188" transform="translate(1212.993 1048.571)">
      <path id="Path_231" data-name="Path 231" d="M1256.874,1058.408l-.021-.039c-.03-.04-.059-.061-.089-.1-.02-.02-.03-.02-.04-.04-.018,0-.028-.02-.048-.039s-.049-.02-.069-.04h-.02l-21.336-9.535a.863.863,0,0,0-.545,0l-21.315,9.535c-.021,0-.031,0-.041.02a.071.071,0,0,0-.059.02c-.01.019-.02.019-.03.039a.4.4,0,0,0-.059.04c-.031.039-.048.059-.079.1,0,0-.021.018-.041.039a.7.7,0,0,0-.039.119l-.031.038a1.111,1.111,0,0,0-.02.179v22.237a.679.679,0,0,0,.4.612l21.315,9.535h.041a.973.973,0,0,0,.237.041h0a.9.9,0,0,0,.237-.041h.04l21.326-9.535a.7.7,0,0,0,.4-.612v-22.237A.6.6,0,0,0,1256.874,1058.408Zm-21.891-8.448,8.427,3.76-3.235,1.445a.68.68,0,0,0-.337.889.689.689,0,0,0,.614.4.64.64,0,0,0,.267-.059l4.333-1.939,9.625,4.293-10.1,4.511a10.644,10.644,0,0,0-19.189,0l-10.1-4.511Zm1.068,18.992,12.781,4.392-5.579,2.474a.621.621,0,0,0-.336.336l-2.474,5.579Zm7.943,1.325-8.794-3.027a.669.669,0,0,0-.851.851l3.018,8.784a9.323,9.323,0,1,1,6.953-9A9.2,9.2,0,0,1,1243.994,1070.278Zm-19.012,15.035v-10.147a.664.664,0,0,0-.663-.673.673.673,0,0,0-.672.673v9.553l-9.327-4.173v-20.752l10,4.451.555.257a10.634,10.634,0,0,0,9.446,14.006v10.98Zm30.665-4.767-19.991,8.942v-10.98a9.776,9.776,0,0,0,2.147-.357l1.929,5.62a.638.638,0,0,0,.6.434h.028a.673.673,0,0,0,.6-.4l3.067-6.884,6.884-3.067a.652.652,0,0,0,.395-.632.634.634,0,0,0-.443-.594l-5.61-1.939a10.494,10.494,0,0,0-.168-6.193l10.555-4.708Z" transform="translate(-1212.993 -1048.571)" fill="url(#linear-gradient)"/>
    </g>
  </g>
</svg>
