<svg xmlns="http://www.w3.org/2000/svg" xmlns:xlink="http://www.w3.org/1999/xlink" width="34.5" height="31.105" viewBox="0 0 34.5 31.105">
  <defs>
    <linearGradient id="linear-gradient" x1="0.5" x2="0.5" y2="1" gradientUnits="objectBoundingBox">
      <stop offset="0" stop-color="#d94141"/>
      <stop offset="1" stop-color="#f26a4b"/>
    </linearGradient>
  </defs>
  <path id="Path_344" data-name="Path 344" d="M1032.518,1251.343h-5.383v-2.989a2.553,2.553,0,0,0-2.55-2.55h-9.745a2.553,2.553,0,0,0-2.55,2.55v2.989h-5.383a4.449,4.449,0,0,0-4.445,4.445v16.677a4.449,4.449,0,0,0,4.445,4.445h25.61a4.449,4.449,0,0,0,4.445-4.445v-16.677A4.449,4.449,0,0,0,1032.518,1251.343Zm-18.962-2.989a1.286,1.286,0,0,1,1.284-1.284h9.745a1.286,1.286,0,0,1,1.284,1.284v2.989h-12.314Zm22.141,24.11a3.183,3.183,0,0,1-3.179,3.179h-25.61a3.183,3.183,0,0,1-3.179-3.179v-16.677a3.183,3.183,0,0,1,3.179-3.179h25.61a3.183,3.183,0,0,1,3.179,3.179Z" transform="translate(-1002.463 -1245.804)" fill="url(#linear-gradient)"/>
</svg>
