<svg xmlns="http://www.w3.org/2000/svg" xmlns:xlink="http://www.w3.org/1999/xlink" width="21.883" height="21.883" viewBox="0 0 21.883 21.883">
  <defs>
    <linearGradient id="linear-gradient" x1="0.5" x2="0.5" y2="1" gradientUnits="objectBoundingBox">
      <stop offset="0" stop-color="#d94141"/>
      <stop offset="1" stop-color="#f26a4b"/>
    </linearGradient>
  </defs>
  <g id="Icon_ionic-ios-checkmark-circle-outline" data-name="Icon ionic-ios-checkmark-circle-outline" transform="translate(-3.375 -3.375)">
    <path id="Path_143" data-name="Path 143" d="M21.7,13.222l-.926-.952a.2.2,0,0,0-.147-.063h0a.191.191,0,0,0-.147.063l-6.418,6.465L11.728,16.4a.2.2,0,0,0-.295,0l-.936.936a.21.21,0,0,0,0,.3l2.946,2.946a.932.932,0,0,0,.615.3.976.976,0,0,0,.61-.289h.005l7.033-7.07A.225.225,0,0,0,21.7,13.222Z" transform="translate(-1.778 -2.224)" fill="url(#linear-gradient)"/>
    <path id="Path_144" data-name="Path 144" d="M14.317,4.848A9.465,9.465,0,1,1,7.62,7.62a9.406,9.406,0,0,1,6.7-2.772m0-1.473A10.942,10.942,0,1,0,25.258,14.317,10.94,10.94,0,0,0,14.317,3.375Z" fill="url(#linear-gradient)"/>
  </g>
</svg>
