<svg xmlns="http://www.w3.org/2000/svg" xmlns:xlink="http://www.w3.org/1999/xlink" width="41.056" height="37.891" viewBox="0 0 41.056 37.891">
  <defs>
    <linearGradient id="linear-gradient" x1="0.5" x2="0.5" y2="1" gradientUnits="objectBoundingBox">
      <stop offset="0" stop-color="#d94141"/>
      <stop offset="1" stop-color="#f26a4b"/>
    </linearGradient>
  </defs>
  <g id="Group_283" data-name="Group 283" transform="translate(-1221.346 -1242.531)">
    <g id="Group_278" data-name="Group 278" transform="translate(1221.346 1246.297)">
      <path id="Path_345" data-name="Path 345" d="M1262.4,1280.418a.609.609,0,0,0-.038-.222l-.019-.019a.555.555,0,0,0-.064-.11l-4.228-5.521v-21.237a2.571,2.571,0,0,0-2.494-2.64h-3.008a.618.618,0,1,0,0,1.237h3.008a1.329,1.329,0,0,1,1.248,1.4v20.811h-29.859v-8.77a.621.621,0,0,0-.62-.628.629.629,0,0,0-.628.628v9.2l-4.219,5.521a.614.614,0,0,0-.064.11c-.01,0-.019.019-.019.019a.622.622,0,0,0-.045.222v1.9a2.482,2.482,0,0,0,2.483,2.475h36.081a2.484,2.484,0,0,0,2.492-2.475v-1.884Zm-35.768-5.041h30.494l3.4,4.451h-37.29Zm34.529,6.943a1.238,1.238,0,0,1-1.246,1.236h-36.081a1.244,1.244,0,0,1-1.246-1.236v-1.256h38.573Z" transform="translate(-1221.346 -1250.671)" fill="url(#linear-gradient)"/>
    </g>
    <g id="Group_279" data-name="Group 279" transform="translate(1221.346 1242.531)">
      <path id="Path_346" data-name="Path 346" d="M1223.829,1258.484h5.6v8.273a.615.615,0,0,0,.619.609H1253.7a.615.615,0,0,0,.619-.609v-16.174a.62.62,0,0,0-.619-.628h-3.638v-4.932a2.488,2.488,0,0,0-2.492-2.492h-23.738a2.485,2.485,0,0,0-2.483,2.492v10.988A2.481,2.481,0,0,0,1223.829,1258.484Zm26.23-2.473v-4.82h3.01v14.938h-22.4v-7.645h7.654l6.03,4.285a.635.635,0,0,0,.36.11.511.511,0,0,0,.285-.074.591.591,0,0,0,.333-.535v-3.786h2.235A2.484,2.484,0,0,0,1250.059,1256.011Zm-27.476-10.988a1.249,1.249,0,0,1,1.246-1.255h23.738a1.249,1.249,0,0,1,1.246,1.255v10.988a1.245,1.245,0,0,1-1.246,1.237h-2.853a.623.623,0,0,0-.628.609v3.2l-5.2-3.693a.622.622,0,0,0-.359-.111h-14.7a1.245,1.245,0,0,1-1.246-1.237Z" transform="translate(-1221.346 -1242.531)" fill="url(#linear-gradient)"/>
    </g>
    <g id="Group_280" data-name="Group 280" transform="translate(1235.701 1247.425)">
      <path id="Path_347" data-name="Path 347" d="M1252.991,1254.363h8.087a.629.629,0,0,0,.628-.628.64.64,0,0,0-.628-.628h-8.087a.634.634,0,0,0-.62.628A.622.622,0,0,0,1252.991,1254.363Z" transform="translate(-1252.371 -1253.107)" fill="url(#linear-gradient)"/>
    </g>
    <g id="Group_281" data-name="Group 281" transform="translate(1226.368 1247.425)">
      <path id="Path_348" data-name="Path 348" d="M1232.828,1254.363h5.595a.621.621,0,0,0,.618-.628.632.632,0,0,0-.618-.628h-5.595a.634.634,0,0,0-.628.628A.623.623,0,0,0,1232.828,1254.363Z" transform="translate(-1232.2 -1253.107)" fill="url(#linear-gradient)"/>
    </g>
    <g id="Group_282" data-name="Group 282" transform="translate(1226.368 1252.335)">
      <path id="Path_349" data-name="Path 349" d="M1232.828,1264.975h13.054a.633.633,0,0,0,.628-.627.623.623,0,0,0-.628-.628h-13.054a.623.623,0,0,0-.628.628A.633.633,0,0,0,1232.828,1264.975Z" transform="translate(-1232.2 -1263.72)" fill="url(#linear-gradient)"/>
    </g>
  </g>
</svg>
