<svg xmlns="http://www.w3.org/2000/svg" xmlns:xlink="http://www.w3.org/1999/xlink" width="85.001" height="80" viewBox="0 0 85.001 80"><defs><linearGradient id="a" x1="0.5" y1="0.027" x2="0.517" y2="0.96" gradientUnits="objectBoundingBox"><stop offset="0" stop-color="#d94141"/><stop offset="1" stop-color="#f26a4b"/></linearGradient></defs><path d="M51.224,79a4.805,4.805,0,0,1-4.81-4.788V67.342H32.059l-2.336,5.44H43.068a1.36,1.36,0,1,1,0,2.721H20.182a1.36,1.36,0,1,1,0-2.721h6.566l3.362-7.828H6.686A6.677,6.677,0,0,1,0,58.3V20.856a1.367,1.367,0,0,1,2.734,0V53.087h40.49a1.36,1.36,0,1,1,0,2.72H2.734V58.3a3.947,3.947,0,0,0,3.952,3.932H46.414V36.268a4.8,4.8,0,0,1,4.811-4.787h19.9a4.8,4.8,0,0,1,4.811,4.787V53.086h5.325V6.653a3.947,3.947,0,0,0-3.953-3.932H6.686A3.947,3.947,0,0,0,2.734,6.653v9.669a1.367,1.367,0,0,1-2.734,0V6.653A6.677,6.677,0,0,1,6.686,0H77.314A6.677,6.677,0,0,1,84,6.653V58.3a6.642,6.642,0,0,1-4.084,6.129,1.338,1.338,0,0,1-.532.108,1.365,1.365,0,0,1-1.26-.831,1.359,1.359,0,0,1,.727-1.783A3.927,3.927,0,0,0,81.266,58.3V55.806H75.94V74.212A4.8,4.8,0,0,1,71.13,79Zm-2.076-4.787a2.075,2.075,0,0,0,2.077,2.066h19.9a2.074,2.074,0,0,0,2.077-2.066V70.657H49.148Zm0-37.945V67.937H73.207V36.268A2.074,2.074,0,0,0,71.13,34.2H51.224A2.074,2.074,0,0,0,49.148,36.268Zm11.4,38.394A1.52,1.52,0,1,1,61.5,75,1.515,1.515,0,0,1,60.547,74.662ZM41.743,59.8a1.531,1.531,0,0,1-.715-1.6,1.513,1.513,0,0,1,2.724-.544,1.53,1.53,0,0,1-.274,1.986,1.515,1.515,0,0,1-1.736.156ZM57.34,39a1.509,1.509,0,0,1,0-3h7.321a1.509,1.509,0,0,1,0,3Z" transform="translate(0.5 0.5)" stroke="rgba(0,0,0,0)" stroke-miterlimit="10" stroke-width="1" fill="url(#a)"/></svg>