<svg xmlns="http://www.w3.org/2000/svg" width="58.207" height="58.207" viewBox="0 0 58.207 58.207">
    <g id="Icon_ionic-md-sad" transform="translate(-3.375 -3.375)">
        <path id="Path_371" d="M25.114 20.25a15.824 15.824 0 0 0-14.3 8.955h28.6a15.824 15.824 0 0 0-14.3-8.955z" class="cls-1" transform="translate(7.364 16.706)"/>
        <path id="Path_372" d="M32.478 3.375a29.1 29.1 0 1 0 29.1 29.1 29.1 29.1 0 0 0-29.1-29.1zm0 52.386a23.283 23.283 0 1 1 23.284-23.283 23.352 23.352 0 0 1-23.284 23.283z" class="cls-1"/>
        <path id="Path_373" d="M25.291 20.881a4.366 4.366 0 1 0-4.366-4.366 4.287 4.287 0 0 0 4.366 4.366z" class="cls-1" transform="translate(17.374 8.687)"/>
        <path id="Path_374" d="M15.053 20.881a4.366 4.366 0 1 0 0-8.731 4.366 4.366 0 1 0 0 8.731z" class="cls-1" transform="translate(7.239 8.687)"/>
    </g>
</svg>
