<svg xmlns="http://www.w3.org/2000/svg" xmlns:xlink="http://www.w3.org/1999/xlink" width="39.052" height="38.815" viewBox="0 0 39.052 38.815">
  <defs>
    <linearGradient id="linear-gradient" x1="0.5" x2="0.5" y2="1" gradientUnits="objectBoundingBox">
      <stop offset="0" stop-color="#d94141"/>
      <stop offset="1" stop-color="#f26a4b"/>
    </linearGradient>
  </defs>
  <g id="Group_131" data-name="Group 131" transform="translate(-145.713 -386.967)">
    <path id="Path_155" data-name="Path 155" d="M184.765,410.642a.611.611,0,0,0-.036-.176.217.217,0,0,1-.034-.07.49.49,0,0,0-.079-.106c-.009-.034-.027-.034-.045-.052l-.034-.034-5.392-4.164v-2.879a.591.591,0,0,0-.59-.6h-2.361V399.42a.577.577,0,0,0-.588-.581h-2.3v-3.162a.588.588,0,0,0-.59-.579h-5.03l2.414-2.422a.585.585,0,0,0-.421-1h-2.291v-4.11a.591.591,0,0,0-.59-.6H163.25a.591.591,0,0,0-.6.6v4.11H160.36a.585.585,0,0,0-.543.369.552.552,0,0,0,.131.633l2.406,2.422h-5.023a.6.6,0,0,0-.6.579v3.162h-2.293a.577.577,0,0,0-.588.581v3.144H151.93a.6.6,0,0,0-.6.6v2.879L145.95,410.2c-.018.016-.027.016-.036.034s-.034.018-.052.052l-.079.106a.274.274,0,0,1-.027.07.607.607,0,0,0-.034.176c0,.018-.009.018-.009.018v12.17a2.964,2.964,0,0,0,2.959,2.952H181.8a2.965,2.965,0,0,0,2.96-2.952V410.642Zm-2.327-.563h-3.293v-2.529ZM163.25,392.85a.59.59,0,0,0,.588-.6v-4.11H166.2v4.11a.6.6,0,0,0,.6.6h1.459l-3.232,3.232-3.232-3.232Zm-5.331,3.426h5.62l1.063,1.052a.583.583,0,0,0,.421.194.6.6,0,0,0,.421-.194l1.054-1.052h5.62v2.563h-14.2Zm-2.89,3.741h19.988v2.547H155.029Zm22.938,3.723v6.34h-5.032a.588.588,0,0,0-.588.581A4.14,4.14,0,0,1,168.2,414.8h-.816v-3.565h2.291a.592.592,0,0,0,.554-.369.617.617,0,0,0-.133-.651l-4.655-4.653a.6.6,0,0,0-.841,0l-4.655,4.653a.6.6,0,0,0,.412,1.02h2.293V414.8h-.369a4.14,4.14,0,0,1-4.145-4.144.588.588,0,0,0-.588-.581h-5.032v-6.34Zm-14.717,6.305h-1.459l3.232-3.214,3.232,3.214H166.8a.61.61,0,0,0-.6.6V414.8h-2.361v-4.162A.6.6,0,0,0,163.25,410.045Zm-11.917-2.494v2.529H148.04Zm32.254,15.28a1.773,1.773,0,0,1-1.782,1.757H148.672a1.771,1.771,0,0,1-1.774-1.757V411.257h10.09a5.349,5.349,0,0,0,5.3,4.741H168.2a5.34,5.34,0,0,0,5.286-4.741h10.1Z" transform="translate(0 0)" fill="url(#linear-gradient)"/>
  </g>
</svg>
