<svg xmlns="http://www.w3.org/2000/svg" xmlns:xlink="http://www.w3.org/1999/xlink" width="32.481" height="38.871" viewBox="0 0 32.481 38.871">
  <defs>
    <linearGradient id="linear-gradient" x1="0.5" x2="0.5" y2="1" gradientUnits="objectBoundingBox">
      <stop offset="0" stop-color="#d94141"/>
      <stop offset="1" stop-color="#f26a4b"/>
    </linearGradient>
  </defs>
  <g id="Group_110" data-name="Group 110" transform="translate(-1213 -395.065)">
    <path id="Path_119" data-name="Path 119" d="M1282.358,439.192a1.784,1.784,0,0,0,1.266-.524.569.569,0,0,0-.805-.8.653.653,0,0,1-.921,0,.569.569,0,0,0-.805.8A1.785,1.785,0,0,0,1282.358,439.192Z" transform="translate(-46.081 -28.922)" fill="url(#linear-gradient)"/>
    <path id="Path_120" data-name="Path 120" d="M1268.09,443.9a.652.652,0,0,1-.921,0,.569.569,0,0,0-.805.805,1.792,1.792,0,0,0,2.532,0,.569.569,0,0,0-.805-.805Z" transform="translate(-36.089 -33.018)" fill="url(#linear-gradient)"/>
    <path id="Path_121" data-name="Path 121" d="M1238.194,436.472h.839a.569.569,0,1,0,0-1.139h-.839a.569.569,0,0,0,0,1.139Z" transform="translate(-16.706 -27.318)" fill="url(#linear-gradient)"/>
    <path id="Path_122" data-name="Path 122" d="M1242.839,445.463a.57.57,0,0,0,.569.57h.839a.569.569,0,0,0,0-1.139h-.839A.569.569,0,0,0,1242.839,445.463Z" transform="translate(-20.243 -33.805)" fill="url(#linear-gradient)"/>
    <path id="Path_123" data-name="Path 123" d="M1228.923,445.743h.839a.569.569,0,1,0,0-1.139h-.839a.569.569,0,0,0,0,1.139Z" transform="translate(-10.416 -33.608)" fill="url(#linear-gradient)"/>
    <path id="Path_124" data-name="Path 124" d="M1282.249,447a.569.569,0,1,0,.569.57A.57.57,0,0,0,1282.249,447Z" transform="translate(-46.592 -35.234)" fill="url(#linear-gradient)"/>
    <path id="Path_125" data-name="Path 125" d="M1294.052,442.71a.569.569,0,1,0-.569-.569A.569.569,0,0,0,1294.052,442.71Z" transform="translate(-54.6 -31.55)" fill="url(#linear-gradient)"/>
    <circle id="Ellipse_32" data-name="Ellipse 32" cx="0.569" cy="0.569" r="0.569" transform="translate(1232.05 407.743)" fill="url(#linear-gradient)"/>
    <path id="Path_126" data-name="Path 126" d="M1257.46,482.253h3.113a.569.569,0,0,0,0-1.139h-3.113a.569.569,0,0,0,0,1.139Z" transform="translate(-29.776 -58.377)" fill="url(#linear-gradient)"/>
    <path id="Path_127" data-name="Path 127" d="M1261.374,487.724h-1.67a.57.57,0,0,0,0,1.139h1.67a.57.57,0,0,0,0-1.139Z" transform="translate(-31.298 -62.861)" fill="url(#linear-gradient)"/>
    <path id="Path_128" data-name="Path 128" d="M1250.47,434.347h.838a.569.569,0,1,0,0-1.139h-.838a.569.569,0,0,0,0,1.139Z" transform="translate(-25.034 -25.877)" fill="url(#linear-gradient)"/>
    <path id="Path_129" data-name="Path 129" d="M1243.051,414.07h-.136c.008-.151.013-.3.013-.455a8.471,8.471,0,0,0-2.865-6.353l2.02-2.928a.569.569,0,1,0-.937-.647l-1.985,2.877a8.459,8.459,0,0,0-1.175-.661,8.439,8.439,0,0,0-.522-2.684l2.742-5.776a2.173,2.173,0,1,1,3.752,2.167l-1.3,1.89a.57.57,0,1,0,.937.647l1.3-1.89a3.312,3.312,0,1,0-5.718-3.3l-2.343,4.935a8.487,8.487,0,0,0-15.67,2.67,8.488,8.488,0,0,0-5.908,9.51h-.238a2.019,2.019,0,0,0,0,4.038h.2l2.016,12.175a1.032,1.032,0,0,0,1.022.866h.053v1.837a.95.95,0,0,0,.949.949h19.551a.95.95,0,0,0,.949-.949V431.15h.053a1.032,1.032,0,0,0,1.022-.866l2.016-12.175h.2a2.019,2.019,0,0,0,0-4.039Zm-1.262-.455c0,.153-.006.3-.015.455h-2.667a.57.57,0,1,0-1.131,0h-8.055a.569.569,0,1,0-1.131,0H1227.1c-.01-.151-.015-.3-.015-.455a7.35,7.35,0,1,1,14.7,0Zm-4.972-8.149a8.5,8.5,0,0,0-4.379-.1l1.647-4.944A7.347,7.347,0,0,1,1236.817,405.466Zm-7.126-6.652a7.3,7.3,0,0,1,3.415.945l-2.019,6.058a1.965,1.965,0,0,1-3.513-.649Zm-1.224.071-1.939,5.82a8.489,8.489,0,0,0-4.133-.419A7.37,7.37,0,0,1,1228.467,398.885Zm-4.836,6.449a7.323,7.323,0,0,1,5.069,2.032,8.467,8.467,0,0,0-2.75,6.249q0,.23.013.455h-9.549a7.348,7.348,0,0,1,7.217-8.737Zm16.093,24.678h-2.967a.569.569,0,1,0,0,1.139h1.864V432.8h-19.172V431.15H1234.1a.569.569,0,1,0,0-1.139h-15.755l-.563-3.4h7.254a4.854,4.854,0,0,0,8.41,0h6.842Zm-14.2-5.831a3.72,3.72,0,1,1,3.72,3.72A3.725,3.725,0,0,1,1225.521,424.18Zm17.53-7.21h-18.29a.569.569,0,0,0,0,1.139H1241.7l-1.219,7.363h-6.552a4.859,4.859,0,1,0-9.367,0h-6.964l-1.219-7.363h5.73a.569.569,0,0,0,0-1.139h-7.085a.881.881,0,0,1,0-1.761h28.032a.881.881,0,1,1,0,1.761Z" transform="translate(0)" fill="url(#linear-gradient)"/>
  </g>
</svg>
