<svg xmlns="http://www.w3.org/2000/svg" xmlns:xlink="http://www.w3.org/1999/xlink" width="33.822" height="39.267" viewBox="0 0 33.822 39.267">
  <defs>
    <linearGradient id="linear-gradient" x1="0.5" x2="0.5" y2="1" gradientUnits="objectBoundingBox">
      <stop offset="0" stop-color="#d94141"/>
      <stop offset="1" stop-color="#f26a4b"/>
    </linearGradient>
  </defs>
  <g id="Group_290" data-name="Group 290" transform="translate(-1003.007 -1463.372)">
    <g id="Group_288" data-name="Group 288" transform="translate(1025.582 1491.392)">
      <path id="Path_366" data-name="Path 366" d="M1066.795,1534.71a.592.592,0,0,0-.591.6,5.145,5.145,0,0,1-5.13,5.121.577.577,0,0,0-.591.582.593.593,0,0,0,.591.6,6.328,6.328,0,0,0,6.322-6.3A.6.6,0,0,0,1066.795,1534.71Z" transform="translate(-1060.482 -1534.71)" fill="url(#linear-gradient)"/>
    </g>
    <g id="Group_289" data-name="Group 289" transform="translate(1003.007 1463.372)">
      <path id="Path_367" data-name="Path 367" d="M1028.152,1475.57a34.242,34.242,0,0,1,7.5-10.878.6.6,0,0,0,.168-.619.552.552,0,0,0-.486-.4c-.61-.089-14.868-2.015-21.949,5.262a29.865,29.865,0,0,0-9.757-2.4.64.64,0,0,0-.557.317.6.6,0,0,0,.054.637,24.427,24.427,0,0,1,4.371,12.5,6.4,6.4,0,0,0,2.1,5.033,7.2,7.2,0,0,0,4.573,1.467h.3c-.132.689-.282,1.235-.38,1.571a12.39,12.39,0,0,0-.362,1.394,9.018,9.018,0,0,0-.15,1.573,11.624,11.624,0,0,0,23.247,0C1036.83,1485.846,1031.515,1479.242,1028.152,1475.57Zm3.964-10.967a25.907,25.907,0,0,0-12.325,10.1,9.758,9.758,0,0,0-.593-1.005,12.64,12.64,0,0,0-4.7-4.2C1019.312,1464.868,1027.638,1464.443,1032.115,1464.6Zm-25.465,3.531c3.488.619,9.014,2.226,11.55,6.2,1.51,2.367,1.969,4.521,1.351,6.429a7.852,7.852,0,0,1-3.665,4.061C1016.232,1480.443,1015.19,1473.38,1006.651,1468.134Zm3.7,15.964a5.3,5.3,0,0,1-1.669-4.132,24.386,24.386,0,0,0-3.347-11.247c9.034,5.208,9.766,12.448,9.316,16.564A6.486,6.486,0,0,1,1010.351,1484.1Zm14.851,17.36a10.456,10.456,0,0,1-10.428-10.436,7.5,7.5,0,0,1,.132-1.36,10.133,10.133,0,0,1,.318-1.255,15.424,15.424,0,0,0,.5-2.172,9.255,9.255,0,0,0,4.962-5.1,7.51,7.51,0,0,0-.31-5.157,24.792,24.792,0,0,1,12.855-10.506,32.648,32.648,0,0,0-7.69,14.409c-.846,3.9-3.09,5.917-6.674,5.969a.592.592,0,0,0,.009,1.185h.009c2.9-.036,6.6-1.273,7.823-6.906a24.862,24.862,0,0,1,.962-3.32c3.25,3.6,7.973,9.625,7.973,14.217A10.457,10.457,0,0,1,1025.2,1501.457Z" transform="translate(-1003.007 -1463.372)" fill="url(#linear-gradient)"/>
    </g>
  </g>
</svg>
