<svg xmlns="http://www.w3.org/2000/svg" xmlns:xlink="http://www.w3.org/1999/xlink" width="40.5" height="40.513" viewBox="0 0 40.5 40.513">
  <defs>
    <linearGradient id="linear-gradient" x1="0.5" x2="0.5" y2="1" gradientUnits="objectBoundingBox">
      <stop offset="0" stop-color="#d94141"/>
      <stop offset="1" stop-color="#f26a4b"/>
    </linearGradient>
  </defs>
  <g id="Group_162" data-name="Group 162" transform="translate(-458.841 -1046.901)">
    <path id="Path_181" data-name="Path 181" d="M498.147,1069.035l-2.085-.547a16.464,16.464,0,0,0,0-2.676l2.085-.547a1.641,1.641,0,0,0,1.14-1.986l-.774-2.878a1.629,1.629,0,0,0-1.977-1.147l-2.076.565a17.043,17.043,0,0,0-1.33-2.313l1.511-1.513a1.606,1.606,0,0,0,.483-1.147,1.568,1.568,0,0,0-.483-1.13l-2.1-2.112a1.6,1.6,0,0,0-2.285,0l-1.522,1.511a17.2,17.2,0,0,0-2.3-1.33l.556-2.076a1.633,1.633,0,0,0-1.138-1.986l-2.887-.765a1.6,1.6,0,0,0-1.977,1.149l-.556,2.076a16.351,16.351,0,0,0-2.667,0l-.556-2.076a1.621,1.621,0,0,0-1.977-1.149l-2.878.765a1.631,1.631,0,0,0-1.147,1.986l.556,2.076a17.813,17.813,0,0,0-2.3,1.33l-1.522-1.511a1.606,1.606,0,0,0-2.286,0l-2.1,2.112a1.594,1.594,0,0,0,0,2.277l1.511,1.513a18.132,18.132,0,0,0-1.33,2.313l-2.076-.565a1.632,1.632,0,0,0-1.977,1.147l-.774,2.878a1.641,1.641,0,0,0,1.14,1.986l2.085.547a18.8,18.8,0,0,0,0,2.676l-2.085.547a1.641,1.641,0,0,0-1.14,1.986l.774,2.878a1.6,1.6,0,0,0,1.977,1.147l2.468-.656a.722.722,0,0,0,.283-.164l4-4.006a.6.6,0,0,0,.164-.584,10.927,10.927,0,0,1,13.37-13.187l-7.968,7.96a.63.63,0,0,0-.164.6,10.174,10.174,0,0,0,7.44,7.431.592.592,0,0,0,.591-.146l7.97-7.977a11.031,11.031,0,0,1-2.852,10.492,10.886,10.886,0,0,1-10.337,2.877.6.6,0,0,0-.591.164l-4,3.988a.663.663,0,0,0-.155.293l-.664,2.458a1.616,1.616,0,0,0,1.147,1.986l2.878.765a1.752,1.752,0,0,0,.42.073,1.565,1.565,0,0,0,.8-.218,1.635,1.635,0,0,0,.755-.985l.556-2.076a22.044,22.044,0,0,0,2.667,0l.556,2.076a1.6,1.6,0,0,0,1.977,1.13l2.887-.765a1.625,1.625,0,0,0,1.138-1.986l-.556-2.057a17.514,17.514,0,0,0,2.3-1.348l1.522,1.529a1.637,1.637,0,0,0,2.285,0l2.1-2.113a1.6,1.6,0,0,0,.483-1.147,1.639,1.639,0,0,0-.483-1.147l-1.511-1.513a17.043,17.043,0,0,0,1.33-2.313l2.076.565a1.606,1.606,0,0,0,1.977-1.147l.774-2.878a1.641,1.641,0,0,0-1.14-1.986Zm-.063,1.658-.774,2.878a.357.357,0,0,1-.455.272l-2.577-.692a.642.642,0,0,0-.737.347,15.839,15.839,0,0,1-1.722,3,.623.623,0,0,0,.054.8l1.895,1.893a.362.362,0,0,1,.109.256.369.369,0,0,1-.109.274l-2.113,2.095a.365.365,0,0,1-.52,0l-1.893-1.877a.625.625,0,0,0-.811-.073,14.208,14.208,0,0,1-2.986,1.731.621.621,0,0,0-.356.727l.692,2.587a.368.368,0,0,1-.263.455l-2.878.765a.363.363,0,0,1-.455-.255l-.692-2.585a.622.622,0,0,0-.6-.455h-.073a15.691,15.691,0,0,1-3.45,0,.616.616,0,0,0-.666.455l-.692,2.585a.372.372,0,0,1-.464.255l-2.878-.765a.3.3,0,0,1-.228-.183.351.351,0,0,1-.036-.272l.619-2.313,3.633-3.626a12.187,12.187,0,0,0,14.024-16.046.649.649,0,0,0-.446-.4.673.673,0,0,0-.582.183l-8.453,8.451a9.024,9.024,0,0,1-6.11-6.12l8.451-8.453a.634.634,0,0,0,.164-.582.607.607,0,0,0-.392-.438,12.264,12.264,0,0,0-12.75,2.843,12.129,12.129,0,0,0-3.287,11.165l-3.635,3.642-2.313.62a.36.36,0,0,1-.455-.272l-.774-2.878a.369.369,0,0,1,.263-.455l2.587-.692a.6.6,0,0,0,.455-.675,15.6,15.6,0,0,1,0-3.441.626.626,0,0,0-.455-.675l-2.587-.692a.37.37,0,0,1-.263-.455l.774-2.878a.389.389,0,0,1,.455-.272l2.587.692a.615.615,0,0,0,.727-.347,15.114,15.114,0,0,1,1.722-2.986.647.647,0,0,0-.054-.821l-1.9-1.893a.354.354,0,0,1,0-.511l2.1-2.114a.386.386,0,0,1,.537,0l1.886,1.9a.623.623,0,0,0,.811.054,16.213,16.213,0,0,1,2.986-1.731.612.612,0,0,0,.356-.727l-.692-2.587a.369.369,0,0,1,.263-.455l2.878-.765a.384.384,0,0,1,.464.272L476.7,1051a.6.6,0,0,0,.666.455,18.364,18.364,0,0,1,3.45,0,.611.611,0,0,0,.675-.455l.692-2.568a.375.375,0,0,1,.455-.272l2.878.765a.369.369,0,0,1,.263.455l-.692,2.587a.611.611,0,0,0,.356.727,15.923,15.923,0,0,1,2.986,1.731.623.623,0,0,0,.811-.054l1.893-1.9a.365.365,0,0,1,.52,0l2.113,2.114a.358.358,0,0,1,.109.255.31.31,0,0,1-.109.256L491.873,1057a.647.647,0,0,0-.054.821,15.691,15.691,0,0,1,1.722,2.986.622.622,0,0,0,.737.347l2.577-.692a.385.385,0,0,1,.455.272l.774,2.878a.369.369,0,0,1-.265.455l-2.585.692a.634.634,0,0,0-.455.675,15.6,15.6,0,0,1,0,3.441.61.61,0,0,0,.455.675l2.585.692A.369.369,0,0,1,498.084,1070.693Z" fill="url(#linear-gradient)"/>
  </g>
</svg>
