<svg xmlns="http://www.w3.org/2000/svg" xmlns:xlink="http://www.w3.org/1999/xlink" width="39.554" height="38.188" viewBox="0 0 39.554 38.188">
  <defs>
    <linearGradient id="linear-gradient" x1="0.5" x2="0.5" y2="1" gradientUnits="objectBoundingBox">
      <stop offset="0" stop-color="#d94141"/>
      <stop offset="1" stop-color="#f26a4b"/>
    </linearGradient>
  </defs>
  <path id="Path_174" data-name="Path 174" d="M783.482,849.123a4.091,4.091,0,0,0-4.038-6.993l-2.555-4.425a2.759,2.759,0,0,0-4.724-.092,40.6,40.6,0,0,1-12.3,12.438.659.659,0,0,0-.22.868c.027.049,4.258,7.377,4.286,7.426a.659.659,0,0,0,1.142-.659l-3.968-6.873a41.89,41.89,0,0,0,12.173-12.5,1.441,1.441,0,0,1,2.467.049l9.147,15.843a1.441,1.441,0,0,1-1.191,2.161,41.926,41.926,0,0,0-17.47,4.574c-.023.012-6.192,3.574-6.616,3.819a2.311,2.311,0,0,1-3.154-.846l-3.339-5.783a2.312,2.312,0,0,1,.845-3.154l4.019-2.32a.659.659,0,0,0-.659-1.142l-4.019,2.321a3.632,3.632,0,0,0-1.328,4.955l3.339,5.784a3.632,3.632,0,0,0,4.955,1.327l.152-.088,4.123,7.141a2.141,2.141,0,0,0,2.927.784l1.446-.835a2.142,2.142,0,0,0,.784-2.928l-2.922-5.061a.659.659,0,0,0-1.142.659l2.922,5.061a.824.824,0,0,1-.3,1.127l-1.446.835a.824.824,0,0,1-1.127-.3l-4.123-7.141,5.279-3.048a40.589,40.589,0,0,1,16.906-4.423,2.759,2.759,0,0,0,2.282-4.138Zm-.188-4.554a2.778,2.778,0,0,1-.484,3.389l-2.693-4.665a2.773,2.773,0,0,1,3.177,1.276Zm6.448-2.93-1.706.985a.659.659,0,1,1-.659-1.142l1.706-.985a.659.659,0,0,1,.659,1.142Zm-7.335-3.758.416-1.552a.659.659,0,0,1,1.273.341l-.416,1.552a.659.659,0,1,1-1.273-.341Zm8.622,10.8a.66.66,0,0,1-.636.489,10.766,10.766,0,0,1-1.724-.439.659.659,0,0,1,.341-1.273l1.552.415a.66.66,0,0,1,.466.808Zm0,0" transform="translate(-751.497 -835.841)" fill="url(#linear-gradient)"/>
</svg>
