<svg xmlns="http://www.w3.org/2000/svg" xmlns:xlink="http://www.w3.org/1999/xlink" width="44.17" height="44.17" viewBox="0 0 44.17 44.17">
  <defs>
    <linearGradient id="linear-gradient" x1="0.5" x2="0.5" y2="1" gradientUnits="objectBoundingBox">
      <stop offset="0" stop-color="#d94141"/>
      <stop offset="1" stop-color="#f26a4b"/>
    </linearGradient>
  </defs>
  <g id="Group_198" data-name="Group 198" transform="translate(-170.211 -617.821)">
    <path id="Path_241" data-name="Path 241" d="M220.307,672.9a5.067,5.067,0,0,0-3.578-5.584,5.066,5.066,0,0,0-9.717,0,5.067,5.067,0,1,0,4.858,8.6,5.069,5.069,0,0,0,8.437-3.013Zm-1.54-.4a3.489,3.489,0,0,1-6.266,1.772.788.788,0,0,0-1.261,0,3.489,3.489,0,1,1-3.431-5.523.788.788,0,0,0,.632-.632,3.488,3.488,0,0,1,6.859,0,.789.789,0,0,0,.632.632A3.489,3.489,0,0,1,218.767,672.5Z" transform="translate(-19.578 -27.071)" fill="url(#linear-gradient)"/>
    <path id="Path_242" data-name="Path 242" d="M205.822,648.72a3.415,3.415,0,0,0,1.135.2,3.051,3.051,0,0,0,1.531-.408A3.16,3.16,0,0,0,210,646.306a4.145,4.145,0,0,0-2.63-4.556,3.1,3.1,0,0,0-4.181,2.414A4.145,4.145,0,0,0,205.822,648.72Zm-1.08-4.266a1.6,1.6,0,0,1,.752-1.129,1.479,1.479,0,0,1,.746-.2,1.842,1.842,0,0,1,.608.108,2.572,2.572,0,0,1,1.6,2.779,1.53,1.53,0,0,1-2.106,1.216A2.571,2.571,0,0,1,204.742,644.455Z" transform="translate(-19.432 -14.005)" fill="url(#linear-gradient)"/>
    <path id="Path_243" data-name="Path 243" d="M195.925,664.276a3.81,3.81,0,0,0-5.735-4.935,3.158,3.158,0,0,0-.7,2.581,4.139,4.139,0,0,0,3.994,3.429A3.176,3.176,0,0,0,195.925,664.276Zm-1.195-1.029a2.029,2.029,0,0,1-2.832-.091,2.454,2.454,0,0,1-.849-1.472,1.532,1.532,0,0,1,1.582-1.846,2.476,2.476,0,0,1,1.587.622,2.029,2.029,0,0,1,.512,2.786Z" transform="translate(-11.354 -23.871)" fill="url(#linear-gradient)"/>
    <path id="Path_244" data-name="Path 244" d="M229.721,648.332a3.045,3.045,0,0,0,1.527.4,3.867,3.867,0,0,0,3.271-2,3.592,3.592,0,0,0-1.015-4.954,3.154,3.154,0,0,0-2.666-.209,4.029,4.029,0,0,0-2.131,1.808A3.593,3.593,0,0,0,229.721,648.332Zm.352-4.165a2.453,2.453,0,0,1,1.288-1.108,1.831,1.831,0,0,1,.608-.108,1.478,1.478,0,0,1,.746.2,2.257,2.257,0,1,1-2.642,1.021Z" transform="translate(-34.194 -13.899)" fill="url(#linear-gradient)"/>
    <path id="Path_245" data-name="Path 245" d="M241.163,661.019a3.1,3.1,0,0,0,3.142,3.659h.007a4.145,4.145,0,0,0,3.988-3.431h0a3.1,3.1,0,0,0-3.142-3.659h-.007A4.146,4.146,0,0,0,241.163,661.019Zm1.559.238a2.57,2.57,0,0,1,2.431-2.092h0a1.529,1.529,0,0,1,1.583,1.843h0a2.571,2.571,0,0,1-2.432,2.093h0a1.529,1.529,0,0,1-1.582-1.844Z" transform="translate(-41.852 -23.47)" fill="url(#linear-gradient)"/>
    <path id="Path_246" data-name="Path 246" d="M213.518,651.459a4.2,4.2,0,0,0-1.6-1.419,22.085,22.085,0,1,0-9.448,9.467L206,661.857a.789.789,0,0,0,.875,0l5.322-3.548a4.924,4.924,0,0,0,1.932-2.529,4.874,4.874,0,0,0-.572-4.271Zm-21.227,8.953A20.5,20.5,0,1,1,210.365,649.6c-.116-.01-.232-.016-.35-.016a4.207,4.207,0,0,0-1.663.341,18.907,18.907,0,1,0-8.731,7.437,4.881,4.881,0,0,0,1.051.947l.282.188A20.572,20.572,0,0,1,192.292,660.412Zm6.449-4.633c.023.07.048.139.075.209a17.369,17.369,0,1,1,6.986-5.2,4.21,4.21,0,0,0-6.455.665l-.034.05A4.871,4.871,0,0,0,198.741,655.779Zm13.887-.5a3.343,3.343,0,0,1-1.31,1.715l-4.885,3.257L201.547,657a3.333,3.333,0,0,1-.888-.879.785.785,0,0,0-.186-.3,3.308,3.308,0,0,1,.152-3.434l.034-.05a2.633,2.633,0,0,1,4.052-.4l1.163,1.164a.789.789,0,0,0,1.116,0l1.163-1.164a2.636,2.636,0,0,1,4.054.4l.033.05A3.308,3.308,0,0,1,212.628,655.281Z" transform="translate(0 0)" fill="url(#linear-gradient)"/>
  </g>
</svg>
