<svg xmlns="http://www.w3.org/2000/svg" xmlns:xlink="http://www.w3.org/1999/xlink" width="35.707" height="35.715" viewBox="0 0 35.707 35.715">
  <defs>
    <linearGradient id="linear-gradient" x1="0.5" x2="0.5" y2="1" gradientUnits="objectBoundingBox">
      <stop offset="0" stop-color="#d94141"/>
      <stop offset="1" stop-color="#f26a4b"/>
    </linearGradient>
  </defs>
  <g id="Group_196" data-name="Group 196" transform="translate(-1000.157 -1058.845)">
    <path id="Path_240" data-name="Path 240" d="M1034.242,1079.818a.548.548,0,0,0,.546-.546v-16.734a1.621,1.621,0,0,0,1.075-1.526v-.546a1.633,1.633,0,0,0-1.621-1.621h-32.464a1.632,1.632,0,0,0-1.621,1.621v.546a1.626,1.626,0,0,0,1.083,1.526v16.734a.541.541,0,0,0,.538.546h9.162v4.5a2.053,2.053,0,0,0-1.077-.306h-2.778a2.162,2.162,0,0,0-2.16,2.169v.995h-2.61a2.159,2.159,0,0,0-2.159,2.152v4.7a.537.537,0,0,0,.537.531h6.022a.539.539,0,0,0,.546-.531v-4.7a2.17,2.17,0,0,0-1.252-1.958v-1.189a1.076,1.076,0,0,1,1.075-1.076h2.778a1.076,1.076,0,0,1,1.077,1.076v1.189a2.183,2.183,0,0,0-1.253,1.958v4.7a.544.544,0,0,0,.546.531h6.022a.537.537,0,0,0,.538-.531v-4.7a2.169,2.169,0,0,0-1.253-1.958v-1.189a1.083,1.083,0,0,1,1.085-1.076h2.769a1.078,1.078,0,0,1,1.084,1.076v1.189a2.17,2.17,0,0,0-1.252,1.958v4.7a.537.537,0,0,0,.538.531h6.022a.537.537,0,0,0,.537-.531v-4.7a2.168,2.168,0,0,0-1.253-1.958v-1.189a1.083,1.083,0,0,1,1.086-1.076h2.778a1.083,1.083,0,0,1,1.083,1.076v1.189a2.171,2.171,0,0,0-1.253,1.958v4.7a.538.538,0,0,0,.539.531h6.022a.538.538,0,0,0,.537-.531v-4.7a2.161,2.161,0,0,0-2.169-2.152h-2.6v-.995a2.161,2.161,0,0,0-2.159-2.169h-2.778a2.106,2.106,0,0,0-1.086.306v-4.5Zm-28.063,13.665h-4.938v-4.159a1.076,1.076,0,0,1,1.075-1.076h2.779a1.083,1.083,0,0,1,1.084,1.076Zm28.61-4.159v4.159h-4.947v-4.159a1.083,1.083,0,0,1,1.084-1.076h2.769A1.085,1.085,0,0,1,1034.789,1089.324Zm-33.548-28.312v-.546a.536.536,0,0,1,.538-.53h32.464a.544.544,0,0,1,.546.53v.546a.547.547,0,0,1-.546.546h-32.464A.54.54,0,0,1,1001.24,1061.012Zm1.075,17.729v-16.107h31.379v16.107h-8.623v-1.2h1.052a.544.544,0,0,0,.546-.53v-3.325a.542.542,0,0,0-.546-.53h-7.572v-1.381a1.2,1.2,0,0,0,.676-1.092,1.221,1.221,0,0,0-2.442,0,1.212,1.212,0,0,0,.682,1.092v1.381H1009.9a.537.537,0,0,0-.546.53v3.325a.538.538,0,0,0,.546.53h1.044v1.2Zm8.119-2.279v-2.233h15.152v2.233Zm5.275,17.022h-4.938v-4.159a1.083,1.083,0,0,1,1.083-1.076h2.779a1.076,1.076,0,0,1,1.075,1.076Zm3.685-9.475h-2.769a2.164,2.164,0,0,0-2.169,2.169v.995h-2.424v-9.635H1024v9.635h-2.432v-.995A2.164,2.164,0,0,0,1019.4,1084.008Zm5.854,9.475h-4.938v-4.159a1.078,1.078,0,0,1,1.083-1.076h2.771a1.083,1.083,0,0,1,1.083,1.076Z" fill="url(#linear-gradient)"/>
  </g>
</svg>
