<svg xmlns="http://www.w3.org/2000/svg" xmlns:xlink="http://www.w3.org/1999/xlink" width="40.76" height="40.705" viewBox="0 0 40.76 40.705">
  <defs>
    <linearGradient id="linear-gradient" x1="0.5" x2="0.5" y2="1" gradientUnits="objectBoundingBox">
      <stop offset="0" stop-color="#d94141"/>
      <stop offset="1" stop-color="#f26a4b"/>
    </linearGradient>
  </defs>
  <g id="Group_225" data-name="Group 225" transform="translate(-1216.87 -836.448)">
    <path id="Path_283" data-name="Path 283" d="M1256.238,865.1l-18.9-18.875c3.617-4.745-1.46-8.566-7.907-4.568a4.484,4.484,0,0,1,.169-2.4,2.036,2.036,0,0,0-3.767-1.548c-.251.678-1.357,3.917.34,6.591-6.312,6.359-8.959,14.077-9.258,22.846-.109,3.116-.224,6.638,2.572,9.062a4.393,4.393,0,0,0,3.163.923,4.867,4.867,0,0,0,4.324-3.163c1.113-2.538.183-6.957.767-10.907a25.825,25.825,0,0,1,6.292-13.411l4.9,4.893-2.884,2.905a1.357,1.357,0,0,0,0,1.92l15.359,15.326a1.358,1.358,0,0,0,1.921,0l2.911-2.878a4.75,4.75,0,0,0,0-6.719ZM1227.1,838.192a.679.679,0,1,1,1.262.5,5.521,5.521,0,0,0-.095,3.76c-.373.278-.733.577-1.079.882A6.831,6.831,0,0,1,1227.1,838.192Zm-.726,24.685c-.442,3.021-.061,5.871-.258,8.823-.183,2.58-1.866,4.072-3.488,4.072a3.083,3.083,0,0,1-2.274-.59c-2.307-2-2.205-5.043-2.1-7.989.244-6.624,2.016-13.425,6.088-18.7,2.165-2.783,4.846-5.762,8.253-6.828a5.027,5.027,0,0,1,3.76.082,1.663,1.663,0,0,1,.821,1.208c.19,1.636-1.649,3.333-2.789,4.418A26.863,26.863,0,0,0,1226.375,862.878Zm25.989,10.86-15.373-15.346.977-.943,15.36,15.332Zm2.877-2.885-.957.964-1.194-1.195.434-2.993a.685.685,0,1,0-1.357-.19l-.285,2.036-1.2-1.2.434-3.027a.685.685,0,0,0-1.357-.19l-.292,2.036-1.2-1.195.434-3.027a.686.686,0,0,0-1.357-.2l-.286,2.036-1.167-1.29.435-3.027a.678.678,0,0,0-1.344-.19l-.279,2-5.769-5.742,1.439-1.432a.678.678,0,0,0,0-.964l-5.389-5.383c.57-.543,1-.957,1.46-1.432l18.8,18.815A3.393,3.393,0,0,1,1255.241,870.853Z" fill="url(#linear-gradient)"/>
    <path id="Path_284" data-name="Path 284" d="M1251.443,852.616a2.036,2.036,0,1,0,2.036,2.036A2.037,2.037,0,0,0,1251.443,852.616Zm0,2.715a.678.678,0,1,1,.679-.679A.678.678,0,0,1,1251.443,855.331Z" transform="translate(-18.96 -9.422)" fill="url(#linear-gradient)"/>
    <path id="Path_285" data-name="Path 285" d="M1227.045,916.054a2.036,2.036,0,1,0,2.036,2.036A2.036,2.036,0,0,0,1227.045,916.054Zm0,2.715a.679.679,0,1,1,.679-.679A.678.678,0,0,1,1227.045,918.769Z" transform="translate(-4.743 -46.389)" fill="url(#linear-gradient)"/>
  </g>
</svg>
