<svg xmlns="http://www.w3.org/2000/svg" xmlns:xlink="http://www.w3.org/1999/xlink" width="44.448" height="24.847" viewBox="0 0 44.448 24.847">
  <defs>
    <linearGradient id="linear-gradient" x1="0.5" x2="0.5" y2="1" gradientUnits="objectBoundingBox">
      <stop offset="0" stop-color="#d94141"/>
      <stop offset="1" stop-color="#f26a4b"/>
    </linearGradient>
  </defs>
  <path id="Path_192" data-name="Path 192" d="M490.116,1260.964h-.883v-3.282a3.522,3.522,0,0,0-3.518-3.518H472.962a3.516,3.516,0,0,0-2.868,1.483,3.515,3.515,0,0,0-2.867-1.483h-8.011a.651.651,0,1,0,0,1.3h8.011a2.219,2.219,0,0,1,2.216,2.216v6.512l-.042-.038a4.256,4.256,0,0,0-2.873-1.134H455.683a2.233,2.233,0,0,0-1.476-1.935,2.166,2.166,0,0,0-.722-.123h-1.226v-3.282a2.219,2.219,0,0,1,2.216-2.216h2.136a.651.651,0,1,0,0-1.3h-2.136a3.523,3.523,0,0,0-3.519,3.518v3.282h-.883a2.205,2.205,0,0,0-2.2,2.2v6.8a4.593,4.593,0,0,0,4.587,4.588h.327l-.714,1.919a1.9,1.9,0,0,0,1.765,2.538h1.048a1.891,1.891,0,0,0,1.5-.747l2.807-3.71H481l2.807,3.71a1.892,1.892,0,0,0,1.5.747h1.047a1.9,1.9,0,0,0,1.764-2.538l-.713-1.919h.327a4.593,4.593,0,0,0,4.588-4.588v-6.8A2.205,2.205,0,0,0,490.116,1260.964Zm-17.153-5.5h12.752a2.219,2.219,0,0,1,2.216,2.216v3.282H486.7a2.254,2.254,0,0,0-2.032,1.353,2.19,2.19,0,0,0-.166.7H473.661a4.272,4.272,0,0,0-2.915,1.173v-6.512A2.219,2.219,0,0,1,472.962,1255.466Zm-3.519,11.773v.926H455.688v-3.841h10.841A2.919,2.919,0,0,1,469.444,1267.24Zm-14.1,10.239a.584.584,0,0,1-.463.23h-1.048a.585.585,0,0,1-.544-.783l.882-2.373h3.384Zm31.55-.552a.586.586,0,0,1-.544.783h-1.047a.584.584,0,0,1-.463-.23l-2.212-2.925h3.384Zm4.12-6.96a3.289,3.289,0,0,1-3.285,3.286H452.458a3.289,3.289,0,0,1-3.285-3.286v-6.8a.9.9,0,0,1,.9-.9h3.411a.9.9,0,0,1,.9.9v5.649a.651.651,0,0,0,.651.651h23.915a.651.651,0,1,0,0-1.3h-8.206v-.926a2.919,2.919,0,0,1,2.915-2.916H484.5v3.841h-2.946a.651.651,0,1,0,0,1.3h3.6a.651.651,0,0,0,.651-.651v-5.649a.9.9,0,0,1,.9-.9h3.411a.9.9,0,0,1,.9.9v6.8Z" transform="translate(-447.871 -1254.164)" fill="url(#linear-gradient)"/>
</svg>
