<svg xmlns="http://www.w3.org/2000/svg" xmlns:xlink="http://www.w3.org/1999/xlink" width="39.355" height="39.36" viewBox="0 0 39.355 39.36">
  <defs>
    <linearGradient id="linear-gradient" x1="0.5" x2="0.5" y2="1" gradientUnits="objectBoundingBox">
      <stop offset="0" stop-color="#d94141"/>
      <stop offset="1" stop-color="#f26a4b"/>
    </linearGradient>
  </defs>
  <path id="Path_368" data-name="Path 368" d="M1256.6,1472.351a.658.658,0,0,0-.612-.066l-3.161,1.265h-2.5a.655.655,0,0,0-.622.449l-.564,1.692-1.581.7-9.642,4.287a5.449,5.449,0,0,0-4.336-.489l-.309-.027v-.962l2.261-1.127a.675.675,0,0,0,.171-.123l6.934-6.937.131-.131,3.729-.622a.655.655,0,0,0,.438-.283l1.312-1.968a.656.656,0,0,0-.545-1.021H1242.5a2.417,2.417,0,0,0-1.644.643l-.558.515-7.273,6.713h-.033a2.936,2.936,0,0,0,.328-.566l.5-1.192.262-.619a2.92,2.92,0,0,0,.2-1.59,1.968,1.968,0,1,0-1.628-2.208c-.045-.022-.085-.052-.131-.071a2.913,2.913,0,0,0-.5-.156l-.116-.026a3,3,0,0,0-.46-.045c-.057,0-.113,0-.169,0a2.859,2.859,0,0,0-.367.035c-.073.012-.144.027-.215.043a3.069,3.069,0,0,0-.318.094c-.063.022-.124.045-.185.071a3,3,0,0,0-.354.181l-.008.007a2.929,2.929,0,0,0-1.177,1.357l-.767,1.812c-.015.033-.02.07-.033.1l-2.682-4.023a2.416,2.416,0,0,0-2.019-1.081h-4.958a.656.656,0,0,0-.622.863l.656,1.968a.655.655,0,0,0,.513.439l3.621.6,3.637,6.664-.108.269a3.869,3.869,0,0,0,1.674,4.772l1.793,2.988.751,11.647.551,8.527a.656.656,0,0,0,.652.614h1.968a.656.656,0,0,0,.643-.524l.631-3.153,1.239-1.86a.656.656,0,0,0,0-.728l-1.19-1.785.066-1.092.557-9.478,14.528-8.019,4.152-2.291,2.624-1.312a.656.656,0,0,0,.363-.587v-2.624a.657.657,0,0,0-.288-.543Zm-14.864-3.753a1.107,1.107,0,0,1,.757-.295h3.986l-.475.711-3.655.609a.273.273,0,0,0-.043.009l-.69-.919Zm-10.535,1.119a1.6,1.6,0,0,1,.277-.013.84.84,0,0,1,.109.011,1.6,1.6,0,0,1,.412.107h0a1.625,1.625,0,0,1,.878.9,1.73,1.73,0,0,1,.086.292c.006.033.008.066.013.1a1.645,1.645,0,0,1,.018.2.929.929,0,0,1,0,.116,1.757,1.757,0,0,1-.02.184c-.007.039-.016.079-.026.118s-.018.056-.026.083l-.217-.16a5.906,5.906,0,0,1-1.637-1.91,1.185,1.185,0,0,1,.134-.02Zm3.385-1.414a.656.656,0,1,1-.656.656.656.656,0,0,1,.656-.656Zm-5.5,4.2.768-1.812a1.45,1.45,0,0,1,.131-.21,7.194,7.194,0,0,0,1.932,2.219l.493.369-.3.721a1.64,1.64,0,1,1-3.019-1.28Zm-9.987-4.2h4.048a1.11,1.11,0,0,1,.536.137l-1.127,1.127-3.214-.535Zm14.286,33.743a.66.66,0,0,0-.1.236l-.551,2.752h-.815l-.466-7.215h1.856l-.038.617a.657.657,0,0,0,.109.4l1.072,1.6Zm.885-15.3a.656.656,0,0,0-.338.535l-.542,9.222h-2.017l-.722-11.192a.654.654,0,0,0-.092-.3l-1.968-3.28a.657.657,0,0,0-.269-.249,2.546,2.546,0,0,1-1.218-3.2l.222-.557a.655.655,0,0,0-.033-.557l-3.7-6.784.924-.923,4.279,6.418a.656.656,0,0,0,.546.292h3.935a.655.655,0,0,0,.445-.174l6.928-6.395.664.885-6.456,6.456-2.528,1.264a.655.655,0,0,0-.363.587v1.968a.656.656,0,0,0,.6.656l1.035.092a.668.668,0,0,0,.266-.031,4.156,4.156,0,0,1,3.64.488.657.657,0,0,0,.63.054l9.484-4.216.149.2.689.918Zm21.307-11.638-2.285,1.144-3.673,2.028-.769-1.025,1.092-.485a.656.656,0,0,0,.356-.394l.5-1.518h2.151a.663.663,0,0,0,.244-.047l2.38-.952Zm0,0" transform="translate(-1217.537 -1466.986)" fill="url(#linear-gradient)"/>
</svg>
