<svg xmlns="http://www.w3.org/2000/svg" xmlns:xlink="http://www.w3.org/1999/xlink" width="40.168" height="25.369" viewBox="0 0 40.168 25.369">
  <defs>
    <linearGradient id="linear-gradient" x1="0.5" x2="0.5" y2="1" gradientUnits="objectBoundingBox">
      <stop offset="0" stop-color="#d94141"/>
      <stop offset="1" stop-color="#f26a4b"/>
    </linearGradient>
  </defs>
  <path id="Path_190" data-name="Path 190" d="M496.872,858.105a1.022,1.022,0,0,0-1.015-.042l-9.048,4.524v-1.458a4.24,4.24,0,0,0-4.228-4.228H461.44a4.24,4.24,0,0,0-4.228,4.228v16.913a4.24,4.24,0,0,0,4.228,4.228h21.141a4.24,4.24,0,0,0,4.228-4.228v-1.458l9.048,4.524a1.153,1.153,0,0,0,.465.106,1.023,1.023,0,0,0,.55-.148,1.1,1.1,0,0,0,.508-.909V859.014A1.1,1.1,0,0,0,496.872,858.105ZM484.7,878.041a2.12,2.12,0,0,1-2.114,2.114H461.44a2.12,2.12,0,0,1-2.114-2.114V861.128a2.12,2.12,0,0,1,2.114-2.114h21.141a2.12,2.12,0,0,1,2.114,2.114v16.913Zm10.571.4-8.456-4.228v-9.26l8.456-4.228Z" transform="translate(-457.212 -856.9)" fill="url(#linear-gradient)"/>
</svg>
