<svg xmlns="http://www.w3.org/2000/svg" xmlns:xlink="http://www.w3.org/1999/xlink" width="41.959" height="24.327" viewBox="0 0 41.959 24.327">
  <defs>
    <linearGradient id="linear-gradient" x1="0.5" x2="0.5" y2="1" gradientUnits="objectBoundingBox">
      <stop offset="0" stop-color="#d94141"/>
      <stop offset="1" stop-color="#f26a4b"/>
    </linearGradient>
  </defs>
  <g id="Group_207" data-name="Group 207" transform="translate(-997.711 -669.544)">
    <path id="Path_259" data-name="Path 259" d="M1038.024,674.756h-3.274V672.83a3.3,3.3,0,0,0-3.286-3.286h-1.633a3.3,3.3,0,0,0-3.287,3.286v4.8h-15.707v-4.8a3.3,3.3,0,0,0-3.287-3.286h-1.643a3.293,3.293,0,0,0-3.276,3.286v1.925h-3.286a1.632,1.632,0,0,0-1.634,1.631v10.665a1.63,1.63,0,0,0,1.634,1.631h3.286v1.925a3.274,3.274,0,0,0,3.276,3.264h1.643a3.277,3.277,0,0,0,3.287-3.264v-4.8h15.707v4.8a3.277,3.277,0,0,0,3.287,3.264h1.633a3.276,3.276,0,0,0,3.286-3.264v-1.925h3.274a1.633,1.633,0,0,0,1.646-1.631V676.386A1.635,1.635,0,0,0,1038.024,674.756Zm-38.68,12.3V676.386h3.286v10.665Zm9.849,3.556a1.634,1.634,0,0,1-1.644,1.631h-1.643a1.632,1.632,0,0,1-1.633-1.631V672.83a1.632,1.632,0,0,1,1.633-1.631h1.643a1.634,1.634,0,0,1,1.644,1.631v17.777Zm1.643-6.429v-4.919h15.707v4.919Zm22.27,6.429a1.634,1.634,0,0,1-1.643,1.631h-1.633a1.634,1.634,0,0,1-1.644-1.631V672.83a1.634,1.634,0,0,1,1.644-1.631h1.633a1.634,1.634,0,0,1,1.643,1.631v17.777Zm1.643-3.556V676.386h3.274l.012,10.665Z" transform="translate(0)" fill="url(#linear-gradient)"/>
  </g>
</svg>
