<svg fill="none" height="21" viewBox="0 0 20 21" width="20" xmlns="http://www.w3.org/2000/svg"><path d="m10.16.75c-1.92833 0-3.81339.57183-5.41677 1.64317s-2.85306 2.59409-3.59102 4.37567c-.737951 1.78158-.931034 3.74196-.554828 5.63326s1.304808 3.6286 2.668368 4.9922 3.10084 2.2922 4.99216 2.6684c1.89129.3762 3.85169.1831 5.63329-.5549 1.7816-.7379 3.3043-1.9876 4.3757-3.591 1.0713-1.6034 1.6431-3.4884 1.6431-5.4168-.0027-2.58502-1.0308-5.06339-2.8587-6.89128-1.8279-1.82788-4.3062-2.85599-6.8913-2.85872zm0 18c-1.63166 0-3.22671-.4839-4.58342-1.3904-1.3567-.9065-2.41412-2.195-3.03855-3.7025-.62442-1.5075-.7878-3.1663-.46947-4.7666.31833-1.60034 1.10406-3.07035 2.25785-4.22413 1.15378-1.15378 2.62379-1.93952 4.22413-2.25785 1.60036-.31833 3.25916-.15495 4.76666.46947 1.5075.62443 2.7959 1.68185 3.7025 3.03856.9065 1.3567 1.3903 2.95175 1.3903 4.58345-.0024 2.1873-.8724 4.2843-2.4191 5.8309-1.5466 1.5466-3.6436 2.4166-5.8309 2.4191zm4.5-8.25c0 .1989-.079.3897-.2196.5303-.1407.1407-.3314.2197-.5304.2197h-5.68965l1.72031 1.7194c.06964.0697.12494.1524.16264.2434.0377.0911.0572.1887.0572.2872s-.0195.1961-.0572.2872c-.0377.091-.093.1737-.16264.2434-.06968.0697-.1524.125-.24345.1627-.09104.0377-.18863.0571-.28717.0571-.09855 0-.19613-.0194-.28717-.0571-.09105-.0377-.17377-.093-.24346-.1627l-3-3c-.06973-.0696-.12505-.1523-.16279-.2434-.03774-.091-.05717-.1886-.05717-.2872s.01943-.1962.05717-.2872c.03774-.0911.09306-.1738.16279-.24343l3-3c.14073-.14073.33161-.21979.53063-.21979s.38989.07906.53062.21979c.14074.14074.21984.33161.21984.53063s-.0791.38989-.21984.53063l-1.72031 1.71937h5.68965c.199 0 .3897.07902.5304.21967.1406.14063.2196.33143.2196.53033z" fill="#f26a4b"/></svg>