<svg width="18" height="10" viewBox="0 0 18 10" fill="none" xmlns="http://www.w3.org/2000/svg">
<path d="M17.0306 2.03055L9.53061 9.53055C9.46096 9.60029 9.37824 9.65561 9.2872 9.69335C9.19615 9.73109 9.09855 9.75052 8.99999 9.75052C8.90143 9.75052 8.80383 9.73109 8.71278 9.69335C8.62174 9.65561 8.53902 9.60029 8.46936 9.53055L0.969365 2.03055C0.828634 1.88982 0.749573 1.69895 0.749573 1.49993C0.749573 1.30091 0.828634 1.11003 0.969365 0.969303C1.1101 0.828573 1.30097 0.749512 1.49999 0.749512C1.69901 0.749512 1.88988 0.828573 2.03061 0.969303L8.99999 7.93962L15.9694 0.969303C16.039 0.899621 16.1218 0.844345 16.2128 0.806633C16.3039 0.768921 16.4014 0.749512 16.5 0.749512C16.5985 0.749512 16.6961 0.768921 16.7872 0.806633C16.8782 0.844345 16.9609 0.899621 17.0306 0.969303C17.1003 1.03899 17.1556 1.12171 17.1933 1.21276C17.231 1.3038 17.2504 1.40138 17.2504 1.49993C17.2504 1.59847 17.231 1.69606 17.1933 1.7871C17.1556 1.87815 17.1003 1.96087 17.0306 2.03055Z" fill="#ED3A11"/>
</svg>
