<svg width="38" height="38" viewBox="0 0 38 38" fill="none" xmlns="http://www.w3.org/2000/svg">
<path d="M37.0241 8.23319C36.8962 8.08023 36.7364 7.9572 36.5558 7.87279C36.3752 7.78838 36.1783 7.74465 35.979 7.74468H8.52024L7.6879 3.17277C7.57389 2.54525 7.24327 1.97765 6.75366 1.56892C6.26406 1.1602 5.64654 0.936265 5.00875 0.936172H1.93641C1.57526 0.936172 1.22891 1.07964 0.97354 1.33501C0.718172 1.59037 0.574707 1.93673 0.574707 2.29787C0.574707 2.65902 0.718172 3.00537 0.97354 3.26074C1.22891 3.51611 1.57526 3.65958 1.93641 3.65958H5.00024L9.35088 27.5387C9.47903 28.2469 9.792 28.9087 10.2581 29.457C9.61479 30.0579 9.15045 30.8252 8.91659 31.6739C8.68273 32.5226 8.68849 33.4194 8.93322 34.265C9.17796 35.1106 9.65211 35.8719 10.3031 36.4645C10.9541 37.057 11.7565 37.4577 12.6213 37.6221C13.4861 37.7865 14.3795 37.7082 15.2025 37.3958C16.0255 37.0834 16.746 36.5492 17.2839 35.8524C17.8218 35.1556 18.1562 34.3234 18.2501 33.4481C18.3439 32.5728 18.1935 31.6886 17.8156 30.8936H25.5466C25.242 31.5314 25.0843 32.2294 25.0853 32.9362C25.0853 33.8788 25.3649 34.8002 25.8886 35.584C26.4122 36.3678 27.1566 36.9786 28.0274 37.3393C28.8983 37.7001 29.8566 37.7944 30.7811 37.6106C31.7056 37.4267 32.5548 36.9727 33.2213 36.3062C33.8879 35.6397 34.3418 34.7905 34.5257 33.866C34.7096 32.9415 34.6152 31.9832 34.2545 31.1123C33.8937 30.2415 33.2829 29.4971 32.4991 28.9734C31.7154 28.4497 30.7939 28.1702 29.8513 28.1702H13.3696C13.0507 28.1702 12.7419 28.0582 12.4971 27.8538C12.2523 27.6495 12.087 27.3657 12.03 27.0519L11.4905 24.0851H31.2351C32.1918 24.085 33.1181 23.7491 33.8525 23.136C34.5869 22.5229 35.0828 21.6715 35.2539 20.7302L37.3236 9.34979C37.3587 9.15309 37.35 8.95109 37.2982 8.75812C37.2465 8.56515 37.1529 8.38594 37.0241 8.23319ZM15.5534 32.9362C15.5534 33.3401 15.4336 33.7351 15.2092 34.071C14.9848 34.4068 14.6658 34.6686 14.2925 34.8232C13.9193 34.9778 13.5086 35.0183 13.1124 34.9395C12.7162 34.8607 12.3522 34.6661 12.0666 34.3805C11.7809 34.0948 11.5864 33.7309 11.5076 33.3347C11.4288 32.9384 11.4692 32.5278 11.6238 32.1545C11.7784 31.7813 12.0402 31.4623 12.3761 31.2379C12.712 31.0134 13.1069 30.8936 13.5109 30.8936C14.0526 30.8936 14.5721 31.1088 14.9552 31.4919C15.3382 31.8749 15.5534 32.3945 15.5534 32.9362ZM31.8939 32.9362C31.8939 33.3401 31.7741 33.7351 31.5496 34.071C31.3252 34.4068 31.0062 34.6686 30.633 34.8232C30.2597 34.9778 29.849 35.0183 29.4528 34.9395C29.0566 34.8607 28.6927 34.6661 28.407 34.3805C28.1213 34.0948 27.9268 33.7309 27.848 33.3347C27.7692 32.9384 27.8096 32.5278 27.9642 32.1545C28.1188 31.7813 28.3806 31.4623 28.7165 31.2379C29.0524 31.0134 29.4473 30.8936 29.8513 30.8936C30.393 30.8936 30.9126 31.1088 31.2956 31.4919C31.6787 31.8749 31.8939 32.3945 31.8939 32.9362ZM32.5747 20.2434C32.5175 20.558 32.3515 20.8425 32.1056 21.047C31.8598 21.2514 31.5498 21.3629 31.23 21.3617H10.9951L9.01556 10.4681H34.3466L32.5747 20.2434Z" fill="#ED3A11"/>
</svg>
