<svg fill="none" height="26" viewBox="0 0 26 26" width="26" xmlns="http://www.w3.org/2000/svg"><path d="m18.7075 9.2925c.093.09287.1667.20316.2171.32456.0503.1214.0762.25152.0762.38294 0 .1314-.0259.2615-.0762.3829-.0504.1214-.1241.2317-.2171.3246l-7 7c-.0929.093-.2032.1667-.3246.2171-.1214.0503-.2515.0762-.3829.0762s-.2615-.0259-.3829-.0762c-.1214-.0504-.2317-.1241-.3246-.2171l-2.99999-3c-.18765-.1876-.29306-.4421-.29306-.7075s.10541-.5199.29306-.7075c.18764-.1876.44213-.2931.7075-.2931.26536 0 .51986.1055.7075.2931l2.29249 2.2938 6.2925-6.2938c.0929-.09298.2032-.16674.3246-.21706s.2515-.07623.3829-.07623.2615.02591.3829.07623.2317.12408.3246.21706zm7.2925 3.7075c0 2.5712-.7624 5.0846-2.1909 7.2224-1.4284 2.1379-3.4588 3.8041-5.8342 4.788-2.3754.984-4.9893 1.2414-7.5111.7398-2.52172-.5016-4.8381-1.7397-6.65618-3.5578-1.81809-1.8181-3.056215-4.1345-3.557823-6.6562-.501608-2.5218-.2441643-5.1356.739775-7.51108.983938-2.37544 2.650178-4.40577 4.788018-5.83422 2.13784-1.428463 4.65121-2.1909 7.22241-2.1909 3.4467.00363977 6.7512 1.37445 9.1884 3.81163 2.4372 2.43719 3.808 5.74167 3.8116 9.18837zm-2 0c0-2.1756-.6451-4.30233-1.8538-6.11127s-2.9267-3.21884-4.9367-4.0514c-2.01-.83257-4.2217-1.05041-6.3555-.62597-2.13378.42444-4.09379 1.47209-5.63217 3.01047-1.53838 1.53837-2.58602 3.49839-3.01046 5.63217-.42444 2.1338-.2066 4.3455.62596 6.3555s2.24246 3.728 4.0514 4.9367 3.93567 1.8538 6.11127 1.8538c2.9164-.0033 5.7123-1.1633 7.7745-3.2255s3.2222-4.8581 3.2255-7.7745z" fill="#f26a4b"/></svg>