<svg width="20" height="19" viewBox="0 0 20 19" fill="none" xmlns="http://www.w3.org/2000/svg">
<path d="M17.5 0.346832H2.5C1.90326 0.346832 1.33097 0.583885 0.90901 1.00584C0.487053 1.4278 0.25 2.0001 0.25 2.59683V13.0968C0.25 13.6936 0.487053 14.2659 0.90901 14.6878C1.33097 15.1098 1.90326 15.3468 2.5 15.3468H9.25V16.8468H7C6.80109 16.8468 6.61032 16.9258 6.46967 17.0665C6.32902 17.2072 6.25 17.3979 6.25 17.5968C6.25 17.7957 6.32902 17.9865 6.46967 18.1272C6.61032 18.2678 6.80109 18.3468 7 18.3468H13C13.1989 18.3468 13.3897 18.2678 13.5303 18.1272C13.671 17.9865 13.75 17.7957 13.75 17.5968C13.75 17.3979 13.671 17.2072 13.5303 17.0665C13.3897 16.9258 13.1989 16.8468 13 16.8468H10.75V15.3468H17.5C18.0967 15.3468 18.669 15.1098 19.091 14.6878C19.5129 14.2659 19.75 13.6936 19.75 13.0968V2.59683C19.75 2.0001 19.5129 1.4278 19.091 1.00584C18.669 0.583885 18.0967 0.346832 17.5 0.346832ZM2.5 1.84683H17.5C17.6989 1.84683 17.8897 1.92585 18.0303 2.0665C18.171 2.20715 18.25 2.39792 18.25 2.59683V10.0968H1.75V2.59683C1.75 2.39792 1.82902 2.20715 1.96967 2.0665C2.11032 1.92585 2.30109 1.84683 2.5 1.84683ZM17.5 13.8468H2.5C2.30109 13.8468 2.11032 13.7678 1.96967 13.6272C1.82902 13.4865 1.75 13.2957 1.75 13.0968V11.5968H18.25V13.0968C18.25 13.2957 18.171 13.4865 18.0303 13.6272C17.8897 13.7678 17.6989 13.8468 17.5 13.8468Z" fill="#FEF0ED"/>
</svg>
