<svg fill="none" height="34" viewBox="0 0 44 34" width="44" xmlns="http://www.w3.org/2000/svg"><path d="m39 6.5h-3v-1.5c0-1.19347-.4741-2.33807-1.318-3.18198-.8439-.843914-1.9885-1.31802-3.182-1.31802h-27c-1.19347 0-2.33807.474106-3.18198 1.31802-.843914.84391-1.31802 1.98851-1.31802 3.18198v18c0 1.1935.474106 2.3381 1.31802 3.182.84391.8439 1.98851 1.318 3.18198 1.318h21v1.5c0 1.1935.4741 2.3381 1.318 3.182s1.9885 1.318 3.182 1.318h9c1.1935 0 2.3381-.4741 3.182-1.318s1.318-1.9885 1.318-3.182v-18c0-1.19347-.4741-2.33807-1.318-3.18198s-1.9885-1.31802-3.182-1.31802zm-34.5 18c-.39782 0-.77936-.158-1.06066-.4393s-.43934-.6629-.43934-1.0607v-18c0-.39782.15804-.77936.43934-1.06066s.66284-.43934 1.06066-.43934h27c.3978 0 .7794.15804 1.0607.43934s.4393.66284.4393 1.06066v1.5h-3c-1.1935 0-2.3381.47411-3.182 1.31802s-1.318 1.98851-1.318 3.18198v13.5zm36 4.5c0 .3978-.158.7794-.4393 1.0607s-.6629.4393-1.0607.4393h-9c-.3978 0-.7794-.158-1.0607-.4393s-.4393-.6629-.4393-1.0607v-18c0-.3978.158-.7794.4393-1.06066.2813-.2813.6629-.43934 1.0607-.43934h9c.3978 0 .7794.15804 1.0607.43934.2813.28126.4393.66286.4393 1.06066zm-18 3c0 .3978-.158.7794-.4393 1.0607s-.6629.4393-1.0607.4393h-7.5c-.3978 0-.7794-.158-1.0607-.4393s-.4393-.6629-.4393-1.0607.158-.7794.4393-1.0607.6629-.4393 1.0607-.4393h7.5c.3978 0 .7794.158 1.0607.4393s.4393.6629.4393 1.0607zm15-18c0 .3978-.158.7794-.4393 1.0607s-.6629.4393-1.0607.4393h-3c-.3978 0-.7794-.158-1.0607-.4393s-.4393-.6629-.4393-1.0607.158-.7794.4393-1.0607.6629-.4393 1.0607-.4393h3c.3978 0 .7794.158 1.0607.4393s.4393.6629.4393 1.0607z"/></svg>