<svg width="22" height="27" viewBox="0 0 22 27" fill="none" xmlns="http://www.w3.org/2000/svg">
<path d="M21.7075 7.48616L14.7075 0.486165C14.6146 0.39333 14.5042 0.319717 14.3829 0.269528C14.2615 0.21934 14.1314 0.193562 14 0.193665H2C1.46957 0.193665 0.960859 0.404378 0.585786 0.779451C0.210714 1.15452 0 1.66323 0 2.19366V24.1937C0 24.7241 0.210714 25.2328 0.585786 25.6079C0.960859 25.983 1.46957 26.1937 2 26.1937H20C20.5304 26.1937 21.0391 25.983 21.4142 25.6079C21.7893 25.2328 22 24.7241 22 24.1937V8.19366C22.0001 8.0623 21.9743 7.93221 21.9241 7.81082C21.8739 7.68942 21.8003 7.5791 21.7075 7.48616ZM15 3.60741L18.5863 7.19367H15V3.60741ZM20 24.1937H2V2.19366H13V8.19366C13 8.45888 13.1054 8.71323 13.2929 8.90077C13.4804 9.08831 13.7348 9.19366 14 9.19366H20V24.1937ZM16 14.1937C16 14.4589 15.8946 14.7132 15.7071 14.9008C15.5196 15.0883 15.2652 15.1937 15 15.1937H7C6.73478 15.1937 6.48043 15.0883 6.29289 14.9008C6.10536 14.7132 6 14.4589 6 14.1937C6 13.9284 6.10536 13.6741 6.29289 13.4866C6.48043 13.299 6.73478 13.1937 7 13.1937H15C15.2652 13.1937 15.5196 13.299 15.7071 13.4866C15.8946 13.6741 16 13.9284 16 14.1937ZM16 18.1937C16 18.4589 15.8946 18.7132 15.7071 18.9008C15.5196 19.0883 15.2652 19.1937 15 19.1937H7C6.73478 19.1937 6.48043 19.0883 6.29289 18.9008C6.10536 18.7132 6 18.4589 6 18.1937C6 17.9284 6.10536 17.6741 6.29289 17.4866C6.48043 17.299 6.73478 17.1937 7 17.1937H15C15.2652 17.1937 15.5196 17.299 15.7071 17.4866C15.8946 17.6741 16 17.9284 16 18.1937Z" fill="#F26A4B"/>
</svg>
