<svg width="19" height="20" viewBox="0 0 19 20" fill="none" xmlns="http://www.w3.org/2000/svg">
<path d="M18.0153 8.29062L10.5153 1.21437C10.5116 1.21118 10.5082 1.20773 10.505 1.20406C10.2289 0.952937 9.86903 0.813782 9.49578 0.813782C9.12253 0.813782 8.7627 0.952937 8.48656 1.20406L8.47625 1.21437L0.984687 8.29062C0.831873 8.43114 0.709891 8.60186 0.626461 8.79195C0.543031 8.98205 0.499968 9.1874 0.5 9.395V18.0622C0.5 18.46 0.658035 18.8415 0.93934 19.1228C1.22064 19.4042 1.60218 19.5622 2 19.5622H6.5C6.89782 19.5622 7.27936 19.4042 7.56066 19.1228C7.84196 18.8415 8 18.46 8 18.0622V13.5622H11V18.0622C11 18.46 11.158 18.8415 11.4393 19.1228C11.7206 19.4042 12.1022 19.5622 12.5 19.5622H17C17.3978 19.5622 17.7794 19.4042 18.0607 19.1228C18.342 18.8415 18.5 18.46 18.5 18.0622V9.395C18.5 9.1874 18.457 8.98205 18.3735 8.79195C18.2901 8.60186 18.1681 8.43114 18.0153 8.29062ZM17 18.0622H12.5V13.5622C12.5 13.1644 12.342 12.7828 12.0607 12.5015C11.7794 12.2202 11.3978 12.0622 11 12.0622H8C7.60218 12.0622 7.22064 12.2202 6.93934 12.5015C6.65804 12.7828 6.5 13.1644 6.5 13.5622V18.0622H2V9.395L2.01031 9.38562L9.5 2.31219L16.9906 9.38375L17.0009 9.39312L17 18.0622Z" fill="#F26A4B"/>
</svg>
