<svg width="20" height="20" viewBox="0 0 20 20" fill="none" xmlns="http://www.w3.org/2000/svg">
<path d="M11.5 14.5C11.5 14.6989 11.421 14.8897 11.2803 15.0303C11.1397 15.171 10.9489 15.25 10.75 15.25C10.3522 15.25 9.97065 15.092 9.68934 14.8107C9.40804 14.5294 9.25 14.1478 9.25 13.75V10C9.05109 10 8.86033 9.92098 8.71967 9.78033C8.57902 9.63968 8.5 9.44891 8.5 9.25C8.5 9.05109 8.57902 8.86032 8.71967 8.71967C8.86033 8.57902 9.05109 8.5 9.25 8.5C9.64783 8.5 10.0294 8.65804 10.3107 8.93934C10.592 9.22064 10.75 9.60218 10.75 10V13.75C10.9489 13.75 11.1397 13.829 11.2803 13.9697C11.421 14.1103 11.5 14.3011 11.5 14.5ZM19.75 10C19.75 11.9284 19.1782 13.8134 18.1068 15.4168C17.0355 17.0202 15.5127 18.2699 13.7312 19.0078C11.9496 19.7458 9.98919 19.9389 8.09787 19.5627C6.20656 19.1865 4.46928 18.2579 3.10571 16.8943C1.74215 15.5307 0.813554 13.7934 0.437348 11.9021C0.061142 10.0108 0.254225 8.05042 0.992179 6.26884C1.73013 4.48726 2.97982 2.96451 4.58319 1.89317C6.18657 0.821828 8.07164 0.25 10 0.25C12.585 0.25273 15.0634 1.28084 16.8913 3.10872C18.7192 4.93661 19.7473 7.41498 19.75 10ZM18.25 10C18.25 8.3683 17.7661 6.77325 16.8596 5.41655C15.9531 4.05984 14.6646 3.00242 13.1571 2.37799C11.6497 1.75357 9.99085 1.59019 8.39051 1.90852C6.79017 2.22685 5.32016 3.01259 4.16637 4.16637C3.01259 5.32015 2.22685 6.79016 1.90853 8.3905C1.5902 9.99085 1.75358 11.6496 2.378 13.1571C3.00242 14.6646 4.05984 15.9531 5.41655 16.8596C6.77326 17.7661 8.36831 18.25 10 18.25C12.1873 18.2475 14.2843 17.3775 15.8309 15.8309C17.3775 14.2843 18.2475 12.1873 18.25 10ZM9.625 7C9.84751 7 10.065 6.93402 10.25 6.8104C10.435 6.68679 10.5792 6.51109 10.6644 6.30552C10.7495 6.09995 10.7718 5.87375 10.7284 5.65552C10.685 5.43729 10.5778 5.23684 10.4205 5.0795C10.2632 4.92217 10.0627 4.81502 9.84448 4.77162C9.62625 4.72821 9.40005 4.75049 9.19449 4.83564C8.98892 4.92078 8.81322 5.06498 8.6896 5.24998C8.56598 5.43499 8.5 5.6525 8.5 5.875C8.5 6.17337 8.61853 6.45952 8.82951 6.6705C9.04049 6.88147 9.32664 7 9.625 7Z" fill="#ED3A11"/>
</svg>
