<svg fill="none" height="20" viewBox="0 0 19 20" width="19" xmlns="http://www.w3.org/2000/svg"><path d="m9.5.25c-5.04656 0-9 2.30625-9 5.25v9c0 2.9438 3.95344 5.25 9 5.25 5.0466 0 9-2.3062 9-5.25v-9c0-2.94375-3.9534-5.25-9-5.25zm7.5 9.75c0 .9019-.7388 1.8216-2.0259 2.5238-1.4494.7903-3.3938 1.2262-5.4741 1.2262-2.08031 0-4.02469-.4359-5.47406-1.2262-1.28719-.7022-2.02594-1.6219-2.02594-2.5238v-1.56c1.59938 1.40625 4.33406 2.31 7.5 2.31 3.1659 0 5.9006-.9075 7.5-2.31zm-12.97406-7.02375c1.44937-.79031 3.39375-1.22625 5.47406-1.22625 2.0803 0 4.0247.43594 5.4741 1.22625 1.2871.70219 2.0259 1.62187 2.0259 2.52375s-.7388 1.82156-2.0259 2.52375c-1.4494.79031-3.3938 1.22625-5.4741 1.22625-2.08031 0-4.02469-.43594-5.47406-1.22625-1.28719-.70219-2.02594-1.62187-2.02594-2.52375s.73875-1.82156 2.02594-2.52375zm10.94816 14.04755c-1.4494.7903-3.3938 1.2262-5.4741 1.2262-2.08031 0-4.02469-.4359-5.47406-1.2262-1.28719-.7022-2.02594-1.6219-2.02594-2.5238v-1.56c1.59938 1.4063 4.33406 2.31 7.5 2.31 3.1659 0 5.9006-.9075 7.5-2.31v1.56c0 .9019-.7388 1.8216-2.0259 2.5238z" fill="#fff"/></svg>
