<svg fill="none" height="46" viewBox="0 0 34 46" width="34" xmlns="http://www.w3.org/2000/svg"><path d="m33.4607 21.1569c-.0568-.2404-.1721-.463-.3357-.6482-.1635-.1851-.3702-.327-.6018-.413l-10.8019-4.0519 2.7488-13.74937c.0622-.31946.0189-.6505-.1236-.94316-.1424-.29266-.3761-.531065-.6659-.679238-.2897-.148172-.6199-.198072-.9405-.142171-.3206.055902-.6144.214573-.8369.452069l-21.000013 22.49997c-.17056.1798-.293945.3989-.359131.638-.065187.239-.070145.4905-.014432.7319s.170363.4653.333705.6516c.163341.1863.370291.3292.602361.416l10.80561 4.0519-2.74124 13.7344c-.06224.3194-.01889.6505.12351.9431.14241.2927.37613.5311.66593.6793.2898.1481.6199.198.9405.1421s.6144-.2145.8369-.452l21-22.5c.1675-.1798.2883-.3979.3517-.6353.0634-.2373.0676-.4866.0121-.726zm-19.9538 17.9682 1.9632-9.8213c.0702-.3483.0145-.7103-.1571-1.0214-.1717-.3111-.4483-.5511-.7804-.6773l-9.90754-3.7219 15.86624-16.99877-1.9612 9.82127c-.0703.3483-.0146.7102.1571 1.0213s.4482.5512.7804.6774l9.9 3.7125z"/></svg>