<svg fill="none" height="41" viewBox="0 0 36 41" width="36" xmlns="http://www.w3.org/2000/svg"><path d="m33 14h-6v-4.5c0-2.38695-.9482-4.67613-2.636-6.36396-1.6879-1.68783-3.9771-2.63604-6.364-2.63604s-4.6761.94821-6.364 2.63604c-1.68779 1.68783-2.636 3.97701-2.636 6.36396v4.5h-6c-.79565 0-1.55871.3161-2.12132.8787s-.87868 1.3257-.87868 2.1213v21c0 .7957.31607 1.5587.87868 2.1213s1.32567.8787 2.12132.8787h30c.7957 0 1.5587-.3161 2.1213-.8787s.8787-1.3256.8787-2.1213v-21c0-.7956-.3161-1.5587-.8787-2.1213s-1.3256-.8787-2.1213-.8787zm-21-4.5c0-1.5913.6321-3.11742 1.7574-4.24264 1.1252-1.12522 2.6513-1.75736 4.2426-1.75736s3.1174.63214 4.2426 1.75736c1.1253 1.12522 1.7574 2.65134 1.7574 4.24264v4.5h-12zm21 28.5h-30v-21h30zm-12.75-10.5c0 .445-.132.88-.3792 1.25s-.5986.6584-1.0098.8287c-.4111.1703-.8635.2149-1.3.1281-.4364-.0868-.8373-.3011-1.152-.6158s-.529-.7156-.6158-1.152c-.0868-.4365-.0422-.8889.1281-1.3.1703-.4112.4587-.7626.8287-1.0098s.805-.3792 1.25-.3792c.5967 0 1.169.2371 1.591.659.4219.422.659.9943.659 1.591z"/></svg>