<svg fill="none" height="36" viewBox="0 0 41 36" width="41" xmlns="http://www.w3.org/2000/svg"><path d="m40.5 22.5c0 .3978-.1581.7794-.4394 1.0607s-.6628.4393-1.0606.4393h-3v3c0 .3978-.1581.7794-.4394 1.0607s-.6628.4393-1.0606.4393c-.3979 0-.7794-.158-1.0607-.4393s-.4393-.6629-.4393-1.0607v-3h-3c-.3979 0-.7794-.158-1.0607-.4393s-.4393-.6629-.4393-1.0607.158-.7794.4393-1.0607.6628-.4393 1.0607-.4393h3v-3c0-.3978.158-.7794.4393-1.0607s.6628-.4393 1.0607-.4393c.3978 0 .7793.158 1.0606.4393s.4394.6629.4394 1.0607v3h3c.3978 0 .7793.158 1.0606.4393s.4394.6629.4394 1.0607zm-36.00004-15h3v3c0 .3978.15803.7794.43934 1.0607.2813.2813.66283.4393 1.06066.4393.39782 0 .77935-.158 1.06064-.4393.2813-.2813.4394-.6629.4394-1.0607v-3h3c.3978 0 .7793-.15804 1.0606-.43934s.4394-.66284.4394-1.06066-.1581-.77936-.4394-1.06066-.6628-.43934-1.0606-.43934h-3v-3c0-.39782-.1581-.779355-.4394-1.06066-.28129-.281304-.66282-.43934-1.06064-.43934-.39783 0-.77936.158036-1.06066.43934-.28131.281305-.43934.66284-.43934 1.06066v3h-3c-.39783 0-.77936.15804-1.06066.43934-.28131.2813-.43934.66284-.43934 1.06066s.15803.77936.43934 1.06066c.2813.2813.66283.43934 1.06066.43934zm24.00004 22.5h-1.5v-1.5c0-.3978-.1581-.7794-.4394-1.0607s-.6628-.4393-1.0606-.4393c-.3979 0-.7794.158-1.0607.4393s-.4393.6629-.4393 1.0607v1.5h-1.5c-.3979 0-.7794.158-1.0607.4393s-.4393.6629-.4393 1.0607.158.7794.4393 1.0607.6628.4393 1.0607.4393h1.5v1.5c0 .3978.158.7794.4393 1.0607s.6628.4393 1.0607.4393c.3978 0 .7793-.158 1.0606-.4393s.4394-.6629.4394-1.0607v-1.5h1.5c.3978 0 .7793-.158 1.0606-.4393s.4394-.6629.4394-1.0607-.1581-.7794-.4394-1.0607-.6628-.4393-1.0606-.4393zm6.6206-21-26.12064 26.1206c-.56256.5622-1.32532.878-2.12063.878s-1.55807-.3158-2.12062-.878l-3.881253-3.8775c-.278648-.2786-.499688-.6093-.650495-.9733-.1508069-.364-.22842684-.7542-.22842684-1.1482 0-.3941.07761994-.7842.22842684-1.1482.150807-.3641.371847-.6948.650495-.9734l26.122543-26.120625c.2785-.278649.6093-.499688.9733-.650495.364-.1508065.7542-.22842653 1.1482-.22842653s.7842.07762003 1.1482.22842653c.3641.150807.6948.371846.9734.650495l3.8775 3.877505c.2786.27858.4997.60933.6505.97335s.2284.75418.2284 1.14821c0 .39402-.0776.78418-.2284 1.14821-.1508.36402-.3719.69477-.6505.97335zm-10.2431 6-3.8775-3.8794-18.00004 18 3.8775 3.8794zm8.1225-8.12062-3.8794-3.87938-6 6 3.8794 3.8794z"/></svg>