<svg fill="none" height="30" viewBox="0 0 40 30" width="40" xmlns="http://www.w3.org/2000/svg"><path d="m38 0h-36c-.39782 0-.77936.158036-1.06066.43934-.281305.281305-.43934.66284-.43934 1.06066v25.5c0 .7956.31607 1.5587.87868 2.1213s1.32567.8787 2.12132.8787h33c.7957 0 1.5587-.3161 2.1213-.8787s.8787-1.3257.8787-2.1213v-25.5c0-.39782-.158-.779355-.4393-1.06066-.2813-.281304-.6629-.43934-1.0607-.43934zm-3.8569 3-14.1431 12.9656-14.14313-12.9656zm2.3569 24h-33v-22.08937l15.4856 14.19557c.2768.2541.6387.395 1.0144.395s.7376-.1409 1.0144-.395l15.4856-14.19557z"/></svg>