<svg fill="none" height="17" viewBox="0 0 21 17" width="21" xmlns="http://www.w3.org/2000/svg"><path d="m19.1756 5.12445-16.5056-5.0624965c-.2234-.06515884-.4589-.0774457-.68787-.0358891-.22897.0415567-.44513.1358166-.63138.2753266-.18626.139509-.3375.32044-.441762.528484-.104266.208045-.158697.437495-.158988.670205v13.50002c0 .3978.158035.7793.43934 1.0606.2813.2813.66284.4394 1.06066.4394.14344 0 .28614-.0205.42375-.061l7.82625-2.4018v.9628c0 .3978.158.7793.4393 1.0606s.6629.4394 1.0607.4394h3c.3978 0 .7794-.1581 1.0607-.4394s.4393-.6628.4393-1.0606v-2.8031l2.6756-.8204c.3097-.093.5813-.2831.7747-.5422s.2985-.5735.2997-.89682v-3.375c-.0014-.32318-.1066-.63737-.3-.89628s-.4649-.44885-.7744-.54185zm-8.6756 7.34435-8.25 2.5313v-13.50002l8.25 2.53125zm4.5 2.5313h-3v-1.4231l3-.9207zm3.75-5.06252h-.0103l-6.7397 2.07002v-7.51502l6.7397 2.0625h.0103v3.375z" fill="#f26a4b"/></svg>