<svg fill="none" height="36" viewBox="0 0 36 36" width="36" xmlns="http://www.w3.org/2000/svg"><path d="m36 18c.0002 4.2383-1.4951 8.3407-4.2227 11.5847-2.7275 3.2441-6.5123 5.4216-10.6877 6.1491-4.1754.7274-8.4736-.0418-12.13758-2.1723-3.66394-2.1304-6.45859-5.4854-7.89174-9.4741-1.433144-3.9886-1.412853-8.3551.0573-12.3302 1.47016-3.97518 4.29587-7.30408 7.97945-9.40039 3.68357-2.096303 7.98877-2.825556 12.15717-2.059309 4.1685.766249 7.9329 2.978839 10.6302 6.248079.1339.15067.236.32679.3004.51782.0643.19104.0894.39309.0739.59406-.0155.20098-.0713.39677-.1642.57568-.0929.1789-.2209.33725-.3763.46559-.1555.12834-.3352.22403-.5284.28136-.1933.05733-.3961.07511-.5964.0523s-.3939-.08576-.5693-.18508-.329-.23297-.4516-.39298c-2.2062-2.67503-5.271-4.50312-8.673-5.17329-3.402-.67016-6.9312-.14101-9.9871 1.49744-3.05586 1.63846-5.44973 4.28501-6.77435 7.48942-1.32462 3.2044-1.49817 6.7688-.49112 10.0868 1.00704 3.3179 3.13248 6.1845 6.01474 8.1121 2.88223 1.9276 6.34333 2.7971 9.79433 2.4606 3.4511-.3365 6.679-1.8582 9.1346-4.3062 2.4556-2.4481 3.9873-5.6713 4.3344-9.1212h-14.925c-.3978 0-.7794-.1581-1.0607-.4394s-.4393-.6628-.4393-1.0606c0-.3979.158-.7794.4393-1.0607s.6629-.4393 1.0607-.4393h16.5c.3978 0 .7794.158 1.0607.4393s.4393.6628.4393 1.0607z"/></svg>