<svg fill="none" height="18" viewBox="0 0 20 18" width="20" xmlns="http://www.w3.org/2000/svg"><path d="m19.75 6c.0004-.06973-.0091-.13917-.0281-.20625l-1.3453-4.70625c-.0905-.312268-.2795-.586909-.5388-.782912-.2594-.196003-.5752-.30285087-.9003-.304588h-13.875c-.32509.00173713-.6409.108585-.90027.304588-.25936.196003-.44837.470644-.53879.782912l-1.344377 4.70625c-.019367.06704-.029151.13647-.029062.20625v1.5c0 .58217.135544 1.15634.395898 1.67705.260353.52071.638371.97365 1.104101 1.32295v6c0 .3978.15804.7794.43934 1.0607s.66284.4393 1.06066.4393h13.5c.3978 0 .7794-.158 1.0607-.4393s.4393-.6629.4393-1.0607v-6c.4657-.3493.8437-.80224 1.1041-1.32295s.3959-1.09488.3959-1.67705zm-16.6875-4.5h13.875l1.0706 3.75h-16.01341zm4.6875 5.25h4.5v.75c0 .59674-.2371 1.16903-.659 1.59099-.422.42196-.9943.65901-1.591.65901-.59674 0-1.16903-.23705-1.59099-.65901s-.65901-.99425-.65901-1.59099zm-1.5 0v.75c0 .59674-.23705 1.16903-.65901 1.59099s-.99425.65901-1.59099.65901-1.16903-.23705-1.59099-.65901-.65901-.99425-.65901-1.59099v-.75zm10.5 9.75h-13.5v-5.325c.2469.0498.49813.0749.75.075.58217 0 1.15634-.1355 1.67705-.3959s.97365-.6384 1.32295-1.1041c.3493.4657.80224.8437 1.32295 1.1041s1.09488.3959 1.67705.3959c.5822 0 1.1563-.1355 1.6771-.3959.5207-.2604.9736-.6384 1.3229-1.1041.3493.4657.8022.8437 1.3229 1.1041.5208.2604 1.0949.3959 1.6771.3959.2519-.0001.5031-.0252.75-.075zm-.75-6.75c-.5967 0-1.169-.23705-1.591-.65901-.4219-.42196-.659-.99425-.659-1.59099v-.75h4.5v.75c0 .59674-.2371 1.16903-.659 1.59099-.422.42196-.9943.65901-1.591.65901z" fill="#f26a4b"/></svg>