<svg width="36" height="36" viewBox="0 0 36 36" fill="none" xmlns="http://www.w3.org/2000/svg">
<path d="M18 0.297852C14.4988 0.297852 11.0763 1.33606 8.16521 3.2812C5.25411 5.22633 2.98519 7.99103 1.64535 11.2257C0.305522 14.4603 -0.0450396 18.0196 0.638001 21.4535C1.32104 24.8874 3.00701 28.0416 5.48269 30.5173C7.95838 32.993 11.1126 34.6789 14.5465 35.362C17.9804 36.045 21.5397 35.6944 24.7743 34.3546C28.0089 33.0148 30.7736 30.7459 32.7188 27.8348C34.6639 24.9237 35.7021 21.5011 35.7021 18C35.6972 13.3066 33.8305 8.80688 30.5118 5.48816C27.1931 2.16944 22.6934 0.302808 18 0.297852ZM18 32.9787C15.0375 32.9787 12.1415 32.1002 9.67825 30.4543C7.21502 28.8084 5.29516 26.4691 4.16145 23.7321C3.02775 20.9951 2.73112 17.9834 3.30908 15.0778C3.88703 12.1722 5.31362 9.50323 7.40843 7.40842C9.50324 5.31361 12.1722 3.88702 15.0778 3.30907C17.9834 2.73111 20.9951 3.02774 23.7321 4.16144C26.4691 5.29515 28.8085 7.21501 30.4543 9.67825C32.1002 12.1415 32.9787 15.0375 32.9787 18C32.9742 21.9712 31.3946 25.7785 28.5866 28.5866C25.7785 31.3946 21.9712 32.9742 18 32.9787ZM9.82977 14.5957C9.82977 14.1917 9.94957 13.7968 10.174 13.4609C10.3984 13.125 10.7174 12.8632 11.0907 12.7087C11.4639 12.5541 11.8746 12.5136 12.2708 12.5924C12.667 12.6712 13.031 12.8658 13.3166 13.1514C13.6023 13.4371 13.7968 13.801 13.8756 14.1972C13.9544 14.5935 13.914 15.0041 13.7594 15.3774C13.6048 15.7506 13.343 16.0696 13.0071 16.294C12.6712 16.5185 12.2763 16.6383 11.8723 16.6383C11.3306 16.6383 10.8111 16.4231 10.428 16.04C10.045 15.657 9.82977 15.1374 9.82977 14.5957ZM26.1702 14.5957C26.1702 14.9997 26.0504 15.3946 25.826 15.7305C25.6015 16.0664 25.2825 16.3282 24.9093 16.4828C24.5361 16.6374 24.1254 16.6778 23.7292 16.599C23.3329 16.5202 22.969 16.3257 22.6833 16.04C22.3977 15.7544 22.2032 15.3904 22.1243 14.9942C22.0455 14.598 22.086 14.1873 22.2406 13.8141C22.3952 13.4408 22.657 13.1218 22.9929 12.8974C23.3288 12.673 23.7237 12.5532 24.1276 12.5532C24.6694 12.5532 25.1889 12.7684 25.5719 13.1514C25.955 13.5345 26.1702 14.054 26.1702 14.5957ZM25.9864 25.4893C26.0849 25.6443 26.151 25.8176 26.1809 25.9989C26.2107 26.1801 26.2035 26.3654 26.1598 26.5438C26.1161 26.7222 26.0368 26.8899 25.9266 27.0368C25.8164 27.1838 25.6777 27.3069 25.5187 27.3988C25.3597 27.4907 25.1837 27.5495 25.0014 27.5716C24.8191 27.5938 24.6342 27.5788 24.4578 27.5276C24.2814 27.4765 24.1172 27.3902 23.9751 27.2739C23.8329 27.1576 23.7158 27.0138 23.6306 26.851C22.3591 24.6536 20.3608 23.4468 18 23.4468C15.6391 23.4468 13.6408 24.6553 12.3693 26.851C12.2842 27.0138 12.1671 27.1576 12.0249 27.2739C11.8827 27.3902 11.7185 27.4765 11.5422 27.5276C11.3658 27.5788 11.1809 27.5938 10.9986 27.5716C10.8163 27.5495 10.6403 27.4907 10.4813 27.3988C10.3223 27.3069 10.1835 27.1838 10.0734 27.0368C9.96318 26.8899 9.88386 26.7222 9.84016 26.5438C9.79647 26.3654 9.78931 26.1801 9.81912 25.9989C9.84892 25.8176 9.91508 25.6443 10.0136 25.4893C11.7651 22.4613 14.6757 20.7234 18 20.7234C21.3242 20.7234 24.2349 22.4596 25.9864 25.4893Z" fill="#D04232"/>
</svg>
