<svg width="30" height="19" viewBox="0 0 30 19" fill="none" xmlns="http://www.w3.org/2000/svg">
<path d="M29.4713 2.31866C29.3118 2.23319 29.1321 2.19258 28.9514 2.20117C28.7707 2.20975 28.5956 2.26721 28.445 2.36741L24 5.32491V2.19366C24 1.66323 23.7893 1.15452 23.4142 0.779451C23.0391 0.404378 22.5304 0.193665 22 0.193665H2C1.46957 0.193665 0.960859 0.404378 0.585786 0.779451C0.210714 1.15452 0 1.66323 0 2.19366V16.1937C0 16.7241 0.210714 17.2328 0.585786 17.6079C0.960859 17.983 1.46957 18.1937 2 18.1937H22C22.5304 18.1937 23.0391 17.983 23.4142 17.6079C23.7893 17.2328 24 16.7241 24 16.1937V13.0687L28.445 16.0324C28.6101 16.1396 28.8032 16.1957 29 16.1937C29.2652 16.1937 29.5196 16.0883 29.7071 15.9008C29.8946 15.7132 30 15.4589 30 15.1937V3.19366C29.9987 3.01374 29.949 2.83748 29.8559 2.68349C29.7628 2.52949 29.63 2.40345 29.4713 2.31866ZM22 16.1937H2V2.19366H22V16.1937ZM28 13.3249L24 10.6587V7.72866L28 5.06866V13.3249Z" fill="#F26A4B"/>
</svg>
